<?xml version="1.0" encoding="UTF-8" standalone="no"?>
<!DOCTYPE svg PUBLIC "-//W3C//DTD SVG 1.1//EN"
 "http://www.w3.org/Graphics/SVG/1.1/DTD/svg11.dtd">
<!-- Generated by graphviz version 8.1.0 (20230707.0739)
 -->
<!-- Title: dependency&#45;cruiser output Pages: 1 -->
<svg width="629pt" height="807pt"
 viewBox="0.00 0.00 628.50 807.00" xmlns="http://www.w3.org/2000/svg" xmlns:xlink="http://www.w3.org/1999/xlink">
<g id="graph0" class="graph" transform="scale(1 1) rotate(0) translate(4 803)">
<title>dependency&#45;cruiser output</title>
<polygon fill="white" stroke="none" points="-4,4 -4,-803 624.5,-803 624.5,4 -4,4"/>
<g id="clust1" class="cluster">
<title>cluster_src</title>
<path fill="#ffffff" stroke="black" stroke-width="2" d="M20,-8C20,-8 600.5,-8 600.5,-8 606.5,-8 612.5,-14 612.5,-20 612.5,-20 612.5,-779 612.5,-779 612.5,-785 606.5,-791 600.5,-791 600.5,-791 20,-791 20,-791 14,-791 8,-785 8,-779 8,-779 8,-20 8,-20 8,-14 14,-8 20,-8"/>
<text text-anchor="middle" x="310.25" y="-778.45" font-family="Helvetica,sans-Serif" font-weight="bold" font-size="9.00">src</text>
</g>
<g id="clust2" class="cluster">
<title>cluster_src/components</title>
<path fill="#ffffff" stroke="black" stroke-width="2" d="M28,-16C28,-16 464,-16 464,-16 470,-16 476,-22 476,-28 476,-28 476,-529 476,-529 476,-535 470,-541 464,-541 464,-541 28,-541 28,-541 22,-541 16,-535 16,-529 16,-529 16,-28 16,-28 16,-22 22,-16 28,-16"/>
<text text-anchor="middle" x="246" y="-528.45" font-family="Helvetica,sans-Serif" font-weight="bold" font-size="9.00">components</text>
</g>
<g id="clust3" class="cluster">
<title>cluster_src/components/Routes</title>
<path fill="#ffffff" stroke="black" stroke-width="2" d="M217.12,-24C217.12,-24 456,-24 456,-24 462,-24 468,-30 468,-36 468,-36 468,-196 468,-196 468,-202 462,-208 456,-208 456,-208 217.12,-208 217.12,-208 211.12,-208 205.12,-202 205.12,-196 205.12,-196 205.12,-36 205.12,-36 205.12,-30 211.12,-24 217.12,-24"/>
<text text-anchor="middle" x="336.56" y="-195.45" font-family="Helvetica,sans-Serif" font-weight="bold" font-size="9.00">Routes</text>
</g>
<g id="clust4" class="cluster">
<title>cluster_src/components/Routes/Feed</title>
<path fill="#ffffff" stroke="black" stroke-width="2" d="M225.12,-32C225.12,-32 448,-32 448,-32 454,-32 460,-38 460,-44 460,-44 460,-108 460,-108 460,-114 454,-120 448,-120 448,-120 225.12,-120 225.12,-120 219.12,-120 213.12,-114 213.12,-108 213.12,-108 213.12,-44 213.12,-44 213.12,-38 219.12,-32 225.12,-32"/>
<text text-anchor="middle" x="336.56" y="-107.45" font-family="Helvetica,sans-Serif" font-weight="bold" font-size="9.00">Feed</text>
</g>
<g id="clust5" class="cluster">
<title>cluster_src/components/Routes/Feed/children</title>
<path fill="#ffffff" stroke="black" stroke-width="2" d="M362.25,-40C362.25,-40 440,-40 440,-40 446,-40 452,-46 452,-52 452,-52 452,-81 452,-81 452,-87 446,-93 440,-93 440,-93 362.25,-93 362.25,-93 356.25,-93 350.25,-87 350.25,-81 350.25,-81 350.25,-52 350.25,-52 350.25,-46 356.25,-40 362.25,-40"/>
<text text-anchor="middle" x="401.12" y="-80.45" font-family="Helvetica,sans-Serif" font-weight="bold" font-size="9.00">children</text>
</g>
<g id="clust6" class="cluster">
<title>cluster_src/components/Routes/Login</title>
<path fill="#ffffff" stroke="black" stroke-width="2" d="M225.12,-128C225.12,-128 271.12,-128 271.12,-128 277.12,-128 283.12,-134 283.12,-140 283.12,-140 283.12,-169 283.12,-169 283.12,-175 277.12,-181 271.12,-181 271.12,-181 225.12,-181 225.12,-181 219.12,-181 213.12,-175 213.12,-169 213.12,-169 213.12,-140 213.12,-140 213.12,-134 219.12,-128 225.12,-128"/>
<text text-anchor="middle" x="248.12" y="-168.45" font-family="Helvetica,sans-Serif" font-weight="bold" font-size="9.00">Login</text>
</g>
<g id="clust7" class="cluster">
<title>cluster_src/components/effects</title>
<path fill="#ffffff" stroke="black" stroke-width="2" d="M166,-216C166,-216 330.25,-216 330.25,-216 336.25,-216 342.25,-222 342.25,-228 342.25,-228 342.25,-384 342.25,-384 342.25,-390 336.25,-396 330.25,-396 330.25,-396 166,-396 166,-396 160,-396 154,-390 154,-384 154,-384 154,-228 154,-228 154,-222 160,-216 166,-216"/>
<text text-anchor="middle" x="248.12" y="-383.45" font-family="Helvetica,sans-Serif" font-weight="bold" font-size="9.00">effects</text>
</g>
<g id="clust8" class="cluster">
<title>cluster_src/components/effects/NavigationEffects</title>
<path fill="#ffffff" stroke="black" stroke-width="2" d="M174,-285C174,-285 322.25,-285 322.25,-285 328.25,-285 334.25,-291 334.25,-297 334.25,-297 334.25,-357 334.25,-357 334.25,-363 328.25,-369 322.25,-369 322.25,-369 174,-369 174,-369 168,-369 162,-363 162,-357 162,-357 162,-297 162,-297 162,-291 168,-285 174,-285"/>
<text text-anchor="middle" x="248.12" y="-356.45" font-family="Helvetica,sans-Serif" font-weight="bold" font-size="9.00">NavigationEffects</text>
</g>
<g id="clust9" class="cluster">
<title>cluster_src/components/effects/UIEffects</title>
<path fill="#ffffff" stroke="black" stroke-width="2" d="M206.62,-224C206.62,-224 289.62,-224 289.62,-224 295.62,-224 301.62,-230 301.62,-236 301.62,-236 301.62,-265 301.62,-265 301.62,-271 295.62,-277 289.62,-277 289.62,-277 206.62,-277 206.62,-277 200.62,-277 194.62,-271 194.62,-265 194.62,-265 194.62,-236 194.62,-236 194.62,-230 200.62,-224 206.62,-224"/>
<text text-anchor="middle" x="248.12" y="-264.45" font-family="Helvetica,sans-Serif" font-weight="bold" font-size="9.00">UIEffects</text>
</g>
<g id="clust10" class="cluster">
<title>cluster_src/components/etc</title>
<path fill="#ffffff" stroke="black" stroke-width="2" d="M183.38,-404C183.38,-404 312.88,-404 312.88,-404 318.88,-404 324.88,-410 324.88,-416 324.88,-416 324.88,-476 324.88,-476 324.88,-482 318.88,-488 312.88,-488 312.88,-488 183.38,-488 183.38,-488 177.38,-488 171.38,-482 171.38,-476 171.38,-476 171.38,-416 171.38,-416 171.38,-410 177.38,-404 183.38,-404"/>
<text text-anchor="middle" x="248.12" y="-475.45" font-family="Helvetica,sans-Serif" font-weight="bold" font-size="9.00">etc</text>
</g>
<g id="clust11" class="cluster">
<title>cluster_src/reusables</title>
<path fill="#ffffff" stroke="black" stroke-width="2" d="M370.12,-549C370.12,-549 592.5,-549 592.5,-549 598.5,-549 604.5,-555 604.5,-561 604.5,-561 604.5,-752 604.5,-752 604.5,-758 598.5,-764 592.5,-764 592.5,-764 370.12,-764 370.12,-764 364.12,-764 358.12,-758 358.12,-752 358.12,-752 358.12,-561 358.12,-561 358.12,-555 364.12,-549 370.12,-549"/>
<text text-anchor="middle" x="481.31" y="-751.45" font-family="Helvetica,sans-Serif" font-weight="bold" font-size="9.00">reusables</text>
</g>
<g id="clust12" class="cluster">
<title>cluster_src/reusables/logic</title>
<path fill="#ffffff" stroke="black" stroke-width="2" d="M378.12,-649C378.12,-649 576.75,-649 576.75,-649 582.75,-649 588.75,-655 588.75,-661 588.75,-661 588.75,-725 588.75,-725 588.75,-731 582.75,-737 576.75,-737 576.75,-737 378.12,-737 378.12,-737 372.12,-737 366.12,-731 366.12,-725 366.12,-725 366.12,-661 366.12,-661 366.12,-655 372.12,-649 378.12,-649"/>
<text text-anchor="middle" x="477.44" y="-724.45" font-family="Helvetica,sans-Serif" font-weight="bold" font-size="9.00">logic</text>
</g>
<g id="clust13" class="cluster">
<title>cluster_src/reusables/logic/dependent</title>
<path fill="#ffffff" stroke="black" stroke-width="2" d="M503.75,-657C503.75,-657 568.75,-657 568.75,-657 574.75,-657 580.75,-663 580.75,-669 580.75,-669 580.75,-698 580.75,-698 580.75,-704 574.75,-710 568.75,-710 568.75,-710 503.75,-710 503.75,-710 497.75,-710 491.75,-704 491.75,-698 491.75,-698 491.75,-669 491.75,-669 491.75,-663 497.75,-657 503.75,-657"/>
<text text-anchor="middle" x="536.25" y="-697.45" font-family="Helvetica,sans-Serif" font-weight="bold" font-size="9.00">dependent</text>
</g>
<g id="clust14" class="cluster">
<title>cluster_src/reusables/state</title>
<path fill="#ffffff" stroke="black" stroke-width="2" d="M378.12,-557C378.12,-557 584.5,-557 584.5,-557 590.5,-557 596.5,-563 596.5,-569 596.5,-569 596.5,-629 596.5,-629 596.5,-635 590.5,-641 584.5,-641 584.5,-641 378.12,-641 378.12,-641 372.12,-641 366.12,-635 366.12,-629 366.12,-629 366.12,-569 366.12,-569 366.12,-563 372.12,-557 378.12,-557"/>
<text text-anchor="middle" x="481.31" y="-628.45" font-family="Helvetica,sans-Serif" font-weight="bold" font-size="9.00">state</text>
</g>
<!-- src/components/App.tsx -->
<g id="node1" class="node">
<title>src/components/App.tsx</title>
<g id="a_node1"><a xlink:href="src/components/App.tsx" xlink:title="App.tsx">
<path fill="#bbfeff" stroke="black" d="M139.33,-342.25C139.33,-342.25 97.67,-342.25 97.67,-342.25 94.58,-342.25 91.5,-339.17 91.5,-336.08 91.5,-336.08 91.5,-329.92 91.5,-329.92 91.5,-326.83 94.58,-323.75 97.67,-323.75 97.67,-323.75 139.33,-323.75 139.33,-323.75 142.42,-323.75 145.5,-326.83 145.5,-329.92 145.5,-329.92 145.5,-336.08 145.5,-336.08 145.5,-339.17 142.42,-342.25 139.33,-342.25"/>
<text text-anchor="start" x="103.5" y="-329.7" font-family="Helvetica,sans-Serif" font-size="9.00">App.tsx</text>
</a>
</g>
</g>
<!-- src/components/effects/NavigationEffects/GoToLoginWhenJwtAtomIsNull.tsx -->
<g id="node2" class="node">
<title>src/components/effects/NavigationEffects/GoToLoginWhenJwtAtomIsNull.tsx</title>
<g id="a_node2"><a xlink:href="src/components/effects/NavigationEffects/GoToLoginWhenJwtAtomIsNull.tsx" xlink:title="GoToLoginWhenJwtAtomIsNull.tsx">
<path fill="#bbfeff" stroke="black" d="M320.08,-311.25C320.08,-311.25 176.17,-311.25 176.17,-311.25 173.08,-311.25 170,-308.17 170,-305.08 170,-305.08 170,-298.92 170,-298.92 170,-295.83 173.08,-292.75 176.17,-292.75 176.17,-292.75 320.08,-292.75 320.08,-292.75 323.17,-292.75 326.25,-295.83 326.25,-298.92 326.25,-298.92 326.25,-305.08 326.25,-305.08 326.25,-308.17 323.17,-311.25 320.08,-311.25"/>
<text text-anchor="start" x="178" y="-298.7" font-family="Helvetica,sans-Serif" font-size="9.00">GoToLoginWhenJwtAtomIsNull.tsx</text>
</a>
</g>
</g>
<!-- src/components/App.tsx&#45;&gt;src/components/effects/NavigationEffects/GoToLoginWhenJwtAtomIsNull.tsx -->
<g id="edge1" class="edge">
<title>src/components/App.tsx&#45;&gt;src/components/effects/NavigationEffects/GoToLoginWhenJwtAtomIsNull.tsx</title>
<path fill="none" stroke="#000000" stroke-width="2" stroke-opacity="0.200000" d="M139.63,-323.29C144.27,-321.32 149.24,-319.42 154,-318 159.26,-316.43 164.74,-315 170.28,-313.69"/>
<polygon fill="#000000" fill-opacity="0.200000" stroke="#000000" stroke-width="2" stroke-opacity="0.200000" points="171.64,-315.1 177.04,-311.74 170.72,-311 171.64,-315.1"/>
</g>
<!-- src/components/effects/NavigationEffects/SignInEffect.tsx -->
<g id="node3" class="node">
<title>src/components/effects/NavigationEffects/SignInEffect.tsx</title>
<g id="a_node3"><a xlink:href="src/components/effects/NavigationEffects/SignInEffect.tsx" xlink:title="SignInEffect.tsx">
<path fill="#bbfeff" stroke="black" d="M281.08,-342.25C281.08,-342.25 215.17,-342.25 215.17,-342.25 212.08,-342.25 209,-339.17 209,-336.08 209,-336.08 209,-329.92 209,-329.92 209,-326.83 212.08,-323.75 215.17,-323.75 215.17,-323.75 281.08,-323.75 281.08,-323.75 284.17,-323.75 287.25,-326.83 287.25,-329.92 287.25,-329.92 287.25,-336.08 287.25,-336.08 287.25,-339.17 284.17,-342.25 281.08,-342.25"/>
<text text-anchor="start" x="217" y="-329.7" font-family="Helvetica,sans-Serif" font-size="9.00">SignInEffect.tsx</text>
</a>
</g>
</g>
<!-- src/components/App.tsx&#45;&gt;src/components/effects/NavigationEffects/SignInEffect.tsx -->
<g id="edge2" class="edge">
<title>src/components/App.tsx&#45;&gt;src/components/effects/NavigationEffects/SignInEffect.tsx</title>
<path fill="none" stroke="#000000" stroke-width="2" stroke-opacity="0.200000" d="M145.94,-333C161.5,-333 181.64,-333 199.85,-333"/>
<polygon fill="#000000" fill-opacity="0.200000" stroke="#000000" stroke-width="2" stroke-opacity="0.200000" points="199.61,-335.1 205.61,-333 199.61,-330.9 199.61,-335.1"/>
</g>
<!-- src/components/effects/UIEffects/ThemeChange.tsx -->
<g id="node4" class="node">
<title>src/components/effects/UIEffects/ThemeChange.tsx</title>
<g id="a_node4"><a xlink:href="src/components/effects/UIEffects/ThemeChange.tsx" xlink:title="ThemeChange.tsx">
<path fill="#bbfeff" stroke="black" d="M287.46,-250.25C287.46,-250.25 208.79,-250.25 208.79,-250.25 205.71,-250.25 202.62,-247.17 202.62,-244.08 202.62,-244.08 202.62,-237.92 202.62,-237.92 202.62,-234.83 205.71,-231.75 208.79,-231.75 208.79,-231.75 287.46,-231.75 287.46,-231.75 290.54,-231.75 293.62,-234.83 293.62,-237.92 293.62,-237.92 293.62,-244.08 293.62,-244.08 293.62,-247.17 290.54,-250.25 287.46,-250.25"/>
<text text-anchor="start" x="210.62" y="-237.7" font-family="Helvetica,sans-Serif" font-size="9.00">ThemeChange.tsx</text>
</a>
</g>
</g>
<!-- src/components/App.tsx&#45;&gt;src/components/effects/UIEffects/ThemeChange.tsx -->
<g id="edge3" class="edge">
<title>src/components/App.tsx&#45;&gt;src/components/effects/UIEffects/ThemeChange.tsx</title>
<path fill="none" stroke="#000000" stroke-width="2" stroke-opacity="0.200000" d="M123.84,-323.54C129.41,-312.31 140.05,-293.64 154,-282 168.92,-269.55 188.21,-260.23 205.36,-253.65"/>
<polygon fill="#000000" fill-opacity="0.200000" stroke="#000000" stroke-width="2" stroke-opacity="0.200000" points="206.67,-255.67 211.58,-251.64 205.23,-251.73 206.67,-255.67"/>
</g>
<!-- src/components/etc/HttpErrorInterceptor.tsx -->
<g id="node5" class="node">
<title>src/components/etc/HttpErrorInterceptor.tsx</title>
<g id="a_node5"><a xlink:href="src/components/etc/HttpErrorInterceptor.tsx" xlink:title="HttpErrorInterceptor.tsx">
<path fill="#bbfeff" stroke="black" d="M296.46,-461.25C296.46,-461.25 199.79,-461.25 199.79,-461.25 196.71,-461.25 193.62,-458.17 193.62,-455.08 193.62,-455.08 193.62,-448.92 193.62,-448.92 193.62,-445.83 196.71,-442.75 199.79,-442.75 199.79,-442.75 296.46,-442.75 296.46,-442.75 299.54,-442.75 302.62,-445.83 302.62,-448.92 302.62,-448.92 302.62,-455.08 302.62,-455.08 302.62,-458.17 299.54,-461.25 296.46,-461.25"/>
<text text-anchor="start" x="201.62" y="-448.7" font-family="Helvetica,sans-Serif" font-size="9.00">HttpErrorInterceptor.tsx</text>
</a>
</g>
</g>
<!-- src/components/App.tsx&#45;&gt;src/components/etc/HttpErrorInterceptor.tsx -->
<g id="edge4" class="edge">
<title>src/components/App.tsx&#45;&gt;src/components/etc/HttpErrorInterceptor.tsx</title>
<path fill="none" stroke="#000000" stroke-width="2" stroke-opacity="0.200000" d="M142.73,-342.34C143.96,-343.43 145.07,-344.65 146,-346 157.37,-362.55 140.39,-421.24 154,-436 162.14,-444.83 173.24,-449.92 184.95,-452.69"/>
<polygon fill="#000000" fill-opacity="0.200000" stroke="#000000" stroke-width="2" stroke-opacity="0.200000" points="185.26,-455.26 191.54,-454.31 186.04,-451.13 185.26,-455.26"/>
</g>
<!-- src/components/etc/HttpTokenSetterInterceptor.tsx -->
<g id="node6" class="node">
<title>src/components/etc/HttpTokenSetterInterceptor.tsx</title>
<g id="a_node6"><a xlink:href="src/components/etc/HttpTokenSetterInterceptor.tsx" xlink:title="HttpTokenSetterInterceptor.tsx">
<path fill="#bbfeff" stroke="black" d="M310.71,-430.25C310.71,-430.25 185.54,-430.25 185.54,-430.25 182.46,-430.25 179.38,-427.17 179.38,-424.08 179.38,-424.08 179.38,-417.92 179.38,-417.92 179.38,-414.83 182.46,-411.75 185.54,-411.75 185.54,-411.75 310.71,-411.75 310.71,-411.75 313.79,-411.75 316.88,-414.83 316.88,-417.92 316.88,-417.92 316.88,-424.08 316.88,-424.08 316.88,-427.17 313.79,-430.25 310.71,-430.25"/>
<text text-anchor="start" x="187.38" y="-417.7" font-family="Helvetica,sans-Serif" font-size="9.00">HttpTokenSetterInterceptor.tsx</text>
</a>
</g>
</g>
<!-- src/components/App.tsx&#45;&gt;src/components/etc/HttpTokenSetterInterceptor.tsx -->
<g id="edge5" class="edge">
<title>src/components/App.tsx&#45;&gt;src/components/etc/HttpTokenSetterInterceptor.tsx</title>
<path fill="none" stroke="#000000" stroke-width="2" stroke-opacity="0.200000" d="M142.42,-342.58C143.72,-343.61 144.94,-344.75 146,-346 153.85,-355.2 146.28,-362.69 154,-372 167.76,-388.58 188.6,-400.29 207.09,-408.09"/>
<polygon fill="#000000" fill-opacity="0.200000" stroke="#000000" stroke-width="2" stroke-opacity="0.200000" points="207.03,-410.12 213.38,-410.4 208.59,-406.22 207.03,-410.12"/>
</g>
<!-- src/components/Header.tsx -->
<g id="node7" class="node">
<title>src/components/Header.tsx</title>
<g id="a_node7"><a xlink:href="src/components/Header.tsx" xlink:title="Header.tsx">
<path fill="#bbfeff" stroke="black" d="M271.71,-514.25C271.71,-514.25 224.54,-514.25 224.54,-514.25 221.46,-514.25 218.38,-511.17 218.38,-508.08 218.38,-508.08 218.38,-501.92 218.38,-501.92 218.38,-498.83 221.46,-495.75 224.54,-495.75 224.54,-495.75 271.71,-495.75 271.71,-495.75 274.79,-495.75 277.88,-498.83 277.88,-501.92 277.88,-501.92 277.88,-508.08 277.88,-508.08 277.88,-511.17 274.79,-514.25 271.71,-514.25"/>
<text text-anchor="start" x="226.38" y="-501.7" font-family="Helvetica,sans-Serif" font-size="9.00">Header.tsx</text>
</a>
</g>
</g>
<!-- src/components/App.tsx&#45;&gt;src/components/Header.tsx -->
<g id="edge6" class="edge">
<title>src/components/App.tsx&#45;&gt;src/components/Header.tsx</title>
<path fill="none" stroke="#000000" stroke-width="2" stroke-opacity="0.200000" d="M143.23,-342.72C144.27,-343.71 145.21,-344.8 146,-346 163.82,-372.91 132.28,-467.13 154,-491 167.58,-505.93 189.72,-509.71 209.01,-509.63"/>
<polygon fill="#000000" fill-opacity="0.200000" stroke="#000000" stroke-width="2" stroke-opacity="0.200000" points="208.98,-511.63 214.91,-509.33 208.84,-507.44 208.98,-511.63"/>
</g>
<!-- src/components/Routes/Feed/Feed.tsx -->
<g id="node8" class="node">
<title>src/components/Routes/Feed/Feed.tsx</title>
<g id="a_node8"><a xlink:href="src/components/Routes/Feed/Feed.tsx" xlink:title="Feed.tsx">
<path fill="#bbfeff" stroke="black" d="M268.96,-80.25C268.96,-80.25 227.29,-80.25 227.29,-80.25 224.21,-80.25 221.12,-77.17 221.12,-74.08 221.12,-74.08 221.12,-67.92 221.12,-67.92 221.12,-64.83 224.21,-61.75 227.29,-61.75 227.29,-61.75 268.96,-61.75 268.96,-61.75 272.04,-61.75 275.12,-64.83 275.12,-67.92 275.12,-67.92 275.12,-74.08 275.12,-74.08 275.12,-77.17 272.04,-80.25 268.96,-80.25"/>
<text text-anchor="start" x="230.88" y="-67.7" font-family="Helvetica,sans-Serif" font-size="9.00">Feed.tsx</text>
</a>
</g>
</g>
<!-- src/components/App.tsx&#45;&gt;src/components/Routes/Feed/Feed.tsx -->
<g id="edge7" class="edge">
<title>src/components/App.tsx&#45;&gt;src/components/Routes/Feed/Feed.tsx</title>
<path fill="none" stroke="#000000" stroke-width="2" stroke-opacity="0.200000" d="M120.03,-323.29C122.16,-286.75 131.21,-157.97 154,-125 168.01,-104.73 192.29,-91.02 212.54,-82.48"/>
<polygon fill="#000000" fill-opacity="0.200000" stroke="#000000" stroke-width="2" stroke-opacity="0.200000" points="213.85,-84.42 218.65,-80.25 212.3,-80.52 213.85,-84.42"/>
</g>
<!-- src/components/Routes/Login/Login.tsx -->
<g id="node9" class="node">
<title>src/components/Routes/Login/Login.tsx</title>
<g id="a_node9"><a xlink:href="src/components/Routes/Login/Login.tsx" xlink:title="Login.tsx">
<path fill="#bbfeff" stroke="black" d="M268.96,-154.25C268.96,-154.25 227.29,-154.25 227.29,-154.25 224.21,-154.25 221.12,-151.17 221.12,-148.08 221.12,-148.08 221.12,-141.92 221.12,-141.92 221.12,-138.83 224.21,-135.75 227.29,-135.75 227.29,-135.75 268.96,-135.75 268.96,-135.75 272.04,-135.75 275.12,-138.83 275.12,-141.92 275.12,-141.92 275.12,-148.08 275.12,-148.08 275.12,-151.17 272.04,-154.25 268.96,-154.25"/>
<text text-anchor="start" x="229.75" y="-141.7" font-family="Helvetica,sans-Serif" font-size="9.00">Login.tsx</text>
</a>
</g>
</g>
<!-- src/components/App.tsx&#45;&gt;src/components/Routes/Login/Login.tsx -->
<g id="edge8" class="edge">
<title>src/components/App.tsx&#45;&gt;src/components/Routes/Login/Login.tsx</title>
<path fill="none" stroke="#000000" stroke-width="2" stroke-opacity="0.200000" d="M120.55,-323.5C123.17,-303.14 131.5,-254.42 154,-221 171.78,-194.6 201.42,-172.68 222.49,-159.27"/>
<polygon fill="#000000" fill-opacity="0.200000" stroke="#000000" stroke-width="2" stroke-opacity="0.200000" points="224.1,-160.51 228.1,-155.56 221.89,-156.93 224.1,-160.51"/>
</g>
<!-- src/reusables/state/states.ts -->
<g id="node10" class="node">
<title>src/reusables/state/states.ts</title>
<g id="a_node10"><a xlink:href="src/reusables/state/states.ts" xlink:title="states.ts">
<path fill="#ddfeff" stroke="black" d="M421.96,-583.25C421.96,-583.25 380.29,-583.25 380.29,-583.25 377.21,-583.25 374.12,-580.17 374.12,-577.08 374.12,-577.08 374.12,-570.92 374.12,-570.92 374.12,-567.83 377.21,-564.75 380.29,-564.75 380.29,-564.75 421.96,-564.75 421.96,-564.75 425.04,-564.75 428.12,-567.83 428.12,-570.92 428.12,-570.92 428.12,-577.08 428.12,-577.08 428.12,-580.17 425.04,-583.25 421.96,-583.25"/>
<text text-anchor="start" x="384.62" y="-570.7" font-family="Helvetica,sans-Serif" font-size="9.00">states.ts</text>
</a>
</g>
</g>
<!-- src/components/effects/NavigationEffects/GoToLoginWhenJwtAtomIsNull.tsx&#45;&gt;src/reusables/state/states.ts -->
<g id="edge14" class="edge">
<title>src/components/effects/NavigationEffects/GoToLoginWhenJwtAtomIsNull.tsx&#45;&gt;src/reusables/state/states.ts</title>
<path fill="none" stroke="#000000" stroke-width="2" stroke-opacity="0.200000" d="M326.42,-307.51C332.22,-310.16 337.61,-313.6 342.25,-318 377.02,-351 393.73,-502.68 398.58,-555.67"/>
<polygon fill="#000000" fill-opacity="0.200000" stroke="#000000" stroke-width="2" stroke-opacity="0.200000" points="396.73,-555.57 399.35,-561.36 400.91,-555.2 396.73,-555.57"/>
</g>
<!-- src/components/effects/NavigationEffects/SignInEffect.tsx&#45;&gt;src/reusables/state/states.ts -->
<g id="edge16" class="edge">
<title>src/components/effects/NavigationEffects/SignInEffect.tsx&#45;&gt;src/reusables/state/states.ts</title>
<path fill="none" stroke="#000000" stroke-width="2" stroke-opacity="0.200000" d="M268.67,-342.56C289.7,-353.8 322.75,-374.34 342.25,-401 377.98,-449.86 392.62,-522.2 397.74,-555.72"/>
<polygon fill="#000000" fill-opacity="0.200000" stroke="#000000" stroke-width="2" stroke-opacity="0.200000" points="396.06,-556.81 398.99,-562.45 400.22,-556.21 396.06,-556.81"/>
</g>
<!-- src/reusables/logic/logic.ts -->
<g id="node12" class="node">
<title>src/reusables/logic/logic.ts</title>
<g id="a_node12"><a xlink:href="src/reusables/logic/logic.ts" xlink:title="logic.ts">
<path fill="#ddfeff" stroke="black" d="M421.96,-675.25C421.96,-675.25 380.29,-675.25 380.29,-675.25 377.21,-675.25 374.12,-672.17 374.12,-669.08 374.12,-669.08 374.12,-662.92 374.12,-662.92 374.12,-659.83 377.21,-656.75 380.29,-656.75 380.29,-656.75 421.96,-656.75 421.96,-656.75 425.04,-656.75 428.12,-659.83 428.12,-662.92 428.12,-662.92 428.12,-669.08 428.12,-669.08 428.12,-672.17 425.04,-675.25 421.96,-675.25"/>
<text text-anchor="start" x="386.88" y="-662.7" font-family="Helvetica,sans-Serif" font-size="9.00">logic.ts</text>
</a>
</g>
</g>
<!-- src/components/effects/NavigationEffects/SignInEffect.tsx&#45;&gt;src/reusables/logic/logic.ts -->
<g id="edge15" class="edge">
<title>src/components/effects/NavigationEffects/SignInEffect.tsx&#45;&gt;src/reusables/logic/logic.ts</title>
<path fill="none" stroke="#000000" stroke-width="2" stroke-opacity="0.200000" d="M272.27,-342.57C294.64,-353.2 327.27,-372.69 342.25,-401 354.88,-424.88 335.13,-621.61 350.25,-644 354.09,-649.68 359.74,-653.91 365.89,-657.05"/>
<polygon fill="#000000" fill-opacity="0.200000" stroke="#000000" stroke-width="2" stroke-opacity="0.200000" points="365.48,-659.02 371.82,-659.47 367.15,-655.17 365.48,-659.02"/>
</g>
<!-- src/components/effects/UIEffects/ThemeChange.tsx&#45;&gt;src/reusables/state/states.ts -->
<g id="edge17" class="edge">
<title>src/components/effects/UIEffects/ThemeChange.tsx&#45;&gt;src/reusables/state/states.ts</title>
<path fill="none" stroke="#000000" stroke-width="2" stroke-opacity="0.200000" d="M292.62,-250.67C310.5,-256.79 329.87,-266.56 342.25,-282 376.71,-324.97 393.91,-498.84 398.7,-555.82"/>
<polygon fill="#000000" fill-opacity="0.200000" stroke="#000000" stroke-width="2" stroke-opacity="0.200000" points="396.83,-555.68 399.41,-561.49 401.01,-555.34 396.83,-555.68"/>
</g>
<!-- src/components/etc/HttpErrorInterceptor.tsx&#45;&gt;src/reusables/state/states.ts -->
<g id="edge19" class="edge">
<title>src/components/etc/HttpErrorInterceptor.tsx&#45;&gt;src/reusables/state/states.ts</title>
<path fill="none" stroke="#000000" stroke-width="2" stroke-opacity="0.200000" d="M303.05,-451C316.8,-452.94 330.88,-457.04 342.25,-465 373.53,-486.9 389.31,-531.14 396.01,-556"/>
<polygon fill="#000000" fill-opacity="0.200000" stroke="#000000" stroke-width="2" stroke-opacity="0.200000" points="394.64,-557.18 398.14,-562.49 398.72,-556.16 394.64,-557.18"/>
</g>
<!-- src/components/etc/HttpErrorInterceptor.tsx&#45;&gt;src/reusables/logic/logic.ts -->
<g id="edge18" class="edge">
<title>src/components/etc/HttpErrorInterceptor.tsx&#45;&gt;src/reusables/logic/logic.ts</title>
<path fill="none" stroke="#000000" stroke-width="2" stroke-opacity="0.200000" d="M302.85,-447.55C317.59,-449.2 332.25,-454.01 342.25,-465 355.65,-479.72 339.01,-627.57 350.25,-644 354.12,-649.66 359.79,-653.87 365.94,-657.01"/>
<polygon fill="#000000" fill-opacity="0.200000" stroke="#000000" stroke-width="2" stroke-opacity="0.200000" points="365.53,-658.99 371.87,-659.44 367.2,-655.13 365.53,-658.99"/>
</g>
<!-- src/components/etc/HttpTokenSetterInterceptor.tsx&#45;&gt;src/reusables/state/states.ts -->
<g id="edge21" class="edge">
<title>src/components/etc/HttpTokenSetterInterceptor.tsx&#45;&gt;src/reusables/state/states.ts</title>
<path fill="none" stroke="#000000" stroke-width="2" stroke-opacity="0.200000" d="M317.18,-424.44C326.24,-427.17 334.92,-431.19 342.25,-437 380.03,-466.97 393.49,-526.14 398.01,-555.94"/>
<polygon fill="#000000" fill-opacity="0.200000" stroke="#000000" stroke-width="2" stroke-opacity="0.200000" points="396.28,-556.85 399.18,-562.51 400.45,-556.29 396.28,-556.85"/>
</g>
<!-- src/components/etc/HttpTokenSetterInterceptor.tsx&#45;&gt;src/reusables/logic/logic.ts -->
<g id="edge20" class="edge">
<title>src/components/etc/HttpTokenSetterInterceptor.tsx&#45;&gt;src/reusables/logic/logic.ts</title>
<path fill="none" stroke="#000000" stroke-width="2" stroke-opacity="0.200000" d="M316.96,-421.46C326.63,-424.47 335.55,-429.35 342.25,-437 357.42,-454.31 337.31,-624.96 350.25,-644 354.1,-649.67 359.77,-653.89 365.91,-657.03"/>
<polygon fill="#000000" fill-opacity="0.200000" stroke="#000000" stroke-width="2" stroke-opacity="0.200000" points="365.51,-659.01 371.85,-659.46 367.17,-655.15 365.51,-659.01"/>
</g>
<!-- src/components/Header.tsx&#45;&gt;src/reusables/state/states.ts -->
<g id="edge9" class="edge">
<title>src/components/Header.tsx&#45;&gt;src/reusables/state/states.ts</title>
<path fill="none" stroke="#000000" stroke-width="2" stroke-opacity="0.200000" d="M270.44,-514.74C296.74,-526.76 341.6,-547.26 371.05,-560.71"/>
<polygon fill="#000000" fill-opacity="0.200000" stroke="#000000" stroke-width="2" stroke-opacity="0.200000" points="370.59,-562.73 376.92,-563.31 372.33,-558.91 370.59,-562.73"/>
</g>
<!-- src/components/Routes/Feed/children/NewTodoItem.tsx -->
<g id="node11" class="node">
<title>src/components/Routes/Feed/children/NewTodoItem.tsx</title>
<g id="a_node11"><a xlink:href="src/components/Routes/Feed/children/NewTodoItem.tsx" xlink:title="NewTodoItem.tsx">
<path fill="#bbfeff" stroke="black" d="M437.83,-66.25C437.83,-66.25 364.42,-66.25 364.42,-66.25 361.33,-66.25 358.25,-63.17 358.25,-60.08 358.25,-60.08 358.25,-53.92 358.25,-53.92 358.25,-50.83 361.33,-47.75 364.42,-47.75 364.42,-47.75 437.83,-47.75 437.83,-47.75 440.92,-47.75 444,-50.83 444,-53.92 444,-53.92 444,-60.08 444,-60.08 444,-63.17 440.92,-66.25 437.83,-66.25"/>
<text text-anchor="start" x="366.25" y="-53.7" font-family="Helvetica,sans-Serif" font-size="9.00">NewTodoItem.tsx</text>
</a>
</g>
</g>
<!-- src/components/Routes/Feed/Feed.tsx&#45;&gt;src/components/Routes/Feed/children/NewTodoItem.tsx -->
<g id="edge10" class="edge">
<title>src/components/Routes/Feed/Feed.tsx&#45;&gt;src/components/Routes/Feed/children/NewTodoItem.tsx</title>
<path fill="none" stroke="#000000" stroke-width="2" stroke-opacity="0.200000" d="M275.43,-68.56C295.67,-66.68 324.27,-64.03 348.98,-61.74"/>
<polygon fill="#000000" fill-opacity="0.200000" stroke="#000000" stroke-width="2" stroke-opacity="0.200000" points="349.1,-63.56 354.88,-60.92 348.71,-59.38 349.1,-63.56"/>
</g>
<!-- src/components/Routes/Login/Login.tsx&#45;&gt;src/reusables/state/states.ts -->
<g id="edge13" class="edge">
<title>src/components/Routes/Login/Login.tsx&#45;&gt;src/reusables/state/states.ts</title>
<path fill="none" stroke="#000000" stroke-width="2" stroke-opacity="0.200000" d="M267.58,-154.57C289.25,-166.85 324.49,-190.29 342.25,-221 375.97,-279.29 394.09,-492.15 398.84,-555.86"/>
<polygon fill="#000000" fill-opacity="0.200000" stroke="#000000" stroke-width="2" stroke-opacity="0.200000" points="396.94,-555.62 399.47,-561.45 401.13,-555.32 396.94,-555.62"/>
</g>
<!-- src/components/Routes/Login/Login.tsx&#45;&gt;src/reusables/logic/logic.ts -->
<g id="edge12" class="edge">
<title>src/components/Routes/Login/Login.tsx&#45;&gt;src/reusables/logic/logic.ts</title>
<path fill="none" stroke="#000000" stroke-width="2" stroke-opacity="0.200000" d="M269.14,-154.59C291.6,-166.59 326.92,-189.47 342.25,-221 352.53,-242.14 337.23,-624.43 350.25,-644 354.05,-649.71 359.69,-653.94 365.82,-657.09"/>
<polygon fill="#000000" fill-opacity="0.200000" stroke="#000000" stroke-width="2" stroke-opacity="0.200000" points="365.42,-659.06 371.76,-659.51 367.08,-655.21 365.42,-659.06"/>
</g>
<!-- src/reusables/state/internal.authAtoms.ts -->
<g id="node16" class="node">
<title>src/reusables/state/internal.authAtoms.ts</title>
<g id="a_node16"><a xlink:href="src/reusables/state/internal.authAtoms.ts" xlink:title="internal.authAtoms.ts">
<path fill="#ddfeff" stroke="black" d="M580.83,-614.25C580.83,-614.25 491.67,-614.25 491.67,-614.25 488.58,-614.25 485.5,-611.17 485.5,-608.08 485.5,-608.08 485.5,-601.92 485.5,-601.92 485.5,-598.83 488.58,-595.75 491.67,-595.75 491.67,-595.75 580.83,-595.75 580.83,-595.75 583.92,-595.75 587,-598.83 587,-601.92 587,-601.92 587,-608.08 587,-608.08 587,-611.17 583.92,-614.25 580.83,-614.25"/>
<text text-anchor="start" x="493.5" y="-601.7" font-family="Helvetica,sans-Serif" font-size="9.00">internal.authAtoms.ts</text>
</a>
</g>
</g>
<!-- src/reusables/state/states.ts&#45;&gt;src/reusables/state/internal.authAtoms.ts -->
<g id="edge25" class="edge">
<title>src/reusables/state/states.ts&#45;&gt;src/reusables/state/internal.authAtoms.ts</title>
<path fill="none" stroke="#000000" stroke-width="2" stroke-opacity="0.200000" d="M428.43,-580.12C445.03,-583.99 467,-589.11 486.69,-593.69"/>
<polygon fill="#000000" fill-opacity="0.200000" stroke="#000000" stroke-width="2" stroke-opacity="0.200000" points="492.09,-597.11 486.73,-593.7 493.05,-593.02 492.09,-597.11"/>
</g>
<!-- src/reusables/state/internal.themeAtom.ts -->
<g id="node17" class="node">
<title>src/reusables/state/internal.themeAtom.ts</title>
<g id="a_node17"><a xlink:href="src/reusables/state/internal.themeAtom.ts" xlink:title="internal.themeAtom.ts">
<path fill="#ddfeff" stroke="black" d="M582.33,-583.25C582.33,-583.25 490.17,-583.25 490.17,-583.25 487.08,-583.25 484,-580.17 484,-577.08 484,-577.08 484,-570.92 484,-570.92 484,-567.83 487.08,-564.75 490.17,-564.75 490.17,-564.75 582.33,-564.75 582.33,-564.75 585.42,-564.75 588.5,-567.83 588.5,-570.92 588.5,-570.92 588.5,-577.08 588.5,-577.08 588.5,-580.17 585.42,-583.25 582.33,-583.25"/>
<text text-anchor="start" x="492" y="-570.7" font-family="Helvetica,sans-Serif" font-size="9.00">internal.themeAtom.ts</text>
</a>
</g>
</g>
<!-- src/reusables/state/states.ts&#45;&gt;src/reusables/state/internal.themeAtom.ts -->
<g id="edge26" class="edge">
<title>src/reusables/state/states.ts&#45;&gt;src/reusables/state/internal.themeAtom.ts</title>
<path fill="none" stroke="#000000" stroke-width="2" stroke-opacity="0.200000" d="M428.43,-574C442.34,-574 460.01,-574 476.96,-574"/>
<polygon fill="#000000" fill-opacity="0.200000" stroke="#000000" stroke-width="2" stroke-opacity="0.200000" points="482.66,-576.1 476.66,-574 482.66,-571.9 482.66,-576.1"/>
</g>
<!-- src/components/Routes/Feed/children/NewTodoItem.tsx&#45;&gt;src/reusables/logic/logic.ts -->
<g id="edge11" class="edge">
<title>src/components/Routes/Feed/children/NewTodoItem.tsx&#45;&gt;src/reusables/logic/logic.ts</title>
<path fill="none" stroke="#000000" stroke-width="2" stroke-opacity="0.200000" d="M399.69,-66.56C392.16,-117.27 357.13,-360.01 346.25,-560 345.31,-577.31 341.23,-621.41 346.25,-638 349.05,-647.25 356.71,-653.46 365.45,-657.62"/>
<polygon fill="#000000" fill-opacity="0.200000" stroke="#000000" stroke-width="2" stroke-opacity="0.200000" points="365.32,-659.62 371.67,-659.89 366.87,-655.72 365.32,-659.62"/>
</g>
<!-- src/reusables/logic/dependent/internal.http.ts -->
<g id="node15" class="node">
<title>src/reusables/logic/dependent/internal.http.ts</title>
<g id="a_node15"><a xlink:href="src/reusables/logic/dependent/internal.http.ts" xlink:title="internal.http.ts">
<path fill="#ddfeff" stroke="black" d="M566.58,-683.25C566.58,-683.25 505.92,-683.25 505.92,-683.25 502.83,-683.25 499.75,-680.17 499.75,-677.08 499.75,-677.08 499.75,-670.92 499.75,-670.92 499.75,-667.83 502.83,-664.75 505.92,-664.75 505.92,-664.75 566.58,-664.75 566.58,-664.75 569.67,-664.75 572.75,-667.83 572.75,-670.92 572.75,-670.92 572.75,-677.08 572.75,-677.08 572.75,-680.17 569.67,-683.25 566.58,-683.25"/>
<text text-anchor="start" x="507.75" y="-670.7" font-family="Helvetica,sans-Serif" font-size="9.00">internal.http.ts</text>
</a>
</g>
</g>
<!-- src/reusables/logic/logic.ts&#45;&gt;src/reusables/logic/dependent/internal.http.ts -->
<g id="edge24" class="edge">
<title>src/reusables/logic/logic.ts&#45;&gt;src/reusables/logic/dependent/internal.http.ts</title>
<path fill="none" stroke="#000000" stroke-width="2" stroke-opacity="0.200000" d="M428.43,-667.58C446.67,-668.68 471.38,-670.16 492.44,-671.43"/>
<polygon fill="#000000" fill-opacity="0.200000" stroke="#000000" stroke-width="2" stroke-opacity="0.200000" points="498.3,-673.88 492.44,-671.43 498.56,-669.69 498.3,-673.88"/>
</g>
<!-- src/components/main.tsx -->
<g id="node13" class="node">
<title>src/components/main.tsx</title>
<g id="a_node13"><a xlink:href="src/components/main.tsx" xlink:title="main.tsx">
<path fill="#bbfeff" stroke="black" d="M71.83,-428.25C71.83,-428.25 30.17,-428.25 30.17,-428.25 27.08,-428.25 24,-425.17 24,-422.08 24,-422.08 24,-415.92 24,-415.92 24,-412.83 27.08,-409.75 30.17,-409.75 30.17,-409.75 71.83,-409.75 71.83,-409.75 74.92,-409.75 78,-412.83 78,-415.92 78,-415.92 78,-422.08 78,-422.08 78,-425.17 74.92,-428.25 71.83,-428.25"/>
<text text-anchor="start" x="34.12" y="-415.7" font-family="Helvetica,sans-Serif" font-size="9.00">main.tsx</text>
</a>
</g>
</g>
<!-- src/components/main.tsx&#45;&gt;src/components/App.tsx -->
<g id="edge23" class="edge">
<title>src/components/main.tsx&#45;&gt;src/components/App.tsx</title>
<path fill="none" stroke="#000000" stroke-width="2" stroke-opacity="0.200000" d="M55.01,-409.28C59.67,-395.47 69.83,-369.81 88.9,-348.94"/>
<polygon fill="#000000" fill-opacity="0.200000" stroke="#000000" stroke-width="2" stroke-opacity="0.200000" points="90.39,-350.39 93.11,-344.64 87.4,-347.44 90.39,-350.39"/>
</g>
<!-- src/styles.css -->
<g id="node14" class="node">
<title>src/styles.css</title>
<g id="a_node14"><a xlink:href="src/styles.css" xlink:title="styles.css">
<path fill="#ffffcc" stroke="black" d="M139.83,-567.25C139.83,-567.25 97.17,-567.25 97.17,-567.25 94.08,-567.25 91,-564.17 91,-561.08 91,-561.08 91,-554.92 91,-554.92 91,-551.83 94.08,-548.75 97.17,-548.75 97.17,-548.75 139.83,-548.75 139.83,-548.75 142.92,-548.75 146,-551.83 146,-554.92 146,-554.92 146,-561.08 146,-561.08 146,-564.17 142.92,-567.25 139.83,-567.25"/>
<text text-anchor="start" x="99" y="-554.7" font-family="Helvetica,sans-Serif" font-size="9.00">styles.css</text>
</a>
</g>
</g>
<!-- src/components/main.tsx&#45;&gt;src/styles.css -->
<g id="edge22" class="edge">
<title>src/components/main.tsx&#45;&gt;src/styles.css</title>
<path fill="none" stroke="#000000" stroke-width="2" stroke-opacity="0.200000" d="M52.56,-428.63C54.24,-450.04 60.86,-502.51 90.25,-541.68"/>
<polygon fill="#000000" fill-opacity="0.200000" stroke="#000000" stroke-width="2" stroke-opacity="0.200000" points="89.19,-542.97 94.58,-546.34 92.47,-540.34 89.19,-542.97"/>
</g>
</g>
</svg>
