<?xml version="1.0" encoding="UTF-8" standalone="no"?>
<!DOCTYPE svg PUBLIC "-//W3C//DTD SVG 1.1//EN"
 "http://www.w3.org/Graphics/SVG/1.1/DTD/svg11.dtd">
<!-- Generated by graphviz version 8.1.0 (20230707.0739)
 -->
<!-- Title: dependency&#45;cruiser output Pages: 1 -->
<svg width="509pt" height="345pt"
 viewBox="0.00 0.00 508.88 345.00" xmlns="http://www.w3.org/2000/svg" xmlns:xlink="http://www.w3.org/1999/xlink">
<g id="graph0" class="graph" transform="scale(1 1) rotate(0) translate(4 341)">
<title>dependency&#45;cruiser output</title>
<polygon fill="white" stroke="none" points="-4,4 -4,-341 504.88,-341 504.88,4 -4,4"/>
<g id="clust1" class="cluster">
<title>cluster_src</title>
<path fill="#ffffff" stroke="black" stroke-width="2" d="M20,-8C20,-8 480.88,-8 480.88,-8 486.88,-8 492.88,-14 492.88,-20 492.88,-20 492.88,-317 492.88,-317 492.88,-323 486.88,-329 480.88,-329 480.88,-329 20,-329 20,-329 14,-329 8,-323 8,-317 8,-317 8,-20 8,-20 8,-14 14,-8 20,-8"/>
<text text-anchor="middle" x="250.44" y="-316.45" font-family="Helvetica,sans-Serif" font-weight="bold" font-size="9.00">src</text>
</g>
<g id="clust2" class="cluster">
<title>cluster_src/components</title>
<path fill="#ffffff" stroke="black" stroke-width="2" d="M28,-223C28,-223 141.5,-223 141.5,-223 147.5,-223 153.5,-229 153.5,-235 153.5,-235 153.5,-264 153.5,-264 153.5,-270 147.5,-276 141.5,-276 141.5,-276 28,-276 28,-276 22,-276 16,-270 16,-264 16,-264 16,-235 16,-235 16,-229 22,-223 28,-223"/>
<text text-anchor="middle" x="84.75" y="-263.45" font-family="Helvetica,sans-Serif" font-weight="bold" font-size="9.00">components</text>
</g>
<g id="clust3" class="cluster">
<title>cluster_src/effects</title>
<path fill="#ffffff" stroke="black" stroke-width="2" d="M177.38,-178C177.38,-178 265.62,-178 265.62,-178 271.62,-178 277.62,-184 277.62,-190 277.62,-190 277.62,-219 277.62,-219 277.62,-225 271.62,-231 265.62,-231 265.62,-231 177.38,-231 177.38,-231 171.38,-231 165.38,-225 165.38,-219 165.38,-219 165.38,-190 165.38,-190 165.38,-184 171.38,-178 177.38,-178"/>
<text text-anchor="middle" x="221.5" y="-218.45" font-family="Helvetica,sans-Serif" font-weight="bold" font-size="9.00">effects</text>
</g>
<g id="clust4" class="cluster">
<title>cluster_src/reusables</title>
<path fill="#ffffff" stroke="black" stroke-width="2" d="M173.5,-16C173.5,-16 472.88,-16 472.88,-16 478.88,-16 484.88,-22 484.88,-28 484.88,-28 484.88,-158 484.88,-158 484.88,-164 478.88,-170 472.88,-170 472.88,-170 173.5,-170 173.5,-170 167.5,-170 161.5,-164 161.5,-158 161.5,-158 161.5,-28 161.5,-28 161.5,-22 167.5,-16 173.5,-16"/>
<text text-anchor="middle" x="323.19" y="-157.45" font-family="Helvetica,sans-Serif" font-weight="bold" font-size="9.00">reusables</text>
</g>
<g id="clust5" class="cluster">
<title>cluster_src/reusables/functions</title>
<path fill="#ffffff" stroke="black" stroke-width="2" d="M181.5,-52C181.5,-52 261.5,-52 261.5,-52 267.5,-52 273.5,-58 273.5,-64 273.5,-64 273.5,-124 273.5,-124 273.5,-130 267.5,-136 261.5,-136 261.5,-136 181.5,-136 181.5,-136 175.5,-136 169.5,-130 169.5,-124 169.5,-124 169.5,-64 169.5,-64 169.5,-58 175.5,-52 181.5,-52"/>
<text text-anchor="middle" x="221.5" y="-123.45" font-family="Helvetica,sans-Serif" font-weight="bold" font-size="9.00">functions</text>
</g>
<g id="clust6" class="cluster">
<title>cluster_src/reusables/state</title>
<path fill="#ffffff" stroke="black" stroke-width="2" d="M304.25,-24C304.25,-24 464.88,-24 464.88,-24 470.88,-24 476.88,-30 476.88,-36 476.88,-36 476.88,-131 476.88,-131 476.88,-137 470.88,-143 464.88,-143 464.88,-143 304.25,-143 304.25,-143 298.25,-143 292.25,-137 292.25,-131 292.25,-131 292.25,-36 292.25,-36 292.25,-30 298.25,-24 304.25,-24"/>
<text text-anchor="middle" x="384.56" y="-130.45" font-family="Helvetica,sans-Serif" font-weight="bold" font-size="9.00">state</text>
</g>
<g id="clust7" class="cluster">
<title>cluster_src/reusables/state/internal</title>
<path fill="#ffffff" stroke="black" stroke-width="2" d="M400.88,-32C400.88,-32 456.88,-32 456.88,-32 462.88,-32 468.88,-38 468.88,-44 468.88,-44 468.88,-104 468.88,-104 468.88,-110 462.88,-116 456.88,-116 456.88,-116 400.88,-116 400.88,-116 394.88,-116 388.88,-110 388.88,-104 388.88,-104 388.88,-44 388.88,-44 388.88,-38 394.88,-32 400.88,-32"/>
<text text-anchor="middle" x="428.88" y="-103.45" font-family="Helvetica,sans-Serif" font-weight="bold" font-size="9.00">internal</text>
</g>
<g id="clust8" class="cluster">
<title>cluster_src/types</title>
<path fill="#ffffff" stroke="black" stroke-width="2" d="M183,-249C183,-249 368.88,-249 368.88,-249 374.88,-249 380.88,-255 380.88,-261 380.88,-261 380.88,-290 380.88,-290 380.88,-296 374.88,-302 368.88,-302 368.88,-302 183,-302 183,-302 177,-302 171,-296 171,-290 171,-290 171,-261 171,-261 171,-255 177,-249 183,-249"/>
<text text-anchor="middle" x="275.94" y="-289.45" font-family="Helvetica,sans-Serif" font-weight="bold" font-size="9.00">types</text>
</g>
<!-- src/components/App.tsx -->
<g id="node1" class="node">
<title>src/components/App.tsx</title>
<g id="a_node1"><a xlink:href="src/components/App.tsx" xlink:title="App.tsx">
<path fill="#bbfeff" stroke="black" d="M139.33,-249.25C139.33,-249.25 97.67,-249.25 97.67,-249.25 94.58,-249.25 91.5,-246.17 91.5,-243.08 91.5,-243.08 91.5,-236.92 91.5,-236.92 91.5,-233.83 94.58,-230.75 97.67,-230.75 97.67,-230.75 139.33,-230.75 139.33,-230.75 142.42,-230.75 145.5,-233.83 145.5,-236.92 145.5,-236.92 145.5,-243.08 145.5,-243.08 145.5,-246.17 142.42,-249.25 139.33,-249.25"/>
<text text-anchor="start" x="103.5" y="-236.7" font-family="Helvetica,sans-Serif" font-size="9.00">App.tsx</text>
</a>
</g>
</g>
<!-- src/effects/NavigationEffect.tsx -->
<g id="node2" class="node">
<title>src/effects/NavigationEffect.tsx</title>
<g id="a_node2"><a xlink:href="src/effects/NavigationEffect.tsx" xlink:title="NavigationEffect.tsx">
<path fill="#bbfeff" stroke="black" d="M263.46,-204.25C263.46,-204.25 179.54,-204.25 179.54,-204.25 176.46,-204.25 173.38,-201.17 173.38,-198.08 173.38,-198.08 173.38,-191.92 173.38,-191.92 173.38,-188.83 176.46,-185.75 179.54,-185.75 179.54,-185.75 263.46,-185.75 263.46,-185.75 266.54,-185.75 269.62,-188.83 269.62,-191.92 269.62,-191.92 269.62,-198.08 269.62,-198.08 269.62,-201.17 266.54,-204.25 263.46,-204.25"/>
<text text-anchor="start" x="181.38" y="-191.7" font-family="Helvetica,sans-Serif" font-size="9.00">NavigationEffect.tsx</text>
</a>
</g>
</g>
<!-- src/components/App.tsx&#45;&gt;src/effects/NavigationEffect.tsx -->
<g id="edge1" class="edge">
<title>src/components/App.tsx&#45;&gt;src/effects/NavigationEffect.tsx</title>
<path fill="none" stroke="#000000" stroke-width="2" stroke-opacity="0.200000" d="M140.92,-230.46C155.42,-224 174.76,-215.38 190.75,-208.25"/>
<polygon fill="#000000" fill-opacity="0.200000" stroke="#000000" stroke-width="2" stroke-opacity="0.200000" points="192.14,-210.04 196.76,-205.68 190.43,-206.21 192.14,-210.04"/>
</g>
<!-- src/reusables/state/external.ts -->
<g id="node3" class="node">
<title>src/reusables/state/external.ts</title>
<g id="a_node3"><a xlink:href="src/reusables/state/external.ts" xlink:title="external.ts">
<path fill="#ddfeff" stroke="black" d="M352.08,-96.25C352.08,-96.25 306.42,-96.25 306.42,-96.25 303.33,-96.25 300.25,-93.17 300.25,-90.08 300.25,-90.08 300.25,-83.92 300.25,-83.92 300.25,-80.83 303.33,-77.75 306.42,-77.75 306.42,-77.75 352.08,-77.75 352.08,-77.75 355.17,-77.75 358.25,-80.83 358.25,-83.92 358.25,-83.92 358.25,-90.08 358.25,-90.08 358.25,-93.17 355.17,-96.25 352.08,-96.25"/>
<text text-anchor="start" x="308.25" y="-83.7" font-family="Helvetica,sans-Serif" font-size="9.00">external.ts</text>
</a>
</g>
</g>
<!-- src/components/App.tsx&#45;&gt;src/reusables/state/external.ts -->
<g id="edge2" class="edge">
<title>src/components/App.tsx&#45;&gt;src/reusables/state/external.ts</title>
<path fill="none" stroke="#000000" stroke-width="2" stroke-opacity="0.200000" d="M145.82,-242.47C185.31,-245.61 257.44,-248.98 277.62,-234 318.68,-203.53 326.69,-137.68 328.09,-105.48"/>
<polygon fill="#000000" fill-opacity="0.200000" stroke="#000000" stroke-width="2" stroke-opacity="0.200000" points="330.27,-105.7 328.34,-99.65 326.07,-105.58 330.27,-105.7"/>
</g>
<!-- src/constants/commonTypes.ts -->
<g id="node4" class="node">
<title>src/types/commonTypes.ts</title>
<g id="a_node4"><a xlink:href="src/types/commonTypes.ts" xlink:title="commonTypes.ts">
<path fill="#ddfeff" stroke="black" d="M257.83,-275.25C257.83,-275.25 185.17,-275.25 185.17,-275.25 182.08,-275.25 179,-272.17 179,-269.08 179,-269.08 179,-262.92 179,-262.92 179,-259.83 182.08,-256.75 185.17,-256.75 185.17,-256.75 257.83,-256.75 257.83,-256.75 260.92,-256.75 264,-259.83 264,-262.92 264,-262.92 264,-269.08 264,-269.08 264,-272.17 260.92,-275.25 257.83,-275.25"/>
<text text-anchor="start" x="187" y="-262.7" font-family="Helvetica,sans-Serif" font-size="9.00">commonTypes.ts</text>
</a>
</g>
</g>
<!-- src/components/App.tsx&#45;&gt;src/constants/commonTypes.ts -->
<g id="edge3" class="edge">
<title>src/components/App.tsx&#45;&gt;src/types/commonTypes.ts</title>
<path fill="none" stroke="#000000" stroke-width="2" stroke-opacity="0.200000" d="M145.77,-246.76C154.54,-249.02 164.59,-251.61 174.41,-254.14"/>
<polygon fill="#000000" fill-opacity="0.200000" stroke="#000000" stroke-width="2" stroke-opacity="0.200000" points="174.62,-256.87 180.95,-256.33 175.66,-252.8 174.62,-256.87"/>
</g>
<!-- src/effects/NavigationEffect.tsx&#45;&gt;src/reusables/state/external.ts -->
<g id="edge6" class="edge">
<title>src/effects/NavigationEffect.tsx&#45;&gt;src/reusables/state/external.ts</title>
<path fill="none" stroke="#000000" stroke-width="2" stroke-opacity="0.200000" d="M231.88,-185.5C242.86,-174.38 261.59,-155.38 277.62,-139 289.48,-126.89 302.86,-113.15 312.88,-102.83"/>
<polygon fill="#000000" fill-opacity="0.200000" stroke="#000000" stroke-width="2" stroke-opacity="0.200000" points="314.26,-104.37 316.94,-98.6 311.25,-101.44 314.26,-104.37"/>
</g>
<!-- src/reusables/state/internal/jwtAtom.ts -->
<g id="node9" class="node">
<title>src/reusables/state/internal/jwtAtom.ts</title>
<g id="a_node9"><a xlink:href="src/reusables/state/internal/jwtAtom.ts" xlink:title="jwtAtom.ts">
<path fill="#ddfeff" stroke="black" d="M451.33,-89.25C451.33,-89.25 406.42,-89.25 406.42,-89.25 403.33,-89.25 400.25,-86.17 400.25,-83.08 400.25,-83.08 400.25,-76.92 400.25,-76.92 400.25,-73.83 403.33,-70.75 406.42,-70.75 406.42,-70.75 451.33,-70.75 451.33,-70.75 454.42,-70.75 457.5,-73.83 457.5,-76.92 457.5,-76.92 457.5,-83.08 457.5,-83.08 457.5,-86.17 454.42,-89.25 451.33,-89.25"/>
<text text-anchor="start" x="408.25" y="-76.7" font-family="Helvetica,sans-Serif" font-size="9.00">jwtAtom.ts</text>
</a>
</g>
</g>
<!-- src/reusables/state/external.ts&#45;&gt;src/reusables/state/internal/jwtAtom.ts -->
<g id="edge9" class="edge">
<title>src/reusables/state/external.ts&#45;&gt;src/reusables/state/internal/jwtAtom.ts</title>
<path fill="none" stroke="#000000" stroke-width="2" stroke-opacity="0.200000" d="M358.75,-84.96C369.47,-84.19 381.78,-83.31 393.01,-82.5"/>
<polygon fill="#000000" fill-opacity="0.200000" stroke="#000000" stroke-width="2" stroke-opacity="0.200000" points="399,-84.18 392.86,-82.51 398.7,-79.99 399,-84.18"/>
</g>
<!-- src/reusables/state/internal/userAtom.ts -->
<g id="node10" class="node">
<title>src/reusables/state/internal/userAtom.ts</title>
<g id="a_node10"><a xlink:href="src/reusables/state/internal/userAtom.ts" xlink:title="userAtom.ts">
<path fill="#ddfeff" stroke="black" d="M454.71,-58.25C454.71,-58.25 403.04,-58.25 403.04,-58.25 399.96,-58.25 396.88,-55.17 396.88,-52.08 396.88,-52.08 396.88,-45.92 396.88,-45.92 396.88,-42.83 399.96,-39.75 403.04,-39.75 403.04,-39.75 454.71,-39.75 454.71,-39.75 457.79,-39.75 460.88,-42.83 460.88,-45.92 460.88,-45.92 460.88,-52.08 460.88,-52.08 460.88,-55.17 457.79,-58.25 454.71,-58.25"/>
<text text-anchor="start" x="404.88" y="-45.7" font-family="Helvetica,sans-Serif" font-size="9.00">userAtom.ts</text>
</a>
</g>
</g>
<!-- src/reusables/state/external.ts&#45;&gt;src/reusables/state/internal/userAtom.ts -->
<g id="edge10" class="edge">
<title>src/reusables/state/external.ts&#45;&gt;src/reusables/state/internal/userAtom.ts</title>
<path fill="none" stroke="#000000" stroke-width="2" stroke-opacity="0.200000" d="M355.14,-77.31C367.76,-72.4 383.22,-66.38 396.63,-61.16"/>
<polygon fill="#000000" fill-opacity="0.200000" stroke="#000000" stroke-width="2" stroke-opacity="0.200000" points="402.86,-60.99 396.51,-61.21 401.34,-57.08 402.86,-60.99"/>
</g>
<!-- src/constants/problemDetails.ts -->
<g id="node11" class="node">
<title>src/types/problemDetails.ts</title>
<g id="a_node11"><a xlink:href="src/types/problemDetails.ts" xlink:title="problemDetails.ts">
<path fill="#ddfeff" stroke="black" d="M366.71,-275.25C366.71,-275.25 291.79,-275.25 291.79,-275.25 288.71,-275.25 285.62,-272.17 285.62,-269.08 285.62,-269.08 285.62,-262.92 285.62,-262.92 285.62,-259.83 288.71,-256.75 291.79,-256.75 291.79,-256.75 366.71,-256.75 366.71,-256.75 369.79,-256.75 372.88,-259.83 372.88,-262.92 372.88,-262.92 372.88,-269.08 372.88,-269.08 372.88,-272.17 369.79,-275.25 366.71,-275.25"/>
<text text-anchor="start" x="293.62" y="-262.7" font-family="Helvetica,sans-Serif" font-size="9.00">problemDetails.ts</text>
</a>
</g>
</g>
<!-- src/constants/commonTypes.ts&#45;&gt;src/constants/problemDetails.ts -->
<g id="edge11" class="edge">
<title>src/types/commonTypes.ts&#45;&gt;src/types/problemDetails.ts</title>
<path fill="none" stroke="#000000" stroke-opacity="0.200000" d="M264.3,-266C268.95,-266 273.72,-266 278.47,-266"/>
<polygon fill="none" stroke="#000000" stroke-opacity="0.200000" points="278.37,-268.1 284.37,-266 278.37,-263.9 278.37,-268.1"/>
</g>
<!-- src/components/main.tsx -->
<g id="node5" class="node">
<title>src/components/main.tsx</title>
<g id="a_node5"><a xlink:href="src/components/main.tsx" xlink:title="main.tsx">
<path fill="#bbfeff" stroke="black" d="M71.83,-249.25C71.83,-249.25 30.17,-249.25 30.17,-249.25 27.08,-249.25 24,-246.17 24,-243.08 24,-243.08 24,-236.92 24,-236.92 24,-233.83 27.08,-230.75 30.17,-230.75 30.17,-230.75 71.83,-230.75 71.83,-230.75 74.92,-230.75 78,-233.83 78,-236.92 78,-236.92 78,-243.08 78,-243.08 78,-246.17 74.92,-249.25 71.83,-249.25"/>
<text text-anchor="start" x="34.12" y="-236.7" font-family="Helvetica,sans-Serif" font-size="9.00">main.tsx</text>
</a>
</g>
</g>
<!-- src/components/main.tsx&#45;&gt;src/components/App.tsx -->
<g id="edge5" class="edge">
<title>src/components/main.tsx&#45;&gt;src/components/App.tsx</title>
<path fill="none" stroke="#000000" stroke-width="2" stroke-opacity="0.200000" d="M78.26,-240C79.6,-240 80.95,-240 82.3,-240"/>
<polygon fill="#000000" fill-opacity="0.200000" stroke="#000000" stroke-width="2" stroke-opacity="0.200000" points="82.23,-242.1 88.23,-240 82.23,-237.9 82.23,-242.1"/>
</g>
<!-- src/styles.css -->
<g id="node6" class="node">
<title>src/styles.css</title>
<g id="a_node6"><a xlink:href="src/styles.css" xlink:title="styles.css">
<path fill="#ffffcc" stroke="black" d="M139.83,-302.25C139.83,-302.25 97.17,-302.25 97.17,-302.25 94.08,-302.25 91,-299.17 91,-296.08 91,-296.08 91,-289.92 91,-289.92 91,-286.83 94.08,-283.75 97.17,-283.75 97.17,-283.75 139.83,-283.75 139.83,-283.75 142.92,-283.75 146,-286.83 146,-289.92 146,-289.92 146,-296.08 146,-296.08 146,-299.17 142.92,-302.25 139.83,-302.25"/>
<text text-anchor="start" x="99" y="-289.7" font-family="Helvetica,sans-Serif" font-size="9.00">styles.css</text>
</a>
</g>
</g>
<!-- src/components/main.tsx&#45;&gt;src/styles.css -->
<g id="edge4" class="edge">
<title>src/components/main.tsx&#45;&gt;src/styles.css</title>
<path fill="none" stroke="#000000" stroke-width="2" stroke-opacity="0.200000" d="M59.99,-249.47C66.44,-256.79 76.1,-267.04 90.66,-278.21"/>
<polygon fill="#000000" fill-opacity="0.200000" stroke="#000000" stroke-width="2" stroke-opacity="0.200000" points="89.63,-280.53 95.7,-282.39 92.12,-277.14 89.63,-280.53"/>
</g>
<!-- src/reusables/logic/decodeJwt.ts -->
<g id="node7" class="node">
<title>src/reusables/functions/decodeJwt.ts</title>
<g id="a_node7"><a xlink:href="src/reusables/functions/decodeJwt.ts" xlink:title="decodeJwt.ts">
<path fill="#ddfeff" stroke="black" d="M249.96,-109.25C249.96,-109.25 193.04,-109.25 193.04,-109.25 189.96,-109.25 186.88,-106.17 186.88,-103.08 186.88,-103.08 186.88,-96.92 186.88,-96.92 186.88,-93.83 189.96,-90.75 193.04,-90.75 193.04,-90.75 249.96,-90.75 249.96,-90.75 253.04,-90.75 256.12,-93.83 256.12,-96.92 256.12,-96.92 256.12,-103.08 256.12,-103.08 256.12,-106.17 253.04,-109.25 249.96,-109.25"/>
<text text-anchor="start" x="194.88" y="-96.7" font-family="Helvetica,sans-Serif" font-size="9.00">decodeJwt.ts</text>
</a>
</g>
</g>
<!-- src/reusables/logic/decodeJwt.ts&#45;&gt;src/reusables/state/external.ts -->
<g id="edge7" class="edge">
<title>src/reusables/functions/decodeJwt.ts&#45;&gt;src/reusables/state/external.ts</title>
<path fill="none" stroke="#000000" stroke-width="2" stroke-opacity="0.200000" d="M256.54,-95.82C267.6,-94.46 279.91,-92.94 291.17,-91.56"/>
<polygon fill="#000000" fill-opacity="0.200000" stroke="#000000" stroke-width="2" stroke-opacity="0.200000" points="291.24,-93.3 296.94,-90.48 290.73,-89.13 291.24,-93.3"/>
</g>
<!-- src/reusables/logic/setupHttpClient.tsx -->
<g id="node8" class="node">
<title>src/reusables/functions/setupHttpClient.tsx</title>
<g id="a_node8"><a xlink:href="src/reusables/functions/setupHttpClient.tsx" xlink:title="setupHttpClient.tsx">
<path fill="#ddfeff" stroke="black" d="M259.33,-78.25C259.33,-78.25 183.67,-78.25 183.67,-78.25 180.58,-78.25 177.5,-75.17 177.5,-72.08 177.5,-72.08 177.5,-65.92 177.5,-65.92 177.5,-62.83 180.58,-59.75 183.67,-59.75 183.67,-59.75 259.33,-59.75 259.33,-59.75 262.42,-59.75 265.5,-62.83 265.5,-65.92 265.5,-65.92 265.5,-72.08 265.5,-72.08 265.5,-75.17 262.42,-78.25 259.33,-78.25"/>
<text text-anchor="start" x="185.5" y="-65.7" font-family="Helvetica,sans-Serif" font-size="9.00">setupHttpClient.tsx</text>
</a>
</g>
</g>
<!-- src/reusables/logic/setupHttpClient.tsx&#45;&gt;src/reusables/state/external.ts -->
<g id="edge8" class="edge">
<title>src/reusables/functions/setupHttpClient.tsx&#45;&gt;src/reusables/state/external.ts</title>
<path fill="none" stroke="#000000" stroke-width="2" stroke-opacity="0.200000" d="M265.82,-76.37C274.28,-77.81 283.08,-79.31 291.31,-80.71"/>
<polygon fill="#000000" fill-opacity="0.200000" stroke="#000000" stroke-width="2" stroke-opacity="0.200000" points="291.71,-83.25 297.97,-82.19 292.41,-79.11 291.71,-83.25"/>
</g>
</g>
</svg>
