<?xml version="1.0" encoding="UTF-8" standalone="no"?>
<!DOCTYPE svg PUBLIC "-//W3C//DTD SVG 1.1//EN"
 "http://www.w3.org/Graphics/SVG/1.1/DTD/svg11.dtd">
<!-- Generated by graphviz version 8.1.0 (20230707.0739)
 -->
<!-- Title: dependency&#45;cruiser output Pages: 1 -->
<svg width="582pt" height="575pt"
 viewBox="0.00 0.00 581.50 575.00" xmlns="http://www.w3.org/2000/svg" xmlns:xlink="http://www.w3.org/1999/xlink">
<g id="graph0" class="graph" transform="scale(1 1) rotate(0) translate(4 571)">
<title>dependency&#45;cruiser output</title>
<polygon fill="white" stroke="none" points="-4,4 -4,-571 577.5,-571 577.5,4 -4,4"/>
<g id="clust1" class="cluster">
<title>cluster_src</title>
<path fill="#ffffff" stroke="black" stroke-width="2" d="M20,-8C20,-8 553.5,-8 553.5,-8 559.5,-8 565.5,-14 565.5,-20 565.5,-20 565.5,-547 565.5,-547 565.5,-553 559.5,-559 553.5,-559 553.5,-559 20,-559 20,-559 14,-559 8,-553 8,-547 8,-547 8,-20 8,-20 8,-14 14,-8 20,-8"/>
<text text-anchor="middle" x="286.75" y="-546.45" font-family="Helvetica,sans-Serif" font-weight="bold" font-size="9.00">src</text>
</g>
<g id="clust2" class="cluster">
<title>cluster_src/components</title>
<path fill="#ffffff" stroke="black" stroke-width="2" d="M28,-16C28,-16 338.25,-16 338.25,-16 344.25,-16 350.25,-22 350.25,-28 350.25,-28 350.25,-494 350.25,-494 350.25,-500 344.25,-506 338.25,-506 338.25,-506 28,-506 28,-506 22,-506 16,-500 16,-494 16,-494 16,-28 16,-28 16,-22 22,-16 28,-16"/>
<text text-anchor="middle" x="183.12" y="-493.45" font-family="Helvetica,sans-Serif" font-weight="bold" font-size="9.00">components</text>
</g>
<g id="clust3" class="cluster">
<title>cluster_src/components/Routes</title>
<path fill="#ffffff" stroke="black" stroke-width="2" d="M217.12,-330C217.12,-330 279.12,-330 279.12,-330 285.12,-330 291.12,-336 291.12,-342 291.12,-342 291.12,-467 291.12,-467 291.12,-473 285.12,-479 279.12,-479 279.12,-479 217.12,-479 217.12,-479 211.12,-479 205.12,-473 205.12,-467 205.12,-467 205.12,-342 205.12,-342 205.12,-336 211.12,-330 217.12,-330"/>
<text text-anchor="middle" x="248.12" y="-466.45" font-family="Helvetica,sans-Serif" font-weight="bold" font-size="9.00">Routes</text>
</g>
<g id="clust4" class="cluster">
<title>cluster_src/components/Routes/Feed</title>
<path fill="#ffffff" stroke="black" stroke-width="2" d="M225.12,-399C225.12,-399 271.12,-399 271.12,-399 277.12,-399 283.12,-405 283.12,-411 283.12,-411 283.12,-440 283.12,-440 283.12,-446 277.12,-452 271.12,-452 271.12,-452 225.12,-452 225.12,-452 219.12,-452 213.12,-446 213.12,-440 213.12,-440 213.12,-411 213.12,-411 213.12,-405 219.12,-399 225.12,-399"/>
<text text-anchor="middle" x="248.12" y="-439.45" font-family="Helvetica,sans-Serif" font-weight="bold" font-size="9.00">Feed</text>
</g>
<g id="clust5" class="cluster">
<title>cluster_src/components/Routes/Login</title>
<path fill="#ffffff" stroke="black" stroke-width="2" d="M225.12,-338C225.12,-338 271.12,-338 271.12,-338 277.12,-338 283.12,-344 283.12,-350 283.12,-350 283.12,-379 283.12,-379 283.12,-385 277.12,-391 271.12,-391 271.12,-391 225.12,-391 225.12,-391 219.12,-391 213.12,-385 213.12,-379 213.12,-379 213.12,-350 213.12,-350 213.12,-344 219.12,-338 225.12,-338"/>
<text text-anchor="middle" x="248.12" y="-378.45" font-family="Helvetica,sans-Serif" font-weight="bold" font-size="9.00">Login</text>
</g>
<g id="clust6" class="cluster">
<title>cluster_src/components/effects</title>
<path fill="#ffffff" stroke="black" stroke-width="2" d="M166,-24C166,-24 330.25,-24 330.25,-24 336.25,-24 342.25,-30 342.25,-36 342.25,-36 342.25,-284 342.25,-284 342.25,-290 336.25,-296 330.25,-296 330.25,-296 166,-296 166,-296 160,-296 154,-290 154,-284 154,-284 154,-36 154,-36 154,-30 160,-24 166,-24"/>
<text text-anchor="middle" x="248.12" y="-283.45" font-family="Helvetica,sans-Serif" font-weight="bold" font-size="9.00">effects</text>
</g>
<g id="clust7" class="cluster">
<title>cluster_src/components/effects/CommunicationEffects</title>
<path fill="#ffffff" stroke="black" stroke-width="2" d="M183.38,-185C183.38,-185 312.88,-185 312.88,-185 318.88,-185 324.88,-191 324.88,-197 324.88,-197 324.88,-257 324.88,-257 324.88,-263 318.88,-269 312.88,-269 312.88,-269 183.38,-269 183.38,-269 177.38,-269 171.38,-263 171.38,-257 171.38,-257 171.38,-197 171.38,-197 171.38,-191 177.38,-185 183.38,-185"/>
<text text-anchor="middle" x="248.12" y="-256.45" font-family="Helvetica,sans-Serif" font-weight="bold" font-size="9.00">CommunicationEffects</text>
</g>
<g id="clust8" class="cluster">
<title>cluster_src/components/effects/NavigationEffects</title>
<path fill="#ffffff" stroke="black" stroke-width="2" d="M174,-93C174,-93 322.25,-93 322.25,-93 328.25,-93 334.25,-99 334.25,-105 334.25,-105 334.25,-165 334.25,-165 334.25,-171 328.25,-177 322.25,-177 322.25,-177 174,-177 174,-177 168,-177 162,-171 162,-165 162,-165 162,-105 162,-105 162,-99 168,-93 174,-93"/>
<text text-anchor="middle" x="248.12" y="-164.45" font-family="Helvetica,sans-Serif" font-weight="bold" font-size="9.00">NavigationEffects</text>
</g>
<g id="clust9" class="cluster">
<title>cluster_src/components/effects/UIEffects</title>
<path fill="#ffffff" stroke="black" stroke-width="2" d="M206.62,-32C206.62,-32 289.62,-32 289.62,-32 295.62,-32 301.62,-38 301.62,-44 301.62,-44 301.62,-73 301.62,-73 301.62,-79 295.62,-85 289.62,-85 289.62,-85 206.62,-85 206.62,-85 200.62,-85 194.62,-79 194.62,-73 194.62,-73 194.62,-44 194.62,-44 194.62,-38 200.62,-32 206.62,-32"/>
<text text-anchor="middle" x="248.12" y="-72.45" font-family="Helvetica,sans-Serif" font-weight="bold" font-size="9.00">UIEffects</text>
</g>
<g id="clust10" class="cluster">
<title>cluster_src/reusables</title>
<path fill="#ffffff" stroke="black" stroke-width="2" d="M370.25,-46C370.25,-46 545.5,-46 545.5,-46 551.5,-46 557.5,-52 557.5,-58 557.5,-58 557.5,-411 557.5,-411 557.5,-417 551.5,-423 545.5,-423 545.5,-423 370.25,-423 370.25,-423 364.25,-423 358.25,-417 358.25,-411 358.25,-411 358.25,-58 358.25,-58 358.25,-52 364.25,-46 370.25,-46"/>
<text text-anchor="middle" x="457.88" y="-410.45" font-family="Helvetica,sans-Serif" font-weight="bold" font-size="9.00">reusables</text>
</g>
<g id="clust11" class="cluster">
<title>cluster_src/reusables/logic</title>
<path fill="#ffffff" stroke="black" stroke-width="2" d="M378.25,-212C378.25,-212 537.5,-212 537.5,-212 543.5,-212 549.5,-218 549.5,-224 549.5,-224 549.5,-384 549.5,-384 549.5,-390 543.5,-396 537.5,-396 537.5,-396 378.25,-396 378.25,-396 372.25,-396 366.25,-390 366.25,-384 366.25,-384 366.25,-224 366.25,-224 366.25,-218 372.25,-212 378.25,-212"/>
<text text-anchor="middle" x="457.88" y="-383.45" font-family="Helvetica,sans-Serif" font-weight="bold" font-size="9.00">logic</text>
</g>
<g id="clust12" class="cluster">
<title>cluster_src/reusables/logic/internal</title>
<path fill="#ffffff" stroke="black" stroke-width="2" d="M452.25,-220C452.25,-220 529.5,-220 529.5,-220 535.5,-220 541.5,-226 541.5,-232 541.5,-232 541.5,-357 541.5,-357 541.5,-363 535.5,-369 529.5,-369 529.5,-369 452.25,-369 452.25,-369 446.25,-369 440.25,-363 440.25,-357 440.25,-357 440.25,-232 440.25,-232 440.25,-226 446.25,-220 452.25,-220"/>
<text text-anchor="middle" x="490.88" y="-356.45" font-family="Helvetica,sans-Serif" font-weight="bold" font-size="9.00">internal</text>
</g>
<g id="clust13" class="cluster">
<title>cluster_src/reusables/logic/internal/dependent</title>
<path fill="#ffffff" stroke="black" stroke-width="2" d="M467.88,-289C467.88,-289 513.88,-289 513.88,-289 519.88,-289 525.88,-295 525.88,-301 525.88,-301 525.88,-330 525.88,-330 525.88,-336 519.88,-342 513.88,-342 513.88,-342 467.88,-342 467.88,-342 461.88,-342 455.88,-336 455.88,-330 455.88,-330 455.88,-301 455.88,-301 455.88,-295 461.88,-289 467.88,-289"/>
<text text-anchor="middle" x="490.88" y="-329.45" font-family="Helvetica,sans-Serif" font-weight="bold" font-size="9.00">dependent</text>
</g>
<g id="clust14" class="cluster">
<title>cluster_src/reusables/logic/internal/independent</title>
<path fill="#ffffff" stroke="black" stroke-width="2" d="M460.25,-228C460.25,-228 521.5,-228 521.5,-228 527.5,-228 533.5,-234 533.5,-240 533.5,-240 533.5,-269 533.5,-269 533.5,-275 527.5,-281 521.5,-281 521.5,-281 460.25,-281 460.25,-281 454.25,-281 448.25,-275 448.25,-269 448.25,-269 448.25,-240 448.25,-240 448.25,-234 454.25,-228 460.25,-228"/>
<text text-anchor="middle" x="490.88" y="-268.45" font-family="Helvetica,sans-Serif" font-weight="bold" font-size="9.00">independent</text>
</g>
<g id="clust15" class="cluster">
<title>cluster_src/reusables/state</title>
<path fill="#ffffff" stroke="black" stroke-width="2" d="M378.25,-54C378.25,-54 530.62,-54 530.62,-54 536.62,-54 542.62,-60 542.62,-66 542.62,-66 542.62,-192 542.62,-192 542.62,-198 536.62,-204 530.62,-204 530.62,-204 378.25,-204 378.25,-204 372.25,-204 366.25,-198 366.25,-192 366.25,-192 366.25,-66 366.25,-66 366.25,-60 372.25,-54 378.25,-54"/>
<text text-anchor="middle" x="454.44" y="-191.45" font-family="Helvetica,sans-Serif" font-weight="bold" font-size="9.00">state</text>
</g>
<g id="clust16" class="cluster">
<title>cluster_src/reusables/state/internal</title>
<path fill="#ffffff" stroke="black" stroke-width="2" d="M459.12,-62C459.12,-62 522.62,-62 522.62,-62 528.62,-62 534.62,-68 534.62,-74 534.62,-74 534.62,-165 534.62,-165 534.62,-171 528.62,-177 522.62,-177 522.62,-177 459.12,-177 459.12,-177 453.12,-177 447.12,-171 447.12,-165 447.12,-165 447.12,-74 447.12,-74 447.12,-68 453.12,-62 459.12,-62"/>
<text text-anchor="middle" x="490.88" y="-164.45" font-family="Helvetica,sans-Serif" font-weight="bold" font-size="9.00">internal</text>
</g>
<!-- src/components/App.tsx -->
<g id="node1" class="node">
<title>src/components/App.tsx</title>
<g id="a_node1"><a xlink:href="src/components/App.tsx" xlink:title="App.tsx">
<path fill="#bbfeff" stroke="black" d="M139.33,-242.25C139.33,-242.25 97.67,-242.25 97.67,-242.25 94.58,-242.25 91.5,-239.17 91.5,-236.08 91.5,-236.08 91.5,-229.92 91.5,-229.92 91.5,-226.83 94.58,-223.75 97.67,-223.75 97.67,-223.75 139.33,-223.75 139.33,-223.75 142.42,-223.75 145.5,-226.83 145.5,-229.92 145.5,-229.92 145.5,-236.08 145.5,-236.08 145.5,-239.17 142.42,-242.25 139.33,-242.25"/>
<text text-anchor="start" x="103.5" y="-229.7" font-family="Helvetica,sans-Serif" font-size="9.00">App.tsx</text>
</a>
</g>
</g>
<!-- src/components/effects/CommunicationEffects/HttpErrorInterceptor.tsx -->
<g id="node2" class="node">
<title>src/components/effects/CommunicationEffects/HttpErrorInterceptor.tsx</title>
<g id="a_node2"><a xlink:href="src/components/effects/CommunicationEffects/HttpErrorInterceptor.tsx" xlink:title="HttpErrorInterceptor.tsx">
<path fill="#bbfeff" stroke="black" d="M296.46,-242.25C296.46,-242.25 199.79,-242.25 199.79,-242.25 196.71,-242.25 193.62,-239.17 193.62,-236.08 193.62,-236.08 193.62,-229.92 193.62,-229.92 193.62,-226.83 196.71,-223.75 199.79,-223.75 199.79,-223.75 296.46,-223.75 296.46,-223.75 299.54,-223.75 302.62,-226.83 302.62,-229.92 302.62,-229.92 302.62,-236.08 302.62,-236.08 302.62,-239.17 299.54,-242.25 296.46,-242.25"/>
<text text-anchor="start" x="201.62" y="-229.7" font-family="Helvetica,sans-Serif" font-size="9.00">HttpErrorInterceptor.tsx</text>
</a>
</g>
</g>
<!-- src/components/App.tsx&#45;&gt;src/components/effects/CommunicationEffects/HttpErrorInterceptor.tsx -->
<g id="edge1" class="edge">
<title>src/components/App.tsx&#45;&gt;src/components/effects/CommunicationEffects/HttpErrorInterceptor.tsx</title>
<path fill="none" stroke="#000000" stroke-width="2" stroke-opacity="0.200000" d="M145.94,-233C157.2,-233 170.86,-233 184.45,-233"/>
<polygon fill="#000000" fill-opacity="0.200000" stroke="#000000" stroke-width="2" stroke-opacity="0.200000" points="184.34,-235.1 190.34,-233 184.34,-230.9 184.34,-235.1"/>
</g>
<!-- src/components/effects/CommunicationEffects/HttpTokenSetterInterceptor.tsx -->
<g id="node3" class="node">
<title>src/components/effects/CommunicationEffects/HttpTokenSetterInterceptor.tsx</title>
<g id="a_node3"><a xlink:href="src/components/effects/CommunicationEffects/HttpTokenSetterInterceptor.tsx" xlink:title="HttpTokenSetterInterceptor.tsx">
<path fill="#bbfeff" stroke="black" d="M310.71,-211.25C310.71,-211.25 185.54,-211.25 185.54,-211.25 182.46,-211.25 179.38,-208.17 179.38,-205.08 179.38,-205.08 179.38,-198.92 179.38,-198.92 179.38,-195.83 182.46,-192.75 185.54,-192.75 185.54,-192.75 310.71,-192.75 310.71,-192.75 313.79,-192.75 316.88,-195.83 316.88,-198.92 316.88,-198.92 316.88,-205.08 316.88,-205.08 316.88,-208.17 313.79,-211.25 310.71,-211.25"/>
<text text-anchor="start" x="187.38" y="-198.7" font-family="Helvetica,sans-Serif" font-size="9.00">HttpTokenSetterInterceptor.tsx</text>
</a>
</g>
</g>
<!-- src/components/App.tsx&#45;&gt;src/components/effects/CommunicationEffects/HttpTokenSetterInterceptor.tsx -->
<g id="edge2" class="edge">
<title>src/components/App.tsx&#45;&gt;src/components/effects/CommunicationEffects/HttpTokenSetterInterceptor.tsx</title>
<path fill="none" stroke="#000000" stroke-width="2" stroke-opacity="0.200000" d="M139.63,-223.29C144.27,-221.32 149.24,-219.42 154,-218 159.26,-216.43 164.74,-215 170.28,-213.69"/>
<polygon fill="#000000" fill-opacity="0.200000" stroke="#000000" stroke-width="2" stroke-opacity="0.200000" points="171.64,-215.1 177.04,-211.74 170.72,-211 171.64,-215.1"/>
</g>
<!-- src/components/effects/NavigationEffects/GoToLoginWhenJwtAtomIsNull.tsx -->
<g id="node4" class="node">
<title>src/components/effects/NavigationEffects/GoToLoginWhenJwtAtomIsNull.tsx</title>
<g id="a_node4"><a xlink:href="src/components/effects/NavigationEffects/GoToLoginWhenJwtAtomIsNull.tsx" xlink:title="GoToLoginWhenJwtAtomIsNull.tsx">
<path fill="#bbfeff" stroke="black" d="M320.08,-119.25C320.08,-119.25 176.17,-119.25 176.17,-119.25 173.08,-119.25 170,-116.17 170,-113.08 170,-113.08 170,-106.92 170,-106.92 170,-103.83 173.08,-100.75 176.17,-100.75 176.17,-100.75 320.08,-100.75 320.08,-100.75 323.17,-100.75 326.25,-103.83 326.25,-106.92 326.25,-106.92 326.25,-113.08 326.25,-113.08 326.25,-116.17 323.17,-119.25 320.08,-119.25"/>
<text text-anchor="start" x="178" y="-106.7" font-family="Helvetica,sans-Serif" font-size="9.00">GoToLoginWhenJwtAtomIsNull.tsx</text>
</a>
</g>
</g>
<!-- src/components/App.tsx&#45;&gt;src/components/effects/NavigationEffects/GoToLoginWhenJwtAtomIsNull.tsx -->
<g id="edge3" class="edge">
<title>src/components/App.tsx&#45;&gt;src/components/effects/NavigationEffects/GoToLoginWhenJwtAtomIsNull.tsx</title>
<path fill="none" stroke="#000000" stroke-width="2" stroke-opacity="0.200000" d="M119.5,-223.55C120.04,-202.5 124.51,-151.58 154,-126 156.5,-123.83 159.19,-121.9 162.01,-120.19"/>
<polygon fill="#000000" fill-opacity="0.200000" stroke="#000000" stroke-width="2" stroke-opacity="0.200000" points="163.43,-121.79 167.79,-117.16 161.5,-118.06 163.43,-121.79"/>
</g>
<!-- src/components/effects/NavigationEffects/SignInEffect.tsx -->
<g id="node5" class="node">
<title>src/components/effects/NavigationEffects/SignInEffect.tsx</title>
<g id="a_node5"><a xlink:href="src/components/effects/NavigationEffects/SignInEffect.tsx" xlink:title="SignInEffect.tsx">
<path fill="#bbfeff" stroke="black" d="M281.08,-150.25C281.08,-150.25 215.17,-150.25 215.17,-150.25 212.08,-150.25 209,-147.17 209,-144.08 209,-144.08 209,-137.92 209,-137.92 209,-134.83 212.08,-131.75 215.17,-131.75 215.17,-131.75 281.08,-131.75 281.08,-131.75 284.17,-131.75 287.25,-134.83 287.25,-137.92 287.25,-137.92 287.25,-144.08 287.25,-144.08 287.25,-147.17 284.17,-150.25 281.08,-150.25"/>
<text text-anchor="start" x="217" y="-137.7" font-family="Helvetica,sans-Serif" font-size="9.00">SignInEffect.tsx</text>
</a>
</g>
</g>
<!-- src/components/App.tsx&#45;&gt;src/components/effects/NavigationEffects/SignInEffect.tsx -->
<g id="edge4" class="edge">
<title>src/components/App.tsx&#45;&gt;src/components/effects/NavigationEffects/SignInEffect.tsx</title>
<path fill="none" stroke="#000000" stroke-width="2" stroke-opacity="0.200000" d="M123.84,-223.54C129.41,-212.31 140.05,-193.64 154,-182 168.92,-169.55 188.21,-160.23 205.36,-153.65"/>
<polygon fill="#000000" fill-opacity="0.200000" stroke="#000000" stroke-width="2" stroke-opacity="0.200000" points="206.67,-155.67 211.58,-151.64 205.23,-151.73 206.67,-155.67"/>
</g>
<!-- src/components/effects/UIEffects/ThemeChange.tsx -->
<g id="node6" class="node">
<title>src/components/effects/UIEffects/ThemeChange.tsx</title>
<g id="a_node6"><a xlink:href="src/components/effects/UIEffects/ThemeChange.tsx" xlink:title="ThemeChange.tsx">
<path fill="#bbfeff" stroke="black" d="M287.46,-58.25C287.46,-58.25 208.79,-58.25 208.79,-58.25 205.71,-58.25 202.62,-55.17 202.62,-52.08 202.62,-52.08 202.62,-45.92 202.62,-45.92 202.62,-42.83 205.71,-39.75 208.79,-39.75 208.79,-39.75 287.46,-39.75 287.46,-39.75 290.54,-39.75 293.62,-42.83 293.62,-45.92 293.62,-45.92 293.62,-52.08 293.62,-52.08 293.62,-55.17 290.54,-58.25 287.46,-58.25"/>
<text text-anchor="start" x="210.62" y="-45.7" font-family="Helvetica,sans-Serif" font-size="9.00">ThemeChange.tsx</text>
</a>
</g>
</g>
<!-- src/components/App.tsx&#45;&gt;src/components/effects/UIEffects/ThemeChange.tsx -->
<g id="edge5" class="edge">
<title>src/components/App.tsx&#45;&gt;src/components/effects/UIEffects/ThemeChange.tsx</title>
<path fill="none" stroke="#000000" stroke-width="2" stroke-opacity="0.200000" d="M119.07,-223.38C118.48,-198.36 120.25,-130.36 154,-90 165,-76.84 181.05,-67.77 196.74,-61.57"/>
<polygon fill="#000000" fill-opacity="0.200000" stroke="#000000" stroke-width="2" stroke-opacity="0.200000" points="197.97,-63.63 202.88,-59.59 196.52,-59.68 197.97,-63.63"/>
</g>
<!-- src/components/Header.tsx -->
<g id="node7" class="node">
<title>src/components/Header.tsx</title>
<g id="a_node7"><a xlink:href="src/components/Header.tsx" xlink:title="Header.tsx">
<path fill="#bbfeff" stroke="black" d="M271.71,-322.25C271.71,-322.25 224.54,-322.25 224.54,-322.25 221.46,-322.25 218.38,-319.17 218.38,-316.08 218.38,-316.08 218.38,-309.92 218.38,-309.92 218.38,-306.83 221.46,-303.75 224.54,-303.75 224.54,-303.75 271.71,-303.75 271.71,-303.75 274.79,-303.75 277.88,-306.83 277.88,-309.92 277.88,-309.92 277.88,-316.08 277.88,-316.08 277.88,-319.17 274.79,-322.25 271.71,-322.25"/>
<text text-anchor="start" x="226.38" y="-309.7" font-family="Helvetica,sans-Serif" font-size="9.00">Header.tsx</text>
</a>
</g>
</g>
<!-- src/components/App.tsx&#45;&gt;src/components/Header.tsx -->
<g id="edge6" class="edge">
<title>src/components/App.tsx&#45;&gt;src/components/Header.tsx</title>
<path fill="none" stroke="#000000" stroke-width="2" stroke-opacity="0.200000" d="M142.42,-242.58C143.72,-243.61 144.94,-244.75 146,-246 153.85,-255.2 145.96,-262.97 154,-272 168.46,-288.25 190.56,-298.35 209.6,-304.46"/>
<polygon fill="#000000" fill-opacity="0.200000" stroke="#000000" stroke-width="2" stroke-opacity="0.200000" points="209.74,-307.29 216.09,-307 210.94,-303.27 209.74,-307.29"/>
</g>
<!-- src/components/Routes/Feed/Feed.tsx -->
<g id="node8" class="node">
<title>src/components/Routes/Feed/Feed.tsx</title>
<g id="a_node8"><a xlink:href="src/components/Routes/Feed/Feed.tsx" xlink:title="Feed.tsx">
<path fill="#bbfeff" stroke="black" d="M268.96,-425.25C268.96,-425.25 227.29,-425.25 227.29,-425.25 224.21,-425.25 221.12,-422.17 221.12,-419.08 221.12,-419.08 221.12,-412.92 221.12,-412.92 221.12,-409.83 224.21,-406.75 227.29,-406.75 227.29,-406.75 268.96,-406.75 268.96,-406.75 272.04,-406.75 275.12,-409.83 275.12,-412.92 275.12,-412.92 275.12,-419.08 275.12,-419.08 275.12,-422.17 272.04,-425.25 268.96,-425.25"/>
<text text-anchor="start" x="230.88" y="-412.7" font-family="Helvetica,sans-Serif" font-size="9.00">Feed.tsx</text>
</a>
</g>
</g>
<!-- src/components/App.tsx&#45;&gt;src/components/Routes/Feed/Feed.tsx -->
<g id="edge7" class="edge">
<title>src/components/App.tsx&#45;&gt;src/components/Routes/Feed/Feed.tsx</title>
<path fill="none" stroke="#000000" stroke-width="2" stroke-opacity="0.200000" d="M143.23,-242.72C144.27,-243.71 145.21,-244.8 146,-246 164.17,-273.47 132.87,-368.73 154,-394 167.86,-410.58 191.68,-415.99 211.76,-417.3"/>
<polygon fill="#000000" fill-opacity="0.200000" stroke="#000000" stroke-width="2" stroke-opacity="0.200000" points="211.59,-419.51 217.67,-417.64 211.75,-415.31 211.59,-419.51"/>
</g>
<!-- src/components/Routes/Login/Login.tsx -->
<g id="node9" class="node">
<title>src/components/Routes/Login/Login.tsx</title>
<g id="a_node9"><a xlink:href="src/components/Routes/Login/Login.tsx" xlink:title="Login.tsx">
<path fill="#bbfeff" stroke="black" d="M268.96,-364.25C268.96,-364.25 227.29,-364.25 227.29,-364.25 224.21,-364.25 221.12,-361.17 221.12,-358.08 221.12,-358.08 221.12,-351.92 221.12,-351.92 221.12,-348.83 224.21,-345.75 227.29,-345.75 227.29,-345.75 268.96,-345.75 268.96,-345.75 272.04,-345.75 275.12,-348.83 275.12,-351.92 275.12,-351.92 275.12,-358.08 275.12,-358.08 275.12,-361.17 272.04,-364.25 268.96,-364.25"/>
<text text-anchor="start" x="229.75" y="-351.7" font-family="Helvetica,sans-Serif" font-size="9.00">Login.tsx</text>
</a>
</g>
</g>
<!-- src/components/App.tsx&#45;&gt;src/components/Routes/Login/Login.tsx -->
<g id="edge8" class="edge">
<title>src/components/App.tsx&#45;&gt;src/components/Routes/Login/Login.tsx</title>
<path fill="none" stroke="#000000" stroke-width="2" stroke-opacity="0.200000" d="M143.19,-242.75C144.24,-243.73 145.19,-244.81 146,-246 158.07,-263.68 139.29,-326.45 154,-342 168.49,-357.32 192.08,-360.49 211.89,-359.87"/>
<polygon fill="#000000" fill-opacity="0.200000" stroke="#000000" stroke-width="2" stroke-opacity="0.200000" points="211.81,-361.8 217.68,-359.35 211.56,-357.61 211.81,-361.8"/>
</g>
<!-- src/reusables/state/external.ts -->
<g id="node10" class="node">
<title>src/reusables/state/external.ts</title>
<g id="a_node10"><a xlink:href="src/reusables/state/external.ts" xlink:title="external.ts">
<path fill="#ddfeff" stroke="black" d="M426.08,-150.25C426.08,-150.25 380.42,-150.25 380.42,-150.25 377.33,-150.25 374.25,-147.17 374.25,-144.08 374.25,-144.08 374.25,-137.92 374.25,-137.92 374.25,-134.83 377.33,-131.75 380.42,-131.75 380.42,-131.75 426.08,-131.75 426.08,-131.75 429.17,-131.75 432.25,-134.83 432.25,-137.92 432.25,-137.92 432.25,-144.08 432.25,-144.08 432.25,-147.17 429.17,-150.25 426.08,-150.25"/>
<text text-anchor="start" x="382.25" y="-137.7" font-family="Helvetica,sans-Serif" font-size="9.00">external.ts</text>
</a>
</g>
</g>
<!-- src/components/effects/CommunicationEffects/HttpErrorInterceptor.tsx&#45;&gt;src/reusables/state/external.ts -->
<g id="edge13" class="edge">
<title>src/components/effects/CommunicationEffects/HttpErrorInterceptor.tsx&#45;&gt;src/reusables/state/external.ts</title>
<path fill="none" stroke="#000000" stroke-width="2" stroke-opacity="0.200000" d="M302.92,-232.55C319.11,-230.36 336.28,-225.83 350.25,-217 356.15,-213.27 378.21,-179.24 391.63,-158"/>
<polygon fill="#000000" fill-opacity="0.200000" stroke="#000000" stroke-width="2" stroke-opacity="0.200000" points="393.88,-158.78 395.3,-152.58 390.33,-156.54 393.88,-158.78"/>
</g>
<!-- src/reusables/logic/external.ts -->
<g id="node11" class="node">
<title>src/reusables/logic/external.ts</title>
<g id="a_node11"><a xlink:href="src/reusables/logic/external.ts" xlink:title="external.ts">
<path fill="#ddfeff" stroke="black" d="M426.08,-248.25C426.08,-248.25 380.42,-248.25 380.42,-248.25 377.33,-248.25 374.25,-245.17 374.25,-242.08 374.25,-242.08 374.25,-235.92 374.25,-235.92 374.25,-232.83 377.33,-229.75 380.42,-229.75 380.42,-229.75 426.08,-229.75 426.08,-229.75 429.17,-229.75 432.25,-232.83 432.25,-235.92 432.25,-235.92 432.25,-242.08 432.25,-242.08 432.25,-245.17 429.17,-248.25 426.08,-248.25"/>
<text text-anchor="start" x="382.25" y="-235.7" font-family="Helvetica,sans-Serif" font-size="9.00">external.ts</text>
</a>
</g>
</g>
<!-- src/components/effects/CommunicationEffects/HttpErrorInterceptor.tsx&#45;&gt;src/reusables/logic/external.ts -->
<g id="edge12" class="edge">
<title>src/components/effects/CommunicationEffects/HttpErrorInterceptor.tsx&#45;&gt;src/reusables/logic/external.ts</title>
<path fill="none" stroke="#000000" stroke-width="2" stroke-opacity="0.200000" d="M303.11,-235.12C323.68,-235.92 346.64,-236.82 365.28,-237.55"/>
<polygon fill="#000000" fill-opacity="0.200000" stroke="#000000" stroke-width="2" stroke-opacity="0.200000" points="364.98,-239.76 371.05,-237.9 365.14,-235.56 364.98,-239.76"/>
</g>
<!-- src/components/effects/CommunicationEffects/HttpTokenSetterInterceptor.tsx&#45;&gt;src/reusables/state/external.ts -->
<g id="edge15" class="edge">
<title>src/components/effects/CommunicationEffects/HttpTokenSetterInterceptor.tsx&#45;&gt;src/reusables/state/external.ts</title>
<path fill="none" stroke="#000000" stroke-width="2" stroke-opacity="0.200000" d="M313.86,-192.25C326.25,-189.19 338.89,-185.19 350.25,-180 363.17,-174.09 375.96,-164.56 385.62,-156.4"/>
<polygon fill="#000000" fill-opacity="0.200000" stroke="#000000" stroke-width="2" stroke-opacity="0.200000" points="387.22,-157.04 390.35,-151.51 384.45,-153.88 387.22,-157.04"/>
</g>
<!-- src/components/effects/CommunicationEffects/HttpTokenSetterInterceptor.tsx&#45;&gt;src/reusables/logic/external.ts -->
<g id="edge14" class="edge">
<title>src/components/effects/CommunicationEffects/HttpTokenSetterInterceptor.tsx&#45;&gt;src/reusables/logic/external.ts</title>
<path fill="none" stroke="#000000" stroke-width="2" stroke-opacity="0.200000" d="M317.3,-210.62C328.41,-212.64 339.72,-215.08 350.25,-218 357.8,-220.09 365.75,-222.95 373.09,-225.87"/>
<polygon fill="#000000" fill-opacity="0.200000" stroke="#000000" stroke-width="2" stroke-opacity="0.200000" points="373.03,-227.95 379.38,-228.31 374.64,-224.07 373.03,-227.95"/>
</g>
<!-- src/components/effects/NavigationEffects/GoToLoginWhenJwtAtomIsNull.tsx&#45;&gt;src/reusables/state/external.ts -->
<g id="edge16" class="edge">
<title>src/components/effects/NavigationEffects/GoToLoginWhenJwtAtomIsNull.tsx&#45;&gt;src/reusables/state/external.ts</title>
<path fill="none" stroke="#000000" stroke-width="2" stroke-opacity="0.200000" d="M318.15,-119.75C328.94,-121.61 339.93,-123.7 350.25,-126 355.19,-127.1 360.34,-128.4 365.41,-129.76"/>
<polygon fill="#000000" fill-opacity="0.200000" stroke="#000000" stroke-width="2" stroke-opacity="0.200000" points="365.46,-132.52 371.81,-132.11 366.59,-128.47 365.46,-132.52"/>
</g>
<!-- src/components/effects/NavigationEffects/SignInEffect.tsx&#45;&gt;src/reusables/state/external.ts -->
<g id="edge18" class="edge">
<title>src/components/effects/NavigationEffects/SignInEffect.tsx&#45;&gt;src/reusables/state/external.ts</title>
<path fill="none" stroke="#000000" stroke-width="2" stroke-opacity="0.200000" d="M287.37,-141C311.14,-141 341.56,-141 365.12,-141"/>
<polygon fill="#000000" fill-opacity="0.200000" stroke="#000000" stroke-width="2" stroke-opacity="0.200000" points="365.11,-143.1 371.11,-141 365.11,-138.9 365.11,-143.1"/>
</g>
<!-- src/components/effects/NavigationEffects/SignInEffect.tsx&#45;&gt;src/reusables/logic/external.ts -->
<g id="edge17" class="edge">
<title>src/components/effects/NavigationEffects/SignInEffect.tsx&#45;&gt;src/reusables/logic/external.ts</title>
<path fill="none" stroke="#000000" stroke-width="2" stroke-opacity="0.200000" d="M287.32,-148.16C308.48,-153.97 333.76,-164.22 350.25,-182 358.18,-190.55 351.42,-197.55 358.25,-207 363.13,-213.75 369.86,-219.64 376.59,-224.47"/>
<polygon fill="#000000" fill-opacity="0.200000" stroke="#000000" stroke-width="2" stroke-opacity="0.200000" points="375.65,-226.7 381.81,-228.28 377.98,-223.2 375.65,-226.7"/>
</g>
<!-- src/components/effects/UIEffects/ThemeChange.tsx&#45;&gt;src/reusables/state/external.ts -->
<g id="edge19" class="edge">
<title>src/components/effects/UIEffects/ThemeChange.tsx&#45;&gt;src/reusables/state/external.ts</title>
<path fill="none" stroke="#000000" stroke-width="2" stroke-opacity="0.200000" d="M282.13,-58.73C302.71,-65.66 329.18,-76.18 350.25,-90 365,-99.67 379.11,-113.94 388.9,-124.93"/>
<polygon fill="#000000" fill-opacity="0.200000" stroke="#000000" stroke-width="2" stroke-opacity="0.200000" points="388.16,-126.43 393.67,-129.59 391.33,-123.68 388.16,-126.43"/>
</g>
<!-- src/components/Header.tsx&#45;&gt;src/reusables/state/external.ts -->
<g id="edge9" class="edge">
<title>src/components/Header.tsx&#45;&gt;src/reusables/state/external.ts</title>
<path fill="none" stroke="#000000" stroke-width="2" stroke-opacity="0.200000" d="M278.33,-309.22C301.6,-304.59 333.03,-294.37 350.25,-272 367.46,-249.63 348.56,-235.51 358.25,-209 365.27,-189.79 378.52,-170.46 388.65,-157.34"/>
<polygon fill="#000000" fill-opacity="0.200000" stroke="#000000" stroke-width="2" stroke-opacity="0.200000" points="391.09,-158.39 393.18,-152.39 387.8,-155.77 391.09,-158.39"/>
</g>
<!-- src/components/Routes/Login/Login.tsx&#45;&gt;src/reusables/state/external.ts -->
<g id="edge11" class="edge">
<title>src/components/Routes/Login/Login.tsx&#45;&gt;src/reusables/state/external.ts</title>
<path fill="none" stroke="#000000" stroke-width="2" stroke-opacity="0.200000" d="M275.18,-359.89C298.4,-362.58 331.52,-362.05 350.25,-342 360.36,-331.18 353.63,-223.07 358.25,-209 364.56,-189.79 377.66,-170.71 387.93,-157.67"/>
<polygon fill="#000000" fill-opacity="0.200000" stroke="#000000" stroke-width="2" stroke-opacity="0.200000" points="390.42,-158.71 392.58,-152.74 387.17,-156.06 390.42,-158.71"/>
</g>
<!-- src/components/Routes/Login/Login.tsx&#45;&gt;src/reusables/logic/external.ts -->
<g id="edge10" class="edge">
<title>src/components/Routes/Login/Login.tsx&#45;&gt;src/reusables/logic/external.ts</title>
<path fill="none" stroke="#000000" stroke-width="2" stroke-opacity="0.200000" d="M275.19,-358.02C297.17,-359.18 328.43,-357.43 350.25,-342 378.85,-321.77 392.65,-281.1 398.51,-257.37"/>
<polygon fill="#000000" fill-opacity="0.200000" stroke="#000000" stroke-width="2" stroke-opacity="0.200000" points="401.22,-256.94 400.5,-250.62 397.13,-256.01 401.22,-256.94"/>
</g>
<!-- src/reusables/state/internal/jwtAtom.ts -->
<g id="node16" class="node">
<title>src/reusables/state/internal/jwtAtom.ts</title>
<g id="a_node16"><a xlink:href="src/reusables/state/internal/jwtAtom.ts" xlink:title="jwtAtom.ts">
<path fill="#ddfeff" stroke="black" d="M513.33,-150.25C513.33,-150.25 468.42,-150.25 468.42,-150.25 465.33,-150.25 462.25,-147.17 462.25,-144.08 462.25,-144.08 462.25,-137.92 462.25,-137.92 462.25,-134.83 465.33,-131.75 468.42,-131.75 468.42,-131.75 513.33,-131.75 513.33,-131.75 516.42,-131.75 519.5,-134.83 519.5,-137.92 519.5,-137.92 519.5,-144.08 519.5,-144.08 519.5,-147.17 516.42,-150.25 513.33,-150.25"/>
<text text-anchor="start" x="470.25" y="-137.7" font-family="Helvetica,sans-Serif" font-size="9.00">jwtAtom.ts</text>
</a>
</g>
</g>
<!-- src/reusables/state/external.ts&#45;&gt;src/reusables/state/internal/jwtAtom.ts -->
<g id="edge24" class="edge">
<title>src/reusables/state/external.ts&#45;&gt;src/reusables/state/internal/jwtAtom.ts</title>
<path fill="none" stroke="#000000" stroke-width="2" stroke-opacity="0.200000" d="M432.29,-141C439.53,-141 447.42,-141 454.97,-141"/>
<polygon fill="#000000" fill-opacity="0.200000" stroke="#000000" stroke-width="2" stroke-opacity="0.200000" points="460.78,-143.1 454.78,-141 460.78,-138.9 460.78,-143.1"/>
</g>
<!-- src/reusables/state/internal/themeAtom.ts -->
<g id="node17" class="node">
<title>src/reusables/state/internal/themeAtom.ts</title>
<g id="a_node17"><a xlink:href="src/reusables/state/internal/themeAtom.ts" xlink:title="themeAtom.ts">
<path fill="#ddfeff" stroke="black" d="M520.46,-119.25C520.46,-119.25 461.29,-119.25 461.29,-119.25 458.21,-119.25 455.12,-116.17 455.12,-113.08 455.12,-113.08 455.12,-106.92 455.12,-106.92 455.12,-103.83 458.21,-100.75 461.29,-100.75 461.29,-100.75 520.46,-100.75 520.46,-100.75 523.54,-100.75 526.62,-103.83 526.62,-106.92 526.62,-106.92 526.62,-113.08 526.62,-113.08 526.62,-116.17 523.54,-119.25 520.46,-119.25"/>
<text text-anchor="start" x="463.12" y="-106.7" font-family="Helvetica,sans-Serif" font-size="9.00">themeAtom.ts</text>
</a>
</g>
</g>
<!-- src/reusables/state/external.ts&#45;&gt;src/reusables/state/internal/themeAtom.ts -->
<g id="edge25" class="edge">
<title>src/reusables/state/external.ts&#45;&gt;src/reusables/state/internal/themeAtom.ts</title>
<path fill="none" stroke="#000000" stroke-width="2" stroke-opacity="0.200000" d="M426.6,-131.35C431.1,-129.5 435.8,-127.64 440.25,-126 444,-124.62 447.94,-123.23 451.89,-121.89"/>
<polygon fill="#000000" fill-opacity="0.200000" stroke="#000000" stroke-width="2" stroke-opacity="0.200000" points="458.22,-121.99 451.86,-121.9 456.89,-118 458.22,-121.99"/>
</g>
<!-- src/reusables/state/internal/user.ts -->
<g id="node18" class="node">
<title>src/reusables/state/internal/user.ts</title>
<g id="a_node18"><a xlink:href="src/reusables/state/internal/user.ts" xlink:title="user.ts">
<path fill="#ddfeff" stroke="black" d="M511.71,-88.25C511.71,-88.25 470.04,-88.25 470.04,-88.25 466.96,-88.25 463.88,-85.17 463.88,-82.08 463.88,-82.08 463.88,-75.92 463.88,-75.92 463.88,-72.83 466.96,-69.75 470.04,-69.75 470.04,-69.75 511.71,-69.75 511.71,-69.75 514.79,-69.75 517.88,-72.83 517.88,-75.92 517.88,-75.92 517.88,-82.08 517.88,-82.08 517.88,-85.17 514.79,-88.25 511.71,-88.25"/>
<text text-anchor="start" x="477.75" y="-75.7" font-family="Helvetica,sans-Serif" font-size="9.00">user.ts</text>
</a>
</g>
</g>
<!-- src/reusables/state/external.ts&#45;&gt;src/reusables/state/internal/user.ts -->
<g id="edge26" class="edge">
<title>src/reusables/state/external.ts&#45;&gt;src/reusables/state/internal/user.ts</title>
<path fill="none" stroke="#000000" stroke-width="2" stroke-opacity="0.200000" d="M409.35,-131.51C415.41,-121.12 426.45,-104.63 440.25,-95 445.32,-91.46 451.22,-88.67 457.14,-86.48"/>
<polygon fill="#000000" fill-opacity="0.200000" stroke="#000000" stroke-width="2" stroke-opacity="0.200000" points="463.25,-86.65 456.9,-86.57 461.92,-82.67 463.25,-86.65"/>
</g>
<!-- src/reusables/logic/internal/dependent/http.ts -->
<g id="node14" class="node">
<title>src/reusables/logic/internal/dependent/http.ts</title>
<g id="a_node14"><a xlink:href="src/reusables/logic/internal/dependent/http.ts" xlink:title="http.ts">
<path fill="#ddfeff" stroke="black" d="M511.71,-315.25C511.71,-315.25 470.04,-315.25 470.04,-315.25 466.96,-315.25 463.88,-312.17 463.88,-309.08 463.88,-309.08 463.88,-302.92 463.88,-302.92 463.88,-299.83 466.96,-296.75 470.04,-296.75 470.04,-296.75 511.71,-296.75 511.71,-296.75 514.79,-296.75 517.88,-299.83 517.88,-302.92 517.88,-302.92 517.88,-309.08 517.88,-309.08 517.88,-312.17 514.79,-315.25 511.71,-315.25"/>
<text text-anchor="start" x="478.88" y="-302.7" font-family="Helvetica,sans-Serif" font-size="9.00">http.ts</text>
</a>
</g>
</g>
<!-- src/reusables/logic/external.ts&#45;&gt;src/reusables/logic/internal/dependent/http.ts -->
<g id="edge22" class="edge">
<title>src/reusables/logic/external.ts&#45;&gt;src/reusables/logic/internal/dependent/http.ts</title>
<path fill="none" stroke="#000000" stroke-width="2" stroke-opacity="0.200000" d="M410.05,-248.74C416.41,-258.71 427.41,-274.11 440.25,-284 445.35,-287.93 451.26,-291.33 457.18,-294.2"/>
<polygon fill="#000000" fill-opacity="0.200000" stroke="#000000" stroke-width="2" stroke-opacity="0.200000" points="461.8,-298.61 457.21,-294.21 463.54,-294.78 461.8,-298.61"/>
</g>
<!-- src/reusables/logic/internal/independent/decodeJwt.ts -->
<g id="node15" class="node">
<title>src/reusables/logic/internal/independent/decodeJwt.ts</title>
<g id="a_node15"><a xlink:href="src/reusables/logic/internal/independent/decodeJwt.ts" xlink:title="decodeJwt.ts">
<path fill="#ddfeff" stroke="black" d="M519.33,-254.25C519.33,-254.25 462.42,-254.25 462.42,-254.25 459.33,-254.25 456.25,-251.17 456.25,-248.08 456.25,-248.08 456.25,-241.92 456.25,-241.92 456.25,-238.83 459.33,-235.75 462.42,-235.75 462.42,-235.75 519.33,-235.75 519.33,-235.75 522.42,-235.75 525.5,-238.83 525.5,-241.92 525.5,-241.92 525.5,-248.08 525.5,-248.08 525.5,-251.17 522.42,-254.25 519.33,-254.25"/>
<text text-anchor="start" x="464.25" y="-241.7" font-family="Helvetica,sans-Serif" font-size="9.00">decodeJwt.ts</text>
</a>
</g>
</g>
<!-- src/reusables/logic/external.ts&#45;&gt;src/reusables/logic/internal/independent/decodeJwt.ts -->
<g id="edge23" class="edge">
<title>src/reusables/logic/external.ts&#45;&gt;src/reusables/logic/internal/independent/decodeJwt.ts</title>
<path fill="none" stroke="#000000" stroke-width="2" stroke-opacity="0.200000" d="M432.29,-240.96C437.57,-241.33 443.19,-241.73 448.78,-242.12"/>
<polygon fill="#000000" fill-opacity="0.200000" stroke="#000000" stroke-width="2" stroke-opacity="0.200000" points="454.65,-244.64 448.82,-242.12 454.95,-240.45 454.65,-244.64"/>
</g>
<!-- src/components/main.tsx -->
<g id="node12" class="node">
<title>src/components/main.tsx</title>
<g id="a_node12"><a xlink:href="src/components/main.tsx" xlink:title="main.tsx">
<path fill="#bbfeff" stroke="black" d="M71.83,-360.25C71.83,-360.25 30.17,-360.25 30.17,-360.25 27.08,-360.25 24,-357.17 24,-354.08 24,-354.08 24,-347.92 24,-347.92 24,-344.83 27.08,-341.75 30.17,-341.75 30.17,-341.75 71.83,-341.75 71.83,-341.75 74.92,-341.75 78,-344.83 78,-347.92 78,-347.92 78,-354.08 78,-354.08 78,-357.17 74.92,-360.25 71.83,-360.25"/>
<text text-anchor="start" x="34.12" y="-347.7" font-family="Helvetica,sans-Serif" font-size="9.00">main.tsx</text>
</a>
</g>
</g>
<!-- src/components/main.tsx&#45;&gt;src/components/App.tsx -->
<g id="edge21" class="edge">
<title>src/components/main.tsx&#45;&gt;src/components/App.tsx</title>
<path fill="none" stroke="#000000" stroke-width="2" stroke-opacity="0.200000" d="M53.17,-341.37C55.87,-322.61 64.11,-280.52 89.08,-249.16"/>
<polygon fill="#000000" fill-opacity="0.200000" stroke="#000000" stroke-width="2" stroke-opacity="0.200000" points="91.35,-250.57 93.66,-244.65 88.17,-247.84 91.35,-250.57"/>
</g>
<!-- src/styles.css -->
<g id="node13" class="node">
<title>src/styles.css</title>
<g id="a_node13"><a xlink:href="src/styles.css" xlink:title="styles.css">
<path fill="#ffffcc" stroke="black" d="M139.83,-532.25C139.83,-532.25 97.17,-532.25 97.17,-532.25 94.08,-532.25 91,-529.17 91,-526.08 91,-526.08 91,-519.92 91,-519.92 91,-516.83 94.08,-513.75 97.17,-513.75 97.17,-513.75 139.83,-513.75 139.83,-513.75 142.92,-513.75 146,-516.83 146,-519.92 146,-519.92 146,-526.08 146,-526.08 146,-529.17 142.92,-532.25 139.83,-532.25"/>
<text text-anchor="start" x="99" y="-519.7" font-family="Helvetica,sans-Serif" font-size="9.00">styles.css</text>
</a>
</g>
</g>
<!-- src/components/main.tsx&#45;&gt;src/styles.css -->
<g id="edge20" class="edge">
<title>src/components/main.tsx&#45;&gt;src/styles.css</title>
<path fill="none" stroke="#000000" stroke-width="2" stroke-opacity="0.200000" d="M51.78,-360.7C51.69,-386.13 54.54,-456.02 90.22,-506.44"/>
<polygon fill="#000000" fill-opacity="0.200000" stroke="#000000" stroke-width="2" stroke-opacity="0.200000" points="89.19,-507.89 94.48,-511.42 92.54,-505.36 89.19,-507.89"/>
</g>
</g>
</svg>
