<?xml version="1.0" encoding="UTF-8" standalone="no"?>
<!DOCTYPE svg PUBLIC "-//W3C//DTD SVG 1.1//EN"
 "http://www.w3.org/Graphics/SVG/1.1/DTD/svg11.dtd">
<!-- Generated by graphviz version 8.1.0 (20230707.0739)
 -->
<!-- Title: dependency&#45;cruiser output Pages: 1 -->
<svg width="506pt" height="405pt"
 viewBox="0.00 0.00 505.50 405.00" xmlns="http://www.w3.org/2000/svg" xmlns:xlink="http://www.w3.org/1999/xlink">
<g id="graph0" class="graph" transform="scale(1 1) rotate(0) translate(4 401)">
<title>dependency&#45;cruiser output</title>
<polygon fill="white" stroke="none" points="-4,4 -4,-401 501.5,-401 501.5,4 -4,4"/>
<g id="clust1" class="cluster">
<title>cluster_src</title>
<path fill="#ffffff" stroke="black" stroke-width="2" d="M20,-8C20,-8 477.5,-8 477.5,-8 483.5,-8 489.5,-14 489.5,-20 489.5,-20 489.5,-377 489.5,-377 489.5,-383 483.5,-389 477.5,-389 477.5,-389 20,-389 20,-389 14,-389 8,-383 8,-377 8,-377 8,-20 8,-20 8,-14 14,-8 20,-8"/>
<text text-anchor="middle" x="248.75" y="-376.45" font-family="Helvetica,sans-Serif" font-weight="bold" font-size="9.00">src</text>
</g>
<g id="clust2" class="cluster">
<title>cluster_src/components</title>
<path fill="#ffffff" stroke="black" stroke-width="2" d="M28,-76C28,-76 262.25,-76 262.25,-76 268.25,-76 274.25,-82 274.25,-88 274.25,-88 274.25,-209 274.25,-209 274.25,-215 268.25,-221 262.25,-221 262.25,-221 28,-221 28,-221 22,-221 16,-215 16,-209 16,-209 16,-88 16,-88 16,-82 22,-76 28,-76"/>
<text text-anchor="middle" x="145.12" y="-208.45" font-family="Helvetica,sans-Serif" font-weight="bold" font-size="9.00">components</text>
</g>
<g id="clust3" class="cluster">
<title>cluster_src/components/effects</title>
<path fill="#ffffff" stroke="black" stroke-width="2" d="M166,-110C166,-110 254.25,-110 254.25,-110 260.25,-110 266.25,-116 266.25,-122 266.25,-122 266.25,-182 266.25,-182 266.25,-188 260.25,-194 254.25,-194 254.25,-194 166,-194 166,-194 160,-194 154,-188 154,-182 154,-182 154,-122 154,-122 154,-116 160,-110 166,-110"/>
<text text-anchor="middle" x="210.12" y="-181.45" font-family="Helvetica,sans-Serif" font-weight="bold" font-size="9.00">effects</text>
</g>
<g id="clust4" class="cluster">
<title>cluster_src/reusables</title>
<path fill="#ffffff" stroke="black" stroke-width="2" d="M294.25,-16C294.25,-16 469.5,-16 469.5,-16 475.5,-16 481.5,-22 481.5,-28 481.5,-28 481.5,-350 481.5,-350 481.5,-356 475.5,-362 469.5,-362 469.5,-362 294.25,-362 294.25,-362 288.25,-362 282.25,-356 282.25,-350 282.25,-350 282.25,-28 282.25,-28 282.25,-22 288.25,-16 294.25,-16"/>
<text text-anchor="middle" x="381.88" y="-349.45" font-family="Helvetica,sans-Serif" font-weight="bold" font-size="9.00">reusables</text>
</g>
<g id="clust5" class="cluster">
<title>cluster_src/reusables/logic</title>
<path fill="#ffffff" stroke="black" stroke-width="2" d="M302.25,-151C302.25,-151 461.5,-151 461.5,-151 467.5,-151 473.5,-157 473.5,-163 473.5,-163 473.5,-323 473.5,-323 473.5,-329 467.5,-335 461.5,-335 461.5,-335 302.25,-335 302.25,-335 296.25,-335 290.25,-329 290.25,-323 290.25,-323 290.25,-163 290.25,-163 290.25,-157 296.25,-151 302.25,-151"/>
<text text-anchor="middle" x="381.88" y="-322.45" font-family="Helvetica,sans-Serif" font-weight="bold" font-size="9.00">logic</text>
</g>
<g id="clust6" class="cluster">
<title>cluster_src/reusables/logic/internal</title>
<path fill="#ffffff" stroke="black" stroke-width="2" d="M376.25,-159C376.25,-159 453.5,-159 453.5,-159 459.5,-159 465.5,-165 465.5,-171 465.5,-171 465.5,-296 465.5,-296 465.5,-302 459.5,-308 453.5,-308 453.5,-308 376.25,-308 376.25,-308 370.25,-308 364.25,-302 364.25,-296 364.25,-296 364.25,-171 364.25,-171 364.25,-165 370.25,-159 376.25,-159"/>
<text text-anchor="middle" x="414.88" y="-295.45" font-family="Helvetica,sans-Serif" font-weight="bold" font-size="9.00">internal</text>
</g>
<g id="clust7" class="cluster">
<title>cluster_src/reusables/logic/internal/dependent</title>
<path fill="#ffffff" stroke="black" stroke-width="2" d="M391.88,-228C391.88,-228 437.88,-228 437.88,-228 443.88,-228 449.88,-234 449.88,-240 449.88,-240 449.88,-269 449.88,-269 449.88,-275 443.88,-281 437.88,-281 437.88,-281 391.88,-281 391.88,-281 385.88,-281 379.88,-275 379.88,-269 379.88,-269 379.88,-240 379.88,-240 379.88,-234 385.88,-228 391.88,-228"/>
<text text-anchor="middle" x="414.88" y="-268.45" font-family="Helvetica,sans-Serif" font-weight="bold" font-size="9.00">dependent</text>
</g>
<g id="clust8" class="cluster">
<title>cluster_src/reusables/logic/internal/independent</title>
<path fill="#ffffff" stroke="black" stroke-width="2" d="M384.25,-167C384.25,-167 445.5,-167 445.5,-167 451.5,-167 457.5,-173 457.5,-179 457.5,-179 457.5,-208 457.5,-208 457.5,-214 451.5,-220 445.5,-220 445.5,-220 384.25,-220 384.25,-220 378.25,-220 372.25,-214 372.25,-208 372.25,-208 372.25,-179 372.25,-179 372.25,-173 378.25,-167 384.25,-167"/>
<text text-anchor="middle" x="414.88" y="-207.45" font-family="Helvetica,sans-Serif" font-weight="bold" font-size="9.00">independent</text>
</g>
<g id="clust9" class="cluster">
<title>cluster_src/reusables/state</title>
<path fill="#ffffff" stroke="black" stroke-width="2" d="M302.25,-24C302.25,-24 450.88,-24 450.88,-24 456.88,-24 462.88,-30 462.88,-36 462.88,-36 462.88,-131 462.88,-131 462.88,-137 456.88,-143 450.88,-143 450.88,-143 302.25,-143 302.25,-143 296.25,-143 290.25,-137 290.25,-131 290.25,-131 290.25,-36 290.25,-36 290.25,-30 296.25,-24 302.25,-24"/>
<text text-anchor="middle" x="376.56" y="-130.45" font-family="Helvetica,sans-Serif" font-weight="bold" font-size="9.00">state</text>
</g>
<g id="clust10" class="cluster">
<title>cluster_src/reusables/state/internal</title>
<path fill="#ffffff" stroke="black" stroke-width="2" d="M386.88,-32C386.88,-32 442.88,-32 442.88,-32 448.88,-32 454.88,-38 454.88,-44 454.88,-44 454.88,-104 454.88,-104 454.88,-110 448.88,-116 442.88,-116 442.88,-116 386.88,-116 386.88,-116 380.88,-116 374.88,-110 374.88,-104 374.88,-104 374.88,-44 374.88,-44 374.88,-38 380.88,-32 386.88,-32"/>
<text text-anchor="middle" x="414.88" y="-103.45" font-family="Helvetica,sans-Serif" font-weight="bold" font-size="9.00">internal</text>
</g>
<!-- src/components/App.tsx -->
<g id="node1" class="node">
<title>src/components/App.tsx</title>
<g id="a_node1"><a xlink:href="src/components/App.tsx" xlink:title="App.tsx">
<path fill="#bbfeff" stroke="black" d="M139.33,-150.25C139.33,-150.25 97.67,-150.25 97.67,-150.25 94.58,-150.25 91.5,-147.17 91.5,-144.08 91.5,-144.08 91.5,-137.92 91.5,-137.92 91.5,-134.83 94.58,-131.75 97.67,-131.75 97.67,-131.75 139.33,-131.75 139.33,-131.75 142.42,-131.75 145.5,-134.83 145.5,-137.92 145.5,-137.92 145.5,-144.08 145.5,-144.08 145.5,-147.17 142.42,-150.25 139.33,-150.25"/>
<text text-anchor="start" x="103.5" y="-137.7" font-family="Helvetica,sans-Serif" font-size="9.00">App.tsx</text>
</a>
</g>
</g>
<!-- src/components/DataDisplay.tsx -->
<g id="node2" class="node">
<title>src/components/DataDisplay.tsx</title>
<g id="a_node2"><a xlink:href="src/components/DataDisplay.tsx" xlink:title="DataDisplay.tsx">
<path fill="#bbfeff" stroke="black" d="M243.46,-102.25C243.46,-102.25 176.79,-102.25 176.79,-102.25 173.71,-102.25 170.62,-99.17 170.62,-96.08 170.62,-96.08 170.62,-89.92 170.62,-89.92 170.62,-86.83 173.71,-83.75 176.79,-83.75 176.79,-83.75 243.46,-83.75 243.46,-83.75 246.54,-83.75 249.62,-86.83 249.62,-89.92 249.62,-89.92 249.62,-96.08 249.62,-96.08 249.62,-99.17 246.54,-102.25 243.46,-102.25"/>
<text text-anchor="start" x="178.62" y="-89.7" font-family="Helvetica,sans-Serif" font-size="9.00">DataDisplay.tsx</text>
</a>
</g>
</g>
<!-- src/components/App.tsx&#45;&gt;src/components/DataDisplay.tsx -->
<g id="edge1" class="edge">
<title>src/components/App.tsx&#45;&gt;src/components/DataDisplay.tsx</title>
<path fill="none" stroke="#000000" stroke-width="2" stroke-opacity="0.200000" d="M126.7,-131.53C133.06,-123.8 143.01,-113.2 154,-107 156.49,-105.59 159.13,-104.33 161.85,-103.18"/>
<polygon fill="#000000" fill-opacity="0.200000" stroke="#000000" stroke-width="2" stroke-opacity="0.200000" points="163.26,-105.17 168.16,-101.12 161.8,-101.23 163.26,-105.17"/>
</g>
<!-- src/components/effects/NavigationEffect.tsx -->
<g id="node3" class="node">
<title>src/components/effects/NavigationEffect.tsx</title>
<g id="a_node3"><a xlink:href="src/components/effects/NavigationEffect.tsx" xlink:title="NavigationEffect.tsx">
<path fill="#bbfeff" stroke="black" d="M252.08,-136.25C252.08,-136.25 168.17,-136.25 168.17,-136.25 165.08,-136.25 162,-133.17 162,-130.08 162,-130.08 162,-123.92 162,-123.92 162,-120.83 165.08,-117.75 168.17,-117.75 168.17,-117.75 252.08,-117.75 252.08,-117.75 255.17,-117.75 258.25,-120.83 258.25,-123.92 258.25,-123.92 258.25,-130.08 258.25,-130.08 258.25,-133.17 255.17,-136.25 252.08,-136.25"/>
<text text-anchor="start" x="170" y="-123.7" font-family="Helvetica,sans-Serif" font-size="9.00">NavigationEffect.tsx</text>
</a>
</g>
</g>
<!-- src/components/App.tsx&#45;&gt;src/components/effects/NavigationEffect.tsx -->
<g id="edge2" class="edge">
<title>src/components/App.tsx&#45;&gt;src/components/effects/NavigationEffect.tsx</title>
<path fill="none" stroke="#000000" stroke-width="2" stroke-opacity="0.200000" d="M145.91,-136.88C148.23,-136.51 150.63,-136.14 153.08,-135.75"/>
<polygon fill="#000000" fill-opacity="0.200000" stroke="#000000" stroke-width="2" stroke-opacity="0.200000" points="153.95,-137.43 159.56,-134.43 153.3,-133.28 153.95,-137.43"/>
</g>
<!-- src/components/effects/setupHttpClient.tsx -->
<g id="node4" class="node">
<title>src/components/effects/setupHttpClient.tsx</title>
<g id="a_node4"><a xlink:href="src/components/effects/setupHttpClient.tsx" xlink:title="setupHttpClient.tsx">
<path fill="#bbfeff" stroke="black" d="M250.21,-167.25C250.21,-167.25 170.04,-167.25 170.04,-167.25 166.96,-167.25 163.88,-164.17 163.88,-161.08 163.88,-161.08 163.88,-154.92 163.88,-154.92 163.88,-151.83 166.96,-148.75 170.04,-148.75 170.04,-148.75 250.21,-148.75 250.21,-148.75 253.29,-148.75 256.38,-151.83 256.38,-154.92 256.38,-154.92 256.38,-161.08 256.38,-161.08 256.38,-164.17 253.29,-167.25 250.21,-167.25"/>
<text text-anchor="start" x="171.88" y="-154.7" font-family="Helvetica,sans-Serif" font-size="9.00">setupHttpClient.tsx</text>
</a>
</g>
</g>
<!-- src/components/App.tsx&#45;&gt;src/components/effects/setupHttpClient.tsx -->
<g id="edge3" class="edge">
<title>src/components/App.tsx&#45;&gt;src/components/effects/setupHttpClient.tsx</title>
<path fill="none" stroke="#000000" stroke-width="2" stroke-opacity="0.200000" d="M145.91,-146.01C148.78,-146.55 151.78,-147.12 154.84,-147.7"/>
<polygon fill="#000000" fill-opacity="0.200000" stroke="#000000" stroke-width="2" stroke-opacity="0.200000" points="155.29,-150.3 161.57,-149.36 156.07,-146.18 155.29,-150.3"/>
</g>
<!-- src/reusables/state/external.ts -->
<g id="node5" class="node">
<title>src/reusables/state/external.ts</title>
<g id="a_node5"><a xlink:href="src/reusables/state/external.ts" xlink:title="external.ts">
<path fill="#ddfeff" stroke="black" d="M350.08,-102.25C350.08,-102.25 304.42,-102.25 304.42,-102.25 301.33,-102.25 298.25,-99.17 298.25,-96.08 298.25,-96.08 298.25,-89.92 298.25,-89.92 298.25,-86.83 301.33,-83.75 304.42,-83.75 304.42,-83.75 350.08,-83.75 350.08,-83.75 353.17,-83.75 356.25,-86.83 356.25,-89.92 356.25,-89.92 356.25,-96.08 356.25,-96.08 356.25,-99.17 353.17,-102.25 350.08,-102.25"/>
<text text-anchor="start" x="306.25" y="-89.7" font-family="Helvetica,sans-Serif" font-size="9.00">external.ts</text>
</a>
</g>
</g>
<!-- src/components/DataDisplay.tsx&#45;&gt;src/reusables/state/external.ts -->
<g id="edge4" class="edge">
<title>src/components/DataDisplay.tsx&#45;&gt;src/reusables/state/external.ts</title>
<path fill="none" stroke="#000000" stroke-width="2" stroke-opacity="0.200000" d="M250.1,-93C262.7,-93 276.63,-93 289.09,-93"/>
<polygon fill="#000000" fill-opacity="0.200000" stroke="#000000" stroke-width="2" stroke-opacity="0.200000" points="288.87,-95.1 294.87,-93 288.87,-90.9 288.87,-95.1"/>
</g>
<!-- src/components/effects/NavigationEffect.tsx&#45;&gt;src/reusables/state/external.ts -->
<g id="edge6" class="edge">
<title>src/components/effects/NavigationEffect.tsx&#45;&gt;src/reusables/state/external.ts</title>
<path fill="none" stroke="#000000" stroke-width="2" stroke-opacity="0.200000" d="M258.58,-118.2C263.9,-116.92 269.22,-115.52 274.25,-114 281.62,-111.77 289.4,-108.92 296.63,-106.04"/>
<polygon fill="#000000" fill-opacity="0.200000" stroke="#000000" stroke-width="2" stroke-opacity="0.200000" points="298.05,-107.9 302.81,-103.68 296.46,-104.01 298.05,-107.9"/>
</g>
<!-- src/reusables/logic/external.ts -->
<g id="node6" class="node">
<title>src/reusables/logic/external.ts</title>
<g id="a_node6"><a xlink:href="src/reusables/logic/external.ts" xlink:title="external.ts">
<path fill="#ddfeff" stroke="black" d="M350.08,-185.25C350.08,-185.25 304.42,-185.25 304.42,-185.25 301.33,-185.25 298.25,-182.17 298.25,-179.08 298.25,-179.08 298.25,-172.92 298.25,-172.92 298.25,-169.83 301.33,-166.75 304.42,-166.75 304.42,-166.75 350.08,-166.75 350.08,-166.75 353.17,-166.75 356.25,-169.83 356.25,-172.92 356.25,-172.92 356.25,-179.08 356.25,-179.08 356.25,-182.17 353.17,-185.25 350.08,-185.25"/>
<text text-anchor="start" x="306.25" y="-172.7" font-family="Helvetica,sans-Serif" font-size="9.00">external.ts</text>
</a>
</g>
</g>
<!-- src/components/effects/NavigationEffect.tsx&#45;&gt;src/reusables/logic/external.ts -->
<g id="edge5" class="edge">
<title>src/components/effects/NavigationEffect.tsx&#45;&gt;src/reusables/logic/external.ts</title>
<path fill="none" stroke="#000000" stroke-width="2" stroke-opacity="0.200000" d="M256.54,-136.65C262.59,-138.48 268.64,-140.58 274.25,-143 285.45,-147.83 296.99,-154.9 306.35,-161.27"/>
<polygon fill="#000000" fill-opacity="0.200000" stroke="#000000" stroke-width="2" stroke-opacity="0.200000" points="305.52,-163.65 311.64,-165.38 307.93,-160.21 305.52,-163.65"/>
</g>
<!-- src/components/effects/setupHttpClient.tsx&#45;&gt;src/reusables/state/external.ts -->
<g id="edge8" class="edge">
<title>src/components/effects/setupHttpClient.tsx&#45;&gt;src/reusables/state/external.ts</title>
<path fill="none" stroke="#000000" stroke-width="2" stroke-opacity="0.200000" d="M256.68,-149.43C262.78,-147.44 268.8,-144.99 274.25,-142 289.41,-133.68 303.49,-119.88 313.16,-109.05"/>
<polygon fill="#000000" fill-opacity="0.200000" stroke="#000000" stroke-width="2" stroke-opacity="0.200000" points="315.52,-110.36 317.85,-104.44 312.34,-107.62 315.52,-110.36"/>
</g>
<!-- src/reusables/logic/internal/dependent/http.ts -->
<g id="node7" class="node">
<title>src/reusables/logic/internal/dependent/http.ts</title>
<g id="a_node7"><a xlink:href="src/reusables/logic/internal/dependent/http.ts" xlink:title="http.ts">
<path fill="#ddfeff" stroke="black" d="M435.71,-254.25C435.71,-254.25 394.04,-254.25 394.04,-254.25 390.96,-254.25 387.88,-251.17 387.88,-248.08 387.88,-248.08 387.88,-241.92 387.88,-241.92 387.88,-238.83 390.96,-235.75 394.04,-235.75 394.04,-235.75 435.71,-235.75 435.71,-235.75 438.79,-235.75 441.88,-238.83 441.88,-241.92 441.88,-241.92 441.88,-248.08 441.88,-248.08 441.88,-251.17 438.79,-254.25 435.71,-254.25"/>
<text text-anchor="start" x="402.88" y="-241.7" font-family="Helvetica,sans-Serif" font-size="9.00">http.ts</text>
</a>
</g>
</g>
<!-- src/components/effects/setupHttpClient.tsx&#45;&gt;src/reusables/logic/internal/dependent/http.ts -->
<g id="edge7" class="edge">
<title>src/components/effects/setupHttpClient.tsx&#45;&gt;src/reusables/logic/internal/dependent/http.ts</title>
<path fill="none" stroke="#000000" stroke-width="2" stroke-opacity="0.200000" d="M219.8,-167.43C232.31,-180.43 256.72,-203.65 282.25,-216 312.91,-230.83 351.25,-238.17 378.63,-241.74"/>
<polygon fill="#000000" fill-opacity="0.200000" stroke="#000000" stroke-width="2" stroke-opacity="0.200000" points="378.26,-244.18 384.47,-242.82 378.77,-240.01 378.26,-244.18"/>
</g>
<!-- src/reusables/state/internal/jwtAtom.ts -->
<g id="node11" class="node">
<title>src/reusables/state/internal/jwtAtom.ts</title>
<g id="a_node11"><a xlink:href="src/reusables/state/internal/jwtAtom.ts" xlink:title="jwtAtom.ts">
<path fill="#ddfeff" stroke="black" d="M437.33,-89.25C437.33,-89.25 392.42,-89.25 392.42,-89.25 389.33,-89.25 386.25,-86.17 386.25,-83.08 386.25,-83.08 386.25,-76.92 386.25,-76.92 386.25,-73.83 389.33,-70.75 392.42,-70.75 392.42,-70.75 437.33,-70.75 437.33,-70.75 440.42,-70.75 443.5,-73.83 443.5,-76.92 443.5,-76.92 443.5,-83.08 443.5,-83.08 443.5,-86.17 440.42,-89.25 437.33,-89.25"/>
<text text-anchor="start" x="394.25" y="-76.7" font-family="Helvetica,sans-Serif" font-size="9.00">jwtAtom.ts</text>
</a>
</g>
</g>
<!-- src/reusables/state/external.ts&#45;&gt;src/reusables/state/internal/jwtAtom.ts -->
<g id="edge12" class="edge">
<title>src/reusables/state/external.ts&#45;&gt;src/reusables/state/internal/jwtAtom.ts</title>
<path fill="none" stroke="#000000" stroke-width="2" stroke-opacity="0.200000" d="M356.29,-88.74C363.53,-87.64 371.42,-86.45 378.97,-85.3"/>
<polygon fill="#000000" fill-opacity="0.200000" stroke="#000000" stroke-width="2" stroke-opacity="0.200000" points="385.1,-86.49 378.85,-85.32 384.47,-82.34 385.1,-86.49"/>
</g>
<!-- src/reusables/state/internal/userAtom.ts -->
<g id="node12" class="node">
<title>src/reusables/state/internal/userAtom.ts</title>
<g id="a_node12"><a xlink:href="src/reusables/state/internal/userAtom.ts" xlink:title="userAtom.ts">
<path fill="#ddfeff" stroke="black" d="M440.71,-58.25C440.71,-58.25 389.04,-58.25 389.04,-58.25 385.96,-58.25 382.88,-55.17 382.88,-52.08 382.88,-52.08 382.88,-45.92 382.88,-45.92 382.88,-42.83 385.96,-39.75 389.04,-39.75 389.04,-39.75 440.71,-39.75 440.71,-39.75 443.79,-39.75 446.88,-42.83 446.88,-45.92 446.88,-45.92 446.88,-52.08 446.88,-52.08 446.88,-55.17 443.79,-58.25 440.71,-58.25"/>
<text text-anchor="start" x="390.88" y="-45.7" font-family="Helvetica,sans-Serif" font-size="9.00">userAtom.ts</text>
</a>
</g>
</g>
<!-- src/reusables/state/external.ts&#45;&gt;src/reusables/state/internal/userAtom.ts -->
<g id="edge13" class="edge">
<title>src/reusables/state/external.ts&#45;&gt;src/reusables/state/internal/userAtom.ts</title>
<path fill="none" stroke="#000000" stroke-width="2" stroke-opacity="0.200000" d="M338.59,-83.36C345.45,-77.4 354.87,-69.96 364.25,-65 367.98,-63.03 371.99,-61.24 376.07,-59.64"/>
<polygon fill="#000000" fill-opacity="0.200000" stroke="#000000" stroke-width="2" stroke-opacity="0.200000" points="382.27,-59.6 375.92,-59.7 380.82,-55.66 382.27,-59.6"/>
</g>
<!-- src/reusables/logic/internal/independent/decodeJwt.ts -->
<g id="node10" class="node">
<title>src/reusables/logic/internal/independent/decodeJwt.ts</title>
<g id="a_node10"><a xlink:href="src/reusables/logic/internal/independent/decodeJwt.ts" xlink:title="decodeJwt.ts">
<path fill="#ddfeff" stroke="black" d="M443.33,-193.25C443.33,-193.25 386.42,-193.25 386.42,-193.25 383.33,-193.25 380.25,-190.17 380.25,-187.08 380.25,-187.08 380.25,-180.92 380.25,-180.92 380.25,-177.83 383.33,-174.75 386.42,-174.75 386.42,-174.75 443.33,-174.75 443.33,-174.75 446.42,-174.75 449.5,-177.83 449.5,-180.92 449.5,-180.92 449.5,-187.08 449.5,-187.08 449.5,-190.17 446.42,-193.25 443.33,-193.25"/>
<text text-anchor="start" x="388.25" y="-180.7" font-family="Helvetica,sans-Serif" font-size="9.00">decodeJwt.ts</text>
</a>
</g>
</g>
<!-- src/reusables/logic/external.ts&#45;&gt;src/reusables/logic/internal/independent/decodeJwt.ts -->
<g id="edge11" class="edge">
<title>src/reusables/logic/external.ts&#45;&gt;src/reusables/logic/internal/independent/decodeJwt.ts</title>
<path fill="none" stroke="#000000" stroke-width="2" stroke-opacity="0.200000" d="M356.29,-178.62C361.57,-179.11 367.19,-179.64 372.78,-180.16"/>
<polygon fill="#000000" fill-opacity="0.200000" stroke="#000000" stroke-width="2" stroke-opacity="0.200000" points="378.61,-182.81 372.83,-180.17 379,-178.63 378.61,-182.81"/>
</g>
<!-- src/components/main.tsx -->
<g id="node8" class="node">
<title>src/components/main.tsx</title>
<g id="a_node8"><a xlink:href="src/components/main.tsx" xlink:title="main.tsx">
<path fill="#bbfeff" stroke="black" d="M71.83,-179.25C71.83,-179.25 30.17,-179.25 30.17,-179.25 27.08,-179.25 24,-176.17 24,-173.08 24,-173.08 24,-166.92 24,-166.92 24,-163.83 27.08,-160.75 30.17,-160.75 30.17,-160.75 71.83,-160.75 71.83,-160.75 74.92,-160.75 78,-163.83 78,-166.92 78,-166.92 78,-173.08 78,-173.08 78,-176.17 74.92,-179.25 71.83,-179.25"/>
<text text-anchor="start" x="34.12" y="-166.7" font-family="Helvetica,sans-Serif" font-size="9.00">main.tsx</text>
</a>
</g>
</g>
<!-- src/components/main.tsx&#45;&gt;src/components/App.tsx -->
<g id="edge10" class="edge">
<title>src/components/main.tsx&#45;&gt;src/components/App.tsx</title>
<path fill="none" stroke="#000000" stroke-width="2" stroke-opacity="0.200000" d="M73.81,-160.34C78.18,-158.41 82.85,-156.34 87.45,-154.31"/>
<polygon fill="#000000" fill-opacity="0.200000" stroke="#000000" stroke-width="2" stroke-opacity="0.200000" points="88.93,-156.06 93.56,-151.71 87.22,-152.22 88.93,-156.06"/>
</g>
<!-- src/styles.css -->
<g id="node9" class="node">
<title>src/styles.css</title>
<g id="a_node9"><a xlink:href="src/styles.css" xlink:title="styles.css">
<path fill="#ffffcc" stroke="black" d="M139.83,-247.25C139.83,-247.25 97.17,-247.25 97.17,-247.25 94.08,-247.25 91,-244.17 91,-241.08 91,-241.08 91,-234.92 91,-234.92 91,-231.83 94.08,-228.75 97.17,-228.75 97.17,-228.75 139.83,-228.75 139.83,-228.75 142.92,-228.75 146,-231.83 146,-234.92 146,-234.92 146,-241.08 146,-241.08 146,-244.17 142.92,-247.25 139.83,-247.25"/>
<text text-anchor="start" x="99" y="-234.7" font-family="Helvetica,sans-Serif" font-size="9.00">styles.css</text>
</a>
</g>
</g>
<!-- src/components/main.tsx&#45;&gt;src/styles.css -->
<g id="edge9" class="edge">
<title>src/components/main.tsx&#45;&gt;src/styles.css</title>
<path fill="none" stroke="#000000" stroke-width="2" stroke-opacity="0.200000" d="M56.99,-179.41C62.83,-189.78 73.34,-206.7 90.34,-222.57"/>
<polygon fill="#000000" fill-opacity="0.200000" stroke="#000000" stroke-width="2" stroke-opacity="0.200000" points="89.02,-223.97 94.91,-226.36 91.8,-220.82 89.02,-223.97"/>
</g>
</g>
</svg>
