<?xml version="1.0" encoding="UTF-8" standalone="no"?>
<!DOCTYPE svg PUBLIC "-//W3C//DTD SVG 1.1//EN"
 "http://www.w3.org/Graphics/SVG/1.1/DTD/svg11.dtd">
<!-- Generated by graphviz version 8.1.0 (20230707.0739)
 -->
<!-- Title: dependency&#45;cruiser output Pages: 1 -->
<svg width="582pt" height="405pt"
 viewBox="0.00 0.00 581.50 405.00" xmlns="http://www.w3.org/2000/svg" xmlns:xlink="http://www.w3.org/1999/xlink">
<g id="graph0" class="graph" transform="scale(1 1) rotate(0) translate(4 401)">
<title>dependency&#45;cruiser output</title>
<polygon fill="white" stroke="none" points="-4,4 -4,-401 577.5,-401 577.5,4 -4,4"/>
<g id="clust1" class="cluster">
<title>cluster_src</title>
<path fill="#ffffff" stroke="black" stroke-width="2" d="M20,-8C20,-8 553.5,-8 553.5,-8 559.5,-8 565.5,-14 565.5,-20 565.5,-20 565.5,-377 565.5,-377 565.5,-383 559.5,-389 553.5,-389 553.5,-389 20,-389 20,-389 14,-389 8,-383 8,-377 8,-377 8,-20 8,-20 8,-14 14,-8 20,-8"/>
<text text-anchor="middle" x="286.75" y="-376.45" font-family="Helvetica,sans-Serif" font-weight="bold" font-size="9.00">src</text>
</g>
<g id="clust2" class="cluster">
<title>cluster_src/components</title>
<path fill="#ffffff" stroke="black" stroke-width="2" d="M28,-29C28,-29 338.25,-29 338.25,-29 344.25,-29 350.25,-35 350.25,-41 350.25,-41 350.25,-324 350.25,-324 350.25,-330 344.25,-336 338.25,-336 338.25,-336 28,-336 28,-336 22,-336 16,-330 16,-324 16,-324 16,-41 16,-41 16,-35 22,-29 28,-29"/>
<text text-anchor="middle" x="183.12" y="-323.45" font-family="Helvetica,sans-Serif" font-weight="bold" font-size="9.00">components</text>
</g>
<g id="clust3" class="cluster">
<title>cluster_src/components/Routes</title>
<path fill="#ffffff" stroke="black" stroke-width="2" d="M225.12,-225C225.12,-225 271.12,-225 271.12,-225 277.12,-225 283.12,-231 283.12,-237 283.12,-237 283.12,-297 283.12,-297 283.12,-303 277.12,-309 271.12,-309 271.12,-309 225.12,-309 225.12,-309 219.12,-309 213.12,-303 213.12,-297 213.12,-297 213.12,-237 213.12,-237 213.12,-231 219.12,-225 225.12,-225"/>
<text text-anchor="middle" x="248.12" y="-296.45" font-family="Helvetica,sans-Serif" font-weight="bold" font-size="9.00">Routes</text>
</g>
<g id="clust4" class="cluster">
<title>cluster_src/components/effects</title>
<path fill="#ffffff" stroke="black" stroke-width="2" d="M166,-37C166,-37 330.25,-37 330.25,-37 336.25,-37 342.25,-43 342.25,-49 342.25,-49 342.25,-205 342.25,-205 342.25,-211 336.25,-217 330.25,-217 330.25,-217 166,-217 166,-217 160,-217 154,-211 154,-205 154,-205 154,-49 154,-49 154,-43 160,-37 166,-37"/>
<text text-anchor="middle" x="248.12" y="-204.45" font-family="Helvetica,sans-Serif" font-weight="bold" font-size="9.00">effects</text>
</g>
<g id="clust5" class="cluster">
<title>cluster_src/components/effects/CommunicationEffects</title>
<path fill="#ffffff" stroke="black" stroke-width="2" d="M183.38,-106C183.38,-106 312.88,-106 312.88,-106 318.88,-106 324.88,-112 324.88,-118 324.88,-118 324.88,-178 324.88,-178 324.88,-184 318.88,-190 312.88,-190 312.88,-190 183.38,-190 183.38,-190 177.38,-190 171.38,-184 171.38,-178 171.38,-178 171.38,-118 171.38,-118 171.38,-112 177.38,-106 183.38,-106"/>
<text text-anchor="middle" x="248.12" y="-177.45" font-family="Helvetica,sans-Serif" font-weight="bold" font-size="9.00">CommunicationEffects</text>
</g>
<g id="clust6" class="cluster">
<title>cluster_src/components/effects/NavigationEffects</title>
<path fill="#ffffff" stroke="black" stroke-width="2" d="M174,-45C174,-45 322.25,-45 322.25,-45 328.25,-45 334.25,-51 334.25,-57 334.25,-57 334.25,-86 334.25,-86 334.25,-92 328.25,-98 322.25,-98 322.25,-98 174,-98 174,-98 168,-98 162,-92 162,-86 162,-86 162,-57 162,-57 162,-51 168,-45 174,-45"/>
<text text-anchor="middle" x="248.12" y="-85.45" font-family="Helvetica,sans-Serif" font-weight="bold" font-size="9.00">NavigationEffects</text>
</g>
<g id="clust7" class="cluster">
<title>cluster_src/reusables</title>
<path fill="#ffffff" stroke="black" stroke-width="2" d="M370.25,-16C370.25,-16 545.5,-16 545.5,-16 551.5,-16 557.5,-22 557.5,-28 557.5,-28 557.5,-350 557.5,-350 557.5,-356 551.5,-362 545.5,-362 545.5,-362 370.25,-362 370.25,-362 364.25,-362 358.25,-356 358.25,-350 358.25,-350 358.25,-28 358.25,-28 358.25,-22 364.25,-16 370.25,-16"/>
<text text-anchor="middle" x="457.88" y="-349.45" font-family="Helvetica,sans-Serif" font-weight="bold" font-size="9.00">reusables</text>
</g>
<g id="clust8" class="cluster">
<title>cluster_src/reusables/logic</title>
<path fill="#ffffff" stroke="black" stroke-width="2" d="M378.25,-151C378.25,-151 537.5,-151 537.5,-151 543.5,-151 549.5,-157 549.5,-163 549.5,-163 549.5,-323 549.5,-323 549.5,-329 543.5,-335 537.5,-335 537.5,-335 378.25,-335 378.25,-335 372.25,-335 366.25,-329 366.25,-323 366.25,-323 366.25,-163 366.25,-163 366.25,-157 372.25,-151 378.25,-151"/>
<text text-anchor="middle" x="457.88" y="-322.45" font-family="Helvetica,sans-Serif" font-weight="bold" font-size="9.00">logic</text>
</g>
<g id="clust9" class="cluster">
<title>cluster_src/reusables/logic/internal</title>
<path fill="#ffffff" stroke="black" stroke-width="2" d="M452.25,-159C452.25,-159 529.5,-159 529.5,-159 535.5,-159 541.5,-165 541.5,-171 541.5,-171 541.5,-296 541.5,-296 541.5,-302 535.5,-308 529.5,-308 529.5,-308 452.25,-308 452.25,-308 446.25,-308 440.25,-302 440.25,-296 440.25,-296 440.25,-171 440.25,-171 440.25,-165 446.25,-159 452.25,-159"/>
<text text-anchor="middle" x="490.88" y="-295.45" font-family="Helvetica,sans-Serif" font-weight="bold" font-size="9.00">internal</text>
</g>
<g id="clust10" class="cluster">
<title>cluster_src/reusables/logic/internal/dependent</title>
<path fill="#ffffff" stroke="black" stroke-width="2" d="M467.88,-228C467.88,-228 513.88,-228 513.88,-228 519.88,-228 525.88,-234 525.88,-240 525.88,-240 525.88,-269 525.88,-269 525.88,-275 519.88,-281 513.88,-281 513.88,-281 467.88,-281 467.88,-281 461.88,-281 455.88,-275 455.88,-269 455.88,-269 455.88,-240 455.88,-240 455.88,-234 461.88,-228 467.88,-228"/>
<text text-anchor="middle" x="490.88" y="-268.45" font-family="Helvetica,sans-Serif" font-weight="bold" font-size="9.00">dependent</text>
</g>
<g id="clust11" class="cluster">
<title>cluster_src/reusables/logic/internal/independent</title>
<path fill="#ffffff" stroke="black" stroke-width="2" d="M460.25,-167C460.25,-167 521.5,-167 521.5,-167 527.5,-167 533.5,-173 533.5,-179 533.5,-179 533.5,-208 533.5,-208 533.5,-214 527.5,-220 521.5,-220 521.5,-220 460.25,-220 460.25,-220 454.25,-220 448.25,-214 448.25,-208 448.25,-208 448.25,-179 448.25,-179 448.25,-173 454.25,-167 460.25,-167"/>
<text text-anchor="middle" x="490.88" y="-207.45" font-family="Helvetica,sans-Serif" font-weight="bold" font-size="9.00">independent</text>
</g>
<g id="clust12" class="cluster">
<title>cluster_src/reusables/state</title>
<path fill="#ffffff" stroke="black" stroke-width="2" d="M378.25,-24C378.25,-24 523.5,-24 523.5,-24 529.5,-24 535.5,-30 535.5,-36 535.5,-36 535.5,-131 535.5,-131 535.5,-137 529.5,-143 523.5,-143 523.5,-143 378.25,-143 378.25,-143 372.25,-143 366.25,-137 366.25,-131 366.25,-131 366.25,-36 366.25,-36 366.25,-30 372.25,-24 378.25,-24"/>
<text text-anchor="middle" x="450.88" y="-130.45" font-family="Helvetica,sans-Serif" font-weight="bold" font-size="9.00">state</text>
</g>
<g id="clust13" class="cluster">
<title>cluster_src/reusables/state/internal</title>
<path fill="#ffffff" stroke="black" stroke-width="2" d="M466.25,-32C466.25,-32 515.5,-32 515.5,-32 521.5,-32 527.5,-38 527.5,-44 527.5,-44 527.5,-104 527.5,-104 527.5,-110 521.5,-116 515.5,-116 515.5,-116 466.25,-116 466.25,-116 460.25,-116 454.25,-110 454.25,-104 454.25,-104 454.25,-44 454.25,-44 454.25,-38 460.25,-32 466.25,-32"/>
<text text-anchor="middle" x="490.88" y="-103.45" font-family="Helvetica,sans-Serif" font-weight="bold" font-size="9.00">internal</text>
</g>
<!-- src/components/App.tsx -->
<g id="node1" class="node">
<title>src/components/App.tsx</title>
<g id="a_node1"><a xlink:href="src/components/App.tsx" xlink:title="App.tsx">
<path fill="#bbfeff" stroke="black" d="M139.33,-199.25C139.33,-199.25 97.67,-199.25 97.67,-199.25 94.58,-199.25 91.5,-196.17 91.5,-193.08 91.5,-193.08 91.5,-186.92 91.5,-186.92 91.5,-183.83 94.58,-180.75 97.67,-180.75 97.67,-180.75 139.33,-180.75 139.33,-180.75 142.42,-180.75 145.5,-183.83 145.5,-186.92 145.5,-186.92 145.5,-193.08 145.5,-193.08 145.5,-196.17 142.42,-199.25 139.33,-199.25"/>
<text text-anchor="start" x="103.5" y="-186.7" font-family="Helvetica,sans-Serif" font-size="9.00">App.tsx</text>
</a>
</g>
</g>
<!-- src/components/effects/CommunicationEffects/HttpErrorInterceptor.tsx -->
<g id="node2" class="node">
<title>src/components/effects/CommunicationEffects/HttpErrorInterceptor.tsx</title>
<g id="a_node2"><a xlink:href="src/components/effects/CommunicationEffects/HttpErrorInterceptor.tsx" xlink:title="HttpErrorInterceptor.tsx">
<path fill="#bbfeff" stroke="black" d="M296.46,-163.25C296.46,-163.25 199.79,-163.25 199.79,-163.25 196.71,-163.25 193.62,-160.17 193.62,-157.08 193.62,-157.08 193.62,-150.92 193.62,-150.92 193.62,-147.83 196.71,-144.75 199.79,-144.75 199.79,-144.75 296.46,-144.75 296.46,-144.75 299.54,-144.75 302.62,-147.83 302.62,-150.92 302.62,-150.92 302.62,-157.08 302.62,-157.08 302.62,-160.17 299.54,-163.25 296.46,-163.25"/>
<text text-anchor="start" x="201.62" y="-150.7" font-family="Helvetica,sans-Serif" font-size="9.00">HttpErrorInterceptor.tsx</text>
</a>
</g>
</g>
<!-- src/components/App.tsx&#45;&gt;src/components/effects/CommunicationEffects/HttpErrorInterceptor.tsx -->
<g id="edge1" class="edge">
<title>src/components/App.tsx&#45;&gt;src/components/effects/CommunicationEffects/HttpErrorInterceptor.tsx</title>
<path fill="none" stroke="#000000" stroke-width="2" stroke-opacity="0.200000" d="M145.94,-182.54C162.79,-177.79 184.99,-171.53 204.31,-166.08"/>
<polygon fill="#000000" fill-opacity="0.200000" stroke="#000000" stroke-width="2" stroke-opacity="0.200000" points="205.74,-167.29 210.95,-163.64 204.6,-163.25 205.74,-167.29"/>
</g>
<!-- src/components/effects/CommunicationEffects/HttpTokenSetterInterceptor.tsx -->
<g id="node3" class="node">
<title>src/components/effects/CommunicationEffects/HttpTokenSetterInterceptor.tsx</title>
<g id="a_node3"><a xlink:href="src/components/effects/CommunicationEffects/HttpTokenSetterInterceptor.tsx" xlink:title="HttpTokenSetterInterceptor.tsx">
<path fill="#bbfeff" stroke="black" d="M310.71,-132.25C310.71,-132.25 185.54,-132.25 185.54,-132.25 182.46,-132.25 179.38,-129.17 179.38,-126.08 179.38,-126.08 179.38,-119.92 179.38,-119.92 179.38,-116.83 182.46,-113.75 185.54,-113.75 185.54,-113.75 310.71,-113.75 310.71,-113.75 313.79,-113.75 316.88,-116.83 316.88,-119.92 316.88,-119.92 316.88,-126.08 316.88,-126.08 316.88,-129.17 313.79,-132.25 310.71,-132.25"/>
<text text-anchor="start" x="187.38" y="-119.7" font-family="Helvetica,sans-Serif" font-size="9.00">HttpTokenSetterInterceptor.tsx</text>
</a>
</g>
</g>
<!-- src/components/App.tsx&#45;&gt;src/components/effects/CommunicationEffects/HttpTokenSetterInterceptor.tsx -->
<g id="edge2" class="edge">
<title>src/components/App.tsx&#45;&gt;src/components/effects/CommunicationEffects/HttpTokenSetterInterceptor.tsx</title>
<path fill="none" stroke="#000000" stroke-width="2" stroke-opacity="0.200000" d="M123.22,-180.35C128.29,-168.56 138.55,-148.97 154,-139 159.21,-135.64 164.92,-132.92 170.85,-130.73"/>
<polygon fill="#000000" fill-opacity="0.200000" stroke="#000000" stroke-width="2" stroke-opacity="0.200000" points="172.01,-131.91 177.07,-128.05 170.71,-127.91 172.01,-131.91"/>
</g>
<!-- src/components/effects/NavigationEffects/GoToLoginWhenJwtAtomIsNull.tsx -->
<g id="node4" class="node">
<title>src/components/effects/NavigationEffects/GoToLoginWhenJwtAtomIsNull.tsx</title>
<g id="a_node4"><a xlink:href="src/components/effects/NavigationEffects/GoToLoginWhenJwtAtomIsNull.tsx" xlink:title="GoToLoginWhenJwtAtomIsNull.tsx">
<path fill="#bbfeff" stroke="black" d="M320.08,-71.25C320.08,-71.25 176.17,-71.25 176.17,-71.25 173.08,-71.25 170,-68.17 170,-65.08 170,-65.08 170,-58.92 170,-58.92 170,-55.83 173.08,-52.75 176.17,-52.75 176.17,-52.75 320.08,-52.75 320.08,-52.75 323.17,-52.75 326.25,-55.83 326.25,-58.92 326.25,-58.92 326.25,-65.08 326.25,-65.08 326.25,-68.17 323.17,-71.25 320.08,-71.25"/>
<text text-anchor="start" x="178" y="-58.7" font-family="Helvetica,sans-Serif" font-size="9.00">GoToLoginWhenJwtAtomIsNull.tsx</text>
</a>
</g>
</g>
<!-- src/components/App.tsx&#45;&gt;src/components/effects/NavigationEffects/GoToLoginWhenJwtAtomIsNull.tsx -->
<g id="edge3" class="edge">
<title>src/components/App.tsx&#45;&gt;src/components/effects/NavigationEffects/GoToLoginWhenJwtAtomIsNull.tsx</title>
<path fill="none" stroke="#000000" stroke-width="2" stroke-opacity="0.200000" d="M120.88,-180.34C123.86,-162.78 132.47,-125.35 154,-103 166.42,-90.11 183.6,-81 199.82,-74.7"/>
<polygon fill="#000000" fill-opacity="0.200000" stroke="#000000" stroke-width="2" stroke-opacity="0.200000" points="201.27,-76.68 206.19,-72.65 199.83,-72.73 201.27,-76.68"/>
</g>
<!-- src/components/Routes/Feed.tsx -->
<g id="node5" class="node">
<title>src/components/Routes/Feed.tsx</title>
<g id="a_node5"><a xlink:href="src/components/Routes/Feed.tsx" xlink:title="Feed.tsx">
<path fill="#bbfeff" stroke="black" d="M268.96,-282.25C268.96,-282.25 227.29,-282.25 227.29,-282.25 224.21,-282.25 221.12,-279.17 221.12,-276.08 221.12,-276.08 221.12,-269.92 221.12,-269.92 221.12,-266.83 224.21,-263.75 227.29,-263.75 227.29,-263.75 268.96,-263.75 268.96,-263.75 272.04,-263.75 275.12,-266.83 275.12,-269.92 275.12,-269.92 275.12,-276.08 275.12,-276.08 275.12,-279.17 272.04,-282.25 268.96,-282.25"/>
<text text-anchor="start" x="230.88" y="-269.7" font-family="Helvetica,sans-Serif" font-size="9.00">Feed.tsx</text>
</a>
</g>
</g>
<!-- src/components/App.tsx&#45;&gt;src/components/Routes/Feed.tsx -->
<g id="edge4" class="edge">
<title>src/components/App.tsx&#45;&gt;src/components/Routes/Feed.tsx</title>
<path fill="none" stroke="#000000" stroke-width="2" stroke-opacity="0.200000" d="M142.64,-199.4C143.89,-200.48 145.03,-201.68 146,-203 160.31,-222.59 137.04,-239.65 154,-257 168.81,-272.16 192.4,-276.09 212.12,-276.27"/>
<polygon fill="#000000" fill-opacity="0.200000" stroke="#000000" stroke-width="2" stroke-opacity="0.200000" points="211.91,-278.32 217.87,-276.11 211.83,-274.12 211.91,-278.32"/>
</g>
<!-- src/components/Routes/Login.tsx -->
<g id="node6" class="node">
<title>src/components/Routes/Login.tsx</title>
<g id="a_node6"><a xlink:href="src/components/Routes/Login.tsx" xlink:title="Login.tsx">
<path fill="#bbfeff" stroke="black" d="M268.96,-251.25C268.96,-251.25 227.29,-251.25 227.29,-251.25 224.21,-251.25 221.12,-248.17 221.12,-245.08 221.12,-245.08 221.12,-238.92 221.12,-238.92 221.12,-235.83 224.21,-232.75 227.29,-232.75 227.29,-232.75 268.96,-232.75 268.96,-232.75 272.04,-232.75 275.12,-235.83 275.12,-238.92 275.12,-238.92 275.12,-245.08 275.12,-245.08 275.12,-248.17 272.04,-251.25 268.96,-251.25"/>
<text text-anchor="start" x="229.75" y="-238.7" font-family="Helvetica,sans-Serif" font-size="9.00">Login.tsx</text>
</a>
</g>
</g>
<!-- src/components/App.tsx&#45;&gt;src/components/Routes/Login.tsx -->
<g id="edge5" class="edge">
<title>src/components/App.tsx&#45;&gt;src/components/Routes/Login.tsx</title>
<path fill="none" stroke="#000000" stroke-width="2" stroke-opacity="0.200000" d="M143.21,-199.66C163.53,-207.94 192.99,-219.94 215.36,-229.06"/>
<polygon fill="#000000" fill-opacity="0.200000" stroke="#000000" stroke-width="2" stroke-opacity="0.200000" points="215.2,-231.07 221.55,-231.39 216.78,-227.18 215.2,-231.07"/>
</g>
<!-- src/reusables/logic/external.ts -->
<g id="node7" class="node">
<title>src/reusables/logic/external.ts</title>
<g id="a_node7"><a xlink:href="src/reusables/logic/external.ts" xlink:title="external.ts">
<path fill="#ddfeff" stroke="black" d="M426.08,-193.25C426.08,-193.25 380.42,-193.25 380.42,-193.25 377.33,-193.25 374.25,-190.17 374.25,-187.08 374.25,-187.08 374.25,-180.92 374.25,-180.92 374.25,-177.83 377.33,-174.75 380.42,-174.75 380.42,-174.75 426.08,-174.75 426.08,-174.75 429.17,-174.75 432.25,-177.83 432.25,-180.92 432.25,-180.92 432.25,-187.08 432.25,-187.08 432.25,-190.17 429.17,-193.25 426.08,-193.25"/>
<text text-anchor="start" x="382.25" y="-180.7" font-family="Helvetica,sans-Serif" font-size="9.00">external.ts</text>
</a>
</g>
</g>
<!-- src/components/effects/CommunicationEffects/HttpErrorInterceptor.tsx&#45;&gt;src/reusables/logic/external.ts -->
<g id="edge7" class="edge">
<title>src/components/effects/CommunicationEffects/HttpErrorInterceptor.tsx&#45;&gt;src/reusables/logic/external.ts</title>
<path fill="none" stroke="#000000" stroke-width="2" stroke-opacity="0.200000" d="M298.84,-163.74C320.5,-167.98 345.44,-172.87 365.4,-176.78"/>
<polygon fill="#000000" fill-opacity="0.200000" stroke="#000000" stroke-width="2" stroke-opacity="0.200000" points="365.9,-179.41 372.19,-178.5 366.71,-175.29 365.9,-179.41"/>
</g>
<!-- src/components/effects/CommunicationEffects/HttpTokenSetterInterceptor.tsx&#45;&gt;src/reusables/logic/external.ts -->
<g id="edge8" class="edge">
<title>src/components/effects/CommunicationEffects/HttpTokenSetterInterceptor.tsx&#45;&gt;src/reusables/logic/external.ts</title>
<path fill="none" stroke="#000000" stroke-width="2" stroke-opacity="0.200000" d="M317.33,-128.42C328.65,-130.82 340.03,-134.21 350.25,-139 354.53,-141 354.68,-142.9 358.25,-146 366.94,-153.55 376.62,-161.92 384.68,-168.87"/>
<polygon fill="#000000" fill-opacity="0.200000" stroke="#000000" stroke-width="2" stroke-opacity="0.200000" points="383.1,-171.01 389.02,-173.34 385.85,-167.83 383.1,-171.01"/>
</g>
<!-- src/reusables/state/external.ts -->
<g id="node8" class="node">
<title>src/reusables/state/external.ts</title>
<g id="a_node8"><a xlink:href="src/reusables/state/external.ts" xlink:title="external.ts">
<path fill="#ddfeff" stroke="black" d="M426.08,-71.25C426.08,-71.25 380.42,-71.25 380.42,-71.25 377.33,-71.25 374.25,-68.17 374.25,-65.08 374.25,-65.08 374.25,-58.92 374.25,-58.92 374.25,-55.83 377.33,-52.75 380.42,-52.75 380.42,-52.75 426.08,-52.75 426.08,-52.75 429.17,-52.75 432.25,-55.83 432.25,-58.92 432.25,-58.92 432.25,-65.08 432.25,-65.08 432.25,-68.17 429.17,-71.25 426.08,-71.25"/>
<text text-anchor="start" x="382.25" y="-58.7" font-family="Helvetica,sans-Serif" font-size="9.00">external.ts</text>
</a>
</g>
</g>
<!-- src/components/effects/NavigationEffects/GoToLoginWhenJwtAtomIsNull.tsx&#45;&gt;src/reusables/state/external.ts -->
<g id="edge9" class="edge">
<title>src/components/effects/NavigationEffects/GoToLoginWhenJwtAtomIsNull.tsx&#45;&gt;src/reusables/state/external.ts</title>
<path fill="none" stroke="#000000" stroke-width="2" stroke-opacity="0.200000" d="M326.58,-62C339.93,-62 353.24,-62 364.89,-62"/>
<polygon fill="#000000" fill-opacity="0.200000" stroke="#000000" stroke-width="2" stroke-opacity="0.200000" points="364.85,-64.1 370.85,-62 364.85,-59.9 364.85,-64.1"/>
</g>
<!-- src/components/Routes/Login.tsx&#45;&gt;src/reusables/logic/external.ts -->
<g id="edge6" class="edge">
<title>src/components/Routes/Login.tsx&#45;&gt;src/reusables/logic/external.ts</title>
<path fill="none" stroke="#000000" stroke-width="2" stroke-opacity="0.200000" d="M274.75,-232.29C300.37,-222.59 339.91,-207.61 368.16,-196.91"/>
<polygon fill="#000000" fill-opacity="0.200000" stroke="#000000" stroke-width="2" stroke-opacity="0.200000" points="369.67,-198.83 374.54,-194.74 368.18,-194.9 369.67,-198.83"/>
</g>
<!-- src/reusables/logic/internal/dependent/http.ts -->
<g id="node11" class="node">
<title>src/reusables/logic/internal/dependent/http.ts</title>
<g id="a_node11"><a xlink:href="src/reusables/logic/internal/dependent/http.ts" xlink:title="http.ts">
<path fill="#ddfeff" stroke="black" d="M511.71,-254.25C511.71,-254.25 470.04,-254.25 470.04,-254.25 466.96,-254.25 463.88,-251.17 463.88,-248.08 463.88,-248.08 463.88,-241.92 463.88,-241.92 463.88,-238.83 466.96,-235.75 470.04,-235.75 470.04,-235.75 511.71,-235.75 511.71,-235.75 514.79,-235.75 517.88,-238.83 517.88,-241.92 517.88,-241.92 517.88,-248.08 517.88,-248.08 517.88,-251.17 514.79,-254.25 511.71,-254.25"/>
<text text-anchor="start" x="478.88" y="-241.7" font-family="Helvetica,sans-Serif" font-size="9.00">http.ts</text>
</a>
</g>
</g>
<!-- src/reusables/logic/external.ts&#45;&gt;src/reusables/logic/internal/dependent/http.ts -->
<g id="edge12" class="edge">
<title>src/reusables/logic/external.ts&#45;&gt;src/reusables/logic/internal/dependent/http.ts</title>
<path fill="none" stroke="#000000" stroke-width="2" stroke-opacity="0.200000" d="M411.35,-193.71C418.03,-202.3 428.71,-214.74 440.25,-223 445.43,-226.71 451.33,-229.99 457.21,-232.81"/>
<polygon fill="#000000" fill-opacity="0.200000" stroke="#000000" stroke-width="2" stroke-opacity="0.200000" points="461.77,-237.19 457.18,-232.8 463.51,-233.37 461.77,-237.19"/>
</g>
<!-- src/reusables/logic/internal/independent/decodeJwt.ts -->
<g id="node12" class="node">
<title>src/reusables/logic/internal/independent/decodeJwt.ts</title>
<g id="a_node12"><a xlink:href="src/reusables/logic/internal/independent/decodeJwt.ts" xlink:title="decodeJwt.ts">
<path fill="#ddfeff" stroke="black" d="M519.33,-193.25C519.33,-193.25 462.42,-193.25 462.42,-193.25 459.33,-193.25 456.25,-190.17 456.25,-187.08 456.25,-187.08 456.25,-180.92 456.25,-180.92 456.25,-177.83 459.33,-174.75 462.42,-174.75 462.42,-174.75 519.33,-174.75 519.33,-174.75 522.42,-174.75 525.5,-177.83 525.5,-180.92 525.5,-180.92 525.5,-187.08 525.5,-187.08 525.5,-190.17 522.42,-193.25 519.33,-193.25"/>
<text text-anchor="start" x="464.25" y="-180.7" font-family="Helvetica,sans-Serif" font-size="9.00">decodeJwt.ts</text>
</a>
</g>
</g>
<!-- src/reusables/logic/external.ts&#45;&gt;src/reusables/logic/internal/independent/decodeJwt.ts -->
<g id="edge13" class="edge">
<title>src/reusables/logic/external.ts&#45;&gt;src/reusables/logic/internal/independent/decodeJwt.ts</title>
<path fill="none" stroke="#000000" stroke-width="2" stroke-opacity="0.200000" d="M432.29,-184C437.57,-184 443.19,-184 448.78,-184"/>
<polygon fill="#000000" fill-opacity="0.200000" stroke="#000000" stroke-width="2" stroke-opacity="0.200000" points="454.8,-186.1 448.8,-184 454.8,-181.9 454.8,-186.1"/>
</g>
<!-- src/reusables/state/internal/jwtAtom.ts -->
<g id="node13" class="node">
<title>src/reusables/state/internal/jwtAtom.ts</title>
<g id="a_node13"><a xlink:href="src/reusables/state/internal/jwtAtom.ts" xlink:title="jwtAtom.ts">
<path fill="#ddfeff" stroke="black" d="M513.33,-89.25C513.33,-89.25 468.42,-89.25 468.42,-89.25 465.33,-89.25 462.25,-86.17 462.25,-83.08 462.25,-83.08 462.25,-76.92 462.25,-76.92 462.25,-73.83 465.33,-70.75 468.42,-70.75 468.42,-70.75 513.33,-70.75 513.33,-70.75 516.42,-70.75 519.5,-73.83 519.5,-76.92 519.5,-76.92 519.5,-83.08 519.5,-83.08 519.5,-86.17 516.42,-89.25 513.33,-89.25"/>
<text text-anchor="start" x="470.25" y="-76.7" font-family="Helvetica,sans-Serif" font-size="9.00">jwtAtom.ts</text>
</a>
</g>
</g>
<!-- src/reusables/state/external.ts&#45;&gt;src/reusables/state/internal/jwtAtom.ts -->
<g id="edge14" class="edge">
<title>src/reusables/state/external.ts&#45;&gt;src/reusables/state/internal/jwtAtom.ts</title>
<path fill="none" stroke="#000000" stroke-width="2" stroke-opacity="0.200000" d="M432.29,-67.89C439.53,-69.42 447.42,-71.07 454.97,-72.66"/>
<polygon fill="#000000" fill-opacity="0.200000" stroke="#000000" stroke-width="2" stroke-opacity="0.200000" points="460.36,-75.94 454.92,-72.65 461.23,-71.83 460.36,-75.94"/>
</g>
<!-- src/reusables/state/internal/user.ts -->
<g id="node14" class="node">
<title>src/reusables/state/internal/user.ts</title>
<g id="a_node14"><a xlink:href="src/reusables/state/internal/user.ts" xlink:title="user.ts">
<path fill="#ddfeff" stroke="black" d="M511.71,-58.25C511.71,-58.25 470.04,-58.25 470.04,-58.25 466.96,-58.25 463.88,-55.17 463.88,-52.08 463.88,-52.08 463.88,-45.92 463.88,-45.92 463.88,-42.83 466.96,-39.75 470.04,-39.75 470.04,-39.75 511.71,-39.75 511.71,-39.75 514.79,-39.75 517.88,-42.83 517.88,-45.92 517.88,-45.92 517.88,-52.08 517.88,-52.08 517.88,-55.17 514.79,-58.25 511.71,-58.25"/>
<text text-anchor="start" x="477.75" y="-45.7" font-family="Helvetica,sans-Serif" font-size="9.00">user.ts</text>
</a>
</g>
</g>
<!-- src/reusables/state/external.ts&#45;&gt;src/reusables/state/internal/user.ts -->
<g id="edge15" class="edge">
<title>src/reusables/state/external.ts&#45;&gt;src/reusables/state/internal/user.ts</title>
<path fill="none" stroke="#000000" stroke-width="2" stroke-opacity="0.200000" d="M432.29,-57.74C440.14,-56.55 448.74,-55.25 456.85,-54.01"/>
<polygon fill="#000000" fill-opacity="0.200000" stroke="#000000" stroke-width="2" stroke-opacity="0.200000" points="462.85,-55.23 456.6,-54.05 462.21,-51.08 462.85,-55.23"/>
</g>
<!-- src/components/main.tsx -->
<g id="node9" class="node">
<title>src/components/main.tsx</title>
<g id="a_node9"><a xlink:href="src/components/main.tsx" xlink:title="main.tsx">
<path fill="#bbfeff" stroke="black" d="M71.83,-272.25C71.83,-272.25 30.17,-272.25 30.17,-272.25 27.08,-272.25 24,-269.17 24,-266.08 24,-266.08 24,-259.92 24,-259.92 24,-256.83 27.08,-253.75 30.17,-253.75 30.17,-253.75 71.83,-253.75 71.83,-253.75 74.92,-253.75 78,-256.83 78,-259.92 78,-259.92 78,-266.08 78,-266.08 78,-269.17 74.92,-272.25 71.83,-272.25"/>
<text text-anchor="start" x="34.12" y="-259.7" font-family="Helvetica,sans-Serif" font-size="9.00">main.tsx</text>
</a>
</g>
</g>
<!-- src/components/main.tsx&#45;&gt;src/components/App.tsx -->
<g id="edge11" class="edge">
<title>src/components/main.tsx&#45;&gt;src/components/App.tsx</title>
<path fill="none" stroke="#000000" stroke-width="2" stroke-opacity="0.200000" d="M56.25,-253.33C61.67,-241.84 72.02,-222.4 88.95,-205.63"/>
<polygon fill="#000000" fill-opacity="0.200000" stroke="#000000" stroke-width="2" stroke-opacity="0.200000" points="90.5,-207.2 93.48,-201.59 87.65,-204.12 90.5,-207.2"/>
</g>
<!-- src/styles.css -->
<g id="node10" class="node">
<title>src/styles.css</title>
<g id="a_node10"><a xlink:href="src/styles.css" xlink:title="styles.css">
<path fill="#ffffcc" stroke="black" d="M139.83,-362.25C139.83,-362.25 97.17,-362.25 97.17,-362.25 94.08,-362.25 91,-359.17 91,-356.08 91,-356.08 91,-349.92 91,-349.92 91,-346.83 94.08,-343.75 97.17,-343.75 97.17,-343.75 139.83,-343.75 139.83,-343.75 142.92,-343.75 146,-346.83 146,-349.92 146,-349.92 146,-356.08 146,-356.08 146,-359.17 142.92,-362.25 139.83,-362.25"/>
<text text-anchor="start" x="99" y="-349.7" font-family="Helvetica,sans-Serif" font-size="9.00">styles.css</text>
</a>
</g>
</g>
<!-- src/components/main.tsx&#45;&gt;src/styles.css -->
<g id="edge10" class="edge">
<title>src/components/main.tsx&#45;&gt;src/styles.css</title>
<path fill="none" stroke="#000000" stroke-width="2" stroke-opacity="0.200000" d="M54.8,-272.54C59.38,-286.81 69.63,-314.13 90.08,-336.96"/>
<polygon fill="#000000" fill-opacity="0.200000" stroke="#000000" stroke-width="2" stroke-opacity="0.200000" points="88.46,-338.39 94.13,-341.27 91.49,-335.48 88.46,-338.39"/>
</g>
</g>
</svg>
