<?xml version="1.0" encoding="UTF-8" standalone="no"?>
<!DOCTYPE svg PUBLIC "-//W3C//DTD SVG 1.1//EN"
        "http://www.w3.org/Graphics/SVG/1.1/DTD/svg11.dtd">
<!-- Generated by graphviz version 8.1.0 (20230707.0739)
 -->
<!-- Title: dependency&#45;cruiser output Pages: 1 -->
<svg xmlns:xlink="http://www.w3.org/1999/xlink" width="421pt"
     height="260pt" viewBox="0.00 0.00 420.75 260.00" xmlns="http://www.w3.org/2000/svg">
    <g id="graph0" class="graph" transform="scale(1 1) rotate(0) translate(4 256)">
        <title>dependency&#45;cruiser output</title>
        <polygon fill="white" stroke="none" points="-4,4 -4,-256 416.75,-256 416.75,4 -4,4"/>
        <g id="clust1" class="cluster">
            <title>cluster_src</title>
            <path fill="#ffffff" stroke="black" stroke-width="2"
                  d="M20,-8C20,-8 392.75,-8 392.75,-8 398.75,-8 404.75,-14 404.75,-20 404.75,-20 404.75,-232 404.75,-232 404.75,-238 398.75,-244 392.75,-244 392.75,-244 20,-244 20,-244 14,-244 8,-238 8,-232 8,-232 8,-20 8,-20 8,-14 14,-8 20,-8"/>
            <text text-anchor="middle" x="206.38" y="-231.45" font-family="Helvetica,sans-Serif" font-weight="bold"
                  font-size="9.00">src
            </text>
        </g>
        <g id="clust2" class="cluster">
            <title>cluster_src/components</title>
            <path fill="#ffffff" stroke="black" stroke-width="2"
                  d="M45,-138C45,-138 178.5,-138 178.5,-138 184.5,-138 190.5,-144 190.5,-150 190.5,-150 190.5,-179 190.5,-179 190.5,-185 184.5,-191 178.5,-191 178.5,-191 45,-191 45,-191 39,-191 33,-185 33,-179 33,-179 33,-150 33,-150 33,-144 39,-138 45,-138"/>
            <text text-anchor="middle" x="111.75" y="-178.45" font-family="Helvetica,sans-Serif" font-weight="bold"
                  font-size="9.00">components
            </text>
        </g>
        <g id="clust3" class="cluster">
            <title>cluster_src/functions</title>
            <path fill="#ffffff" stroke="black" stroke-width="2"
                  d="M28,-77C28,-77 108,-77 108,-77 114,-77 120,-83 120,-89 120,-89 120,-118 120,-118 120,-124 114,-130 108,-130 108,-130 28,-130 28,-130 22,-130 16,-124 16,-118 16,-118 16,-89 16,-89 16,-83 22,-77 28,-77"/>
            <text text-anchor="middle" x="68" y="-117.45" font-family="Helvetica,sans-Serif" font-weight="bold"
                  font-size="9.00">functions
            </text>
        </g>
        <g id="clust4" class="cluster">
            <title>cluster_src/state</title>
            <path fill="#ffffff" stroke="black" stroke-width="2"
                  d="M210.5,-68C210.5,-68 384.75,-68 384.75,-68 390.75,-68 396.75,-74 396.75,-80 396.75,-80 396.75,-205 396.75,-205 396.75,-211 390.75,-217 384.75,-217 384.75,-217 210.5,-217 210.5,-217 204.5,-217 198.5,-211 198.5,-205 198.5,-205 198.5,-80 198.5,-80 198.5,-74 204.5,-68 210.5,-68"/>
            <text text-anchor="middle" x="297.62" y="-204.45" font-family="Helvetica,sans-Serif" font-weight="bold"
                  font-size="9.00">state
            </text>
        </g>
        <g id="clust5" class="cluster">
            <title>cluster_src/state/atoms</title>
            <path fill="#ffffff" stroke="black" stroke-width="2"
                  d="M232,-137C232,-137 376.75,-137 376.75,-137 382.75,-137 388.75,-143 388.75,-149 388.75,-149 388.75,-178 388.75,-178 388.75,-184 382.75,-190 376.75,-190 376.75,-190 232,-190 232,-190 226,-190 220,-184 220,-178 220,-178 220,-149 220,-149 220,-143 226,-137 232,-137"/>
            <text text-anchor="middle" x="304.38" y="-177.45" font-family="Helvetica,sans-Serif" font-weight="bold"
                  font-size="9.00">atoms
            </text>
        </g>
        <g id="clust6" class="cluster">
            <title>cluster_src/state/auth</title>
            <path fill="#ffffff" stroke="black" stroke-width="2"
                  d="M218.5,-76C218.5,-76 306.75,-76 306.75,-76 312.75,-76 318.75,-82 318.75,-88 318.75,-88 318.75,-117 318.75,-117 318.75,-123 312.75,-129 306.75,-129 306.75,-129 218.5,-129 218.5,-129 212.5,-129 206.5,-123 206.5,-117 206.5,-117 206.5,-88 206.5,-88 206.5,-82 212.5,-76 218.5,-76"/>
            <text text-anchor="middle" x="262.62" y="-116.45" font-family="Helvetica,sans-Serif" font-weight="bold"
                  font-size="9.00">auth
            </text>
        </g>
        <g id="clust7" class="cluster">
            <title>cluster_src/types</title>
            <path fill="#ffffff" stroke="black" stroke-width="2"
                  d="M28.38,-16C28.38,-16 107.62,-16 107.62,-16 113.62,-16 119.62,-22 119.62,-28 119.62,-28 119.62,-57 119.62,-57 119.62,-63 113.62,-69 107.62,-69 107.62,-69 28.38,-69 28.38,-69 22.38,-69 16.38,-63 16.38,-57 16.38,-57 16.38,-28 16.38,-28 16.38,-22 22.38,-16 28.38,-16"/>
            <text text-anchor="middle" x="68" y="-56.45" font-family="Helvetica,sans-Serif" font-weight="bold"
                  font-size="9.00">types
            </text>
        </g>
        <!-- src/components/App.tsx -->
        <g id="node1" class="node">
            <title>src/components/App.tsx</title>
            <g id="a_node1">
                <a xlink:href="src/components/App.tsx" xlink:title="App.tsx">
                    <path fill="#bbfeff" stroke="black"
                          d="M176.33,-164.25C176.33,-164.25 134.67,-164.25 134.67,-164.25 131.58,-164.25 128.5,-161.17 128.5,-158.08 128.5,-158.08 128.5,-151.92 128.5,-151.92 128.5,-148.83 131.58,-145.75 134.67,-145.75 134.67,-145.75 176.33,-145.75 176.33,-145.75 179.42,-145.75 182.5,-148.83 182.5,-151.92 182.5,-151.92 182.5,-158.08 182.5,-158.08 182.5,-161.17 179.42,-164.25 176.33,-164.25"/>
                    <text text-anchor="start" x="140.5" y="-151.7" font-family="Helvetica,sans-Serif" font-size="9.00">
                        App.tsx
                    </text>
                </a>
            </g>
        </g>
        <!-- src/state/state/userAtom.ts -->
        <g id="node2" class="node">
            <title>src/state/atoms/userAtom.ts</title>
            <g id="a_node2">
                <a xlink:href="src/state/atoms/userAtom.ts" xlink:title="userAtom.ts">
                    <path fill="#ddfeff" stroke="black"
                          d="M374.58,-163.25C374.58,-163.25 332.92,-163.25 332.92,-163.25 329.83,-163.25 326.75,-160.17 326.75,-157.08 326.75,-157.08 326.75,-150.92 326.75,-150.92 326.75,-147.83 329.83,-144.75 332.92,-144.75 332.92,-144.75 374.58,-144.75 374.58,-144.75 377.67,-144.75 380.75,-147.83 380.75,-150.92 380.75,-150.92 380.75,-157.08 380.75,-157.08 380.75,-160.17 377.67,-163.25 374.58,-163.25"/>
                    <text text-anchor="start" x="340.62" y="-150.7" font-family="Helvetica,sans-Serif" font-size="9.00">
                        userAtom.ts
                    </text>
                </a>
            </g>
        </g>
        <!-- src/components/App.tsx&#45;&gt;src/state/state/userAtom.ts -->
        <g id="edge1" class="edge">
            <title>src/components/App.tsx&#45;&gt;src/state/atoms/userAtom.ts</title>
            <path fill="none" stroke="#000000" stroke-width="2" stroke-opacity="0.200000"
                  d="M158.09,-145.47C161.66,-127.53 172.16,-89.1 198.5,-73 244.1,-45.12 274.24,-43.41 318.75,-73 339.61,-86.87 347.7,-116.28 350.82,-135.59"/>
            <polygon fill="#000000" fill-opacity="0.200000" stroke="#000000" stroke-width="2" stroke-opacity="0.200000"
                     points="349.12,-136.72 352.01,-142.38 353.28,-136.16 349.12,-136.72"/>
        </g>
        <!-- src/state/effects/NavigationEffect.tsx -->
        <g id="node3" class="node">
            <title>src/state/auth/NavigationEffect.tsx</title>
            <g id="a_node3">
                <a xlink:href="src/state/auth/NavigationEffect.tsx" xlink:title="NavigationEffect.tsx">
                    <path fill="#bbfeff" stroke="black"
                          d="M304.58,-102.25C304.58,-102.25 220.67,-102.25 220.67,-102.25 217.58,-102.25 214.5,-99.17 214.5,-96.08 214.5,-96.08 214.5,-89.92 214.5,-89.92 214.5,-86.83 217.58,-83.75 220.67,-83.75 220.67,-83.75 304.58,-83.75 304.58,-83.75 307.67,-83.75 310.75,-86.83 310.75,-89.92 310.75,-89.92 310.75,-96.08 310.75,-96.08 310.75,-99.17 307.67,-102.25 304.58,-102.25"/>
                    <text text-anchor="start" x="222.5" y="-89.7" font-family="Helvetica,sans-Serif" font-size="9.00">
                        NavigationEffect.tsx
                    </text>
                </a>
            </g>
        </g>
        <!-- src/components/App.tsx&#45;&gt;src/state/effects/NavigationEffect.tsx -->
        <g id="edge2" class="edge">
            <title>src/components/App.tsx&#45;&gt;src/state/auth/NavigationEffect.tsx</title>
            <path fill="none" stroke="#000000" stroke-width="2" stroke-opacity="0.200000"
                  d="M172.93,-145.31C190.28,-135.08 217.83,-118.83 237.62,-107.16"/>
            <polygon fill="#000000" fill-opacity="0.200000" stroke="#000000" stroke-width="2" stroke-opacity="0.200000"
                     points="239.21,-108.48 243.31,-103.62 237.08,-104.86 239.21,-108.48"/>
        </g>
        <!-- src/state/effects/NavigationEffect.tsx&#45;&gt;src/state/state/userAtom.ts -->
        <g id="edge6" class="edge">
            <title>src/state/auth/NavigationEffect.tsx&#45;&gt;src/state/atoms/userAtom.ts</title>
            <path fill="none" stroke="#000000" stroke-width="2" stroke-opacity="0.200000"
                  d="M277.55,-102.53C291.99,-112.41 314.73,-127.98 331.43,-139.41"/>
            <polygon fill="#000000" fill-opacity="0.200000" stroke="#000000" stroke-width="2" stroke-opacity="0.200000"
                     points="330.49,-141.68 336.63,-143.33 332.86,-138.21 330.49,-141.68"/>
        </g>
        <!-- src/components/main.tsx -->
        <g id="node4" class="node">
            <title>src/components/main.tsx</title>
            <g id="a_node4">
                <a xlink:href="src/components/main.tsx" xlink:title="main.tsx">
                    <path fill="#bbfeff" stroke="black"
                          d="M88.83,-164.25C88.83,-164.25 47.17,-164.25 47.17,-164.25 44.08,-164.25 41,-161.17 41,-158.08 41,-158.08 41,-151.92 41,-151.92 41,-148.83 44.08,-145.75 47.17,-145.75 47.17,-145.75 88.83,-145.75 88.83,-145.75 91.92,-145.75 95,-148.83 95,-151.92 95,-151.92 95,-158.08 95,-158.08 95,-161.17 91.92,-164.25 88.83,-164.25"/>
                    <text text-anchor="start" x="51.12" y="-151.7" font-family="Helvetica,sans-Serif" font-size="9.00">
                        main.tsx
                    </text>
                </a>
            </g>
        </g>
        <!-- src/components/main.tsx&#45;&gt;src/components/App.tsx -->
        <g id="edge4" class="edge">
            <title>src/components/main.tsx&#45;&gt;src/components/App.tsx</title>
            <path fill="none" stroke="#000000" stroke-width="2" stroke-opacity="0.200000"
                  d="M95.12,-155C102.75,-155 111.23,-155 119.33,-155"/>
            <polygon fill="#000000" fill-opacity="0.200000" stroke="#000000" stroke-width="2" stroke-opacity="0.200000"
                     points="119.25,-157.1 125.25,-155 119.25,-152.9 119.25,-157.1"/>
        </g>
        <!-- src/styles.css -->
        <g id="node5" class="node">
            <title>src/styles.css</title>
            <g id="a_node5">
                <a xlink:href="src/styles.css" xlink:title="styles.css">
                    <path fill="#ffffcc" stroke="black"
                          d="M176.83,-217.25C176.83,-217.25 134.17,-217.25 134.17,-217.25 131.08,-217.25 128,-214.17 128,-211.08 128,-211.08 128,-204.92 128,-204.92 128,-201.83 131.08,-198.75 134.17,-198.75 134.17,-198.75 176.83,-198.75 176.83,-198.75 179.92,-198.75 183,-201.83 183,-204.92 183,-204.92 183,-211.08 183,-211.08 183,-214.17 179.92,-217.25 176.83,-217.25"/>
                    <text text-anchor="start" x="136" y="-204.7" font-family="Helvetica,sans-Serif" font-size="9.00">
                        styles.css
                    </text>
                </a>
            </g>
        </g>
        <!-- src/components/main.tsx&#45;&gt;src/styles.css -->
        <g id="edge3" class="edge">
            <title>src/components/main.tsx&#45;&gt;src/styles.css</title>
            <path fill="none" stroke="#000000" stroke-width="2" stroke-opacity="0.200000"
                  d="M82.82,-164.69C93.29,-171.91 108.26,-181.99 127.83,-193.71"/>
            <polygon fill="#000000" fill-opacity="0.200000" stroke="#000000" stroke-width="2" stroke-opacity="0.200000"
                     points="127.32,-196.03 133.55,-197.28 129.46,-192.42 127.32,-196.03"/>
        </g>
        <!-- src/logic/setupHttpClient.tsx -->
        <g id="node6" class="node">
            <title>src/functions/setupHttpClient.tsx</title>
            <g id="a_node6">
                <a xlink:href="src/functions/setupHttpClient.tsx" xlink:title="no&#45;orphans">
                    <path fill="#ccffcc" stroke="orange"
                          d="M105.83,-103.25C105.83,-103.25 30.17,-103.25 30.17,-103.25 27.08,-103.25 24,-100.17 24,-97.08 24,-97.08 24,-90.92 24,-90.92 24,-87.83 27.08,-84.75 30.17,-84.75 30.17,-84.75 105.83,-84.75 105.83,-84.75 108.92,-84.75 112,-87.83 112,-90.92 112,-90.92 112,-97.08 112,-97.08 112,-100.17 108.92,-103.25 105.83,-103.25"/>
                    <text text-anchor="start" x="32" y="-90.7" font-family="Helvetica,sans-Serif" font-size="9.00"
                          fill="orange">setupHttpClient.tsx
                    </text>
                </a>
            </g>
        </g>
        <!-- src/state/state/decodeJwt.ts -->
        <g id="node7" class="node">
            <title>src/state/atoms/decodeJwt.ts</title>
            <g id="a_node7">
                <a xlink:href="src/state/atoms/decodeJwt.ts" xlink:title="decodeJwt.ts">
                    <path fill="#ddfeff" stroke="black"
                          d="M291.08,-163.25C291.08,-163.25 234.17,-163.25 234.17,-163.25 231.08,-163.25 228,-160.17 228,-157.08 228,-157.08 228,-150.92 228,-150.92 228,-147.83 231.08,-144.75 234.17,-144.75 234.17,-144.75 291.08,-144.75 291.08,-144.75 294.17,-144.75 297.25,-147.83 297.25,-150.92 297.25,-150.92 297.25,-157.08 297.25,-157.08 297.25,-160.17 294.17,-163.25 291.08,-163.25"/>
                    <text text-anchor="start" x="236" y="-150.7" font-family="Helvetica,sans-Serif" font-size="9.00">
                        decodeJwt.ts
                    </text>
                </a>
            </g>
        </g>
        <!-- src/state/state/decodeJwt.ts&#45;&gt;src/state/state/userAtom.ts -->
        <g id="edge5" class="edge">
            <title>src/state/atoms/decodeJwt.ts&#45;&gt;src/state/atoms/userAtom.ts</title>
            <path fill="none" stroke="#000000" stroke-width="2" stroke-opacity="0.200000"
                  d="M297.57,-154C304.13,-154 311.02,-154 317.62,-154"/>
            <polygon fill="#000000" fill-opacity="0.200000" stroke="#000000" stroke-width="2" stroke-opacity="0.200000"
                     points="317.38,-156.1 323.38,-154 317.38,-151.9 317.38,-156.1"/>
        </g>
        <!-- src/constants/problemDetails.ts -->
        <g id="node8" class="node">
            <title>src/types/problemDetails.ts</title>
            <g id="a_node8">
                <a xlink:href="src/types/problemDetails.ts" xlink:title="no&#45;orphans">
                    <path fill="#ccffcc" stroke="orange"
                          d="M105.46,-42.25C105.46,-42.25 30.54,-42.25 30.54,-42.25 27.46,-42.25 24.38,-39.17 24.38,-36.08 24.38,-36.08 24.38,-29.92 24.38,-29.92 24.38,-26.83 27.46,-23.75 30.54,-23.75 30.54,-23.75 105.46,-23.75 105.46,-23.75 108.54,-23.75 111.62,-26.83 111.62,-29.92 111.62,-29.92 111.62,-36.08 111.62,-36.08 111.62,-39.17 108.54,-42.25 105.46,-42.25"/>
                    <text text-anchor="start" x="32.38" y="-29.7" font-family="Helvetica,sans-Serif" font-size="9.00"
                          fill="orange">problemDetails.ts
                    </text>
                </a>
            </g>
        </g>
    </g>
</svg>
