<?xml version="1.0" encoding="UTF-8" standalone="no"?>
<!DOCTYPE svg PUBLIC "-//W3C//DTD SVG 1.1//EN"
 "http://www.w3.org/Graphics/SVG/1.1/DTD/svg11.dtd">
<!-- Generated by graphviz version 8.1.0 (20230707.0739)
 -->
<!-- Title: dependency&#45;cruiser output Pages: 1 -->
<svg width="401pt" height="289pt"
 viewBox="0.00 0.00 401.00 289.00" xmlns="http://www.w3.org/2000/svg" xmlns:xlink="http://www.w3.org/1999/xlink">
<g id="graph0" class="graph" transform="scale(1 1) rotate(0) translate(4 285)">
<title>dependency&#45;cruiser output</title>
<polygon fill="white" stroke="none" points="-4,4 -4,-285 397,-285 397,4 -4,4"/>
<g id="clust1" class="cluster">
<title>cluster_src</title>
<path fill="#ffffff" stroke="black" stroke-width="2" d="M20,-8C20,-8 373,-8 373,-8 379,-8 385,-14 385,-20 385,-20 385,-261 385,-261 385,-267 379,-273 373,-273 373,-273 20,-273 20,-273 14,-273 8,-267 8,-261 8,-261 8,-20 8,-20 8,-14 14,-8 20,-8"/>
<text text-anchor="middle" x="196.5" y="-260.45" font-family="Helvetica,sans-Serif" font-weight="bold" font-size="9.00">src</text>
</g>
<g id="clust2" class="cluster">
<title>cluster_src/atoms</title>
<path fill="#ffffff" stroke="black" stroke-width="2" d="M297.38,-61C297.38,-61 353.38,-61 353.38,-61 359.38,-61 365.38,-67 365.38,-73 365.38,-73 365.38,-133 365.38,-133 365.38,-139 359.38,-145 353.38,-145 353.38,-145 297.38,-145 297.38,-145 291.38,-145 285.38,-139 285.38,-133 285.38,-133 285.38,-73 285.38,-73 285.38,-67 291.38,-61 297.38,-61"/>
<text text-anchor="middle" x="325.38" y="-132.45" font-family="Helvetica,sans-Serif" font-weight="bold" font-size="9.00">atoms</text>
</g>
<g id="clust3" class="cluster">
<title>cluster_src/components</title>
<path fill="#ffffff" stroke="black" stroke-width="2" d="M28,-68C28,-68 141.5,-68 141.5,-68 147.5,-68 153.5,-74 153.5,-80 153.5,-80 153.5,-109 153.5,-109 153.5,-115 147.5,-121 141.5,-121 141.5,-121 28,-121 28,-121 22,-121 16,-115 16,-109 16,-109 16,-80 16,-80 16,-74 22,-68 28,-68"/>
<text text-anchor="middle" x="84.75" y="-108.45" font-family="Helvetica,sans-Serif" font-weight="bold" font-size="9.00">components</text>
</g>
<g id="clust4" class="cluster">
<title>cluster_src/effects</title>
<path fill="#ffffff" stroke="black" stroke-width="2" d="M173.5,-16C173.5,-16 261.75,-16 261.75,-16 267.75,-16 273.75,-22 273.75,-28 273.75,-28 273.75,-57 273.75,-57 273.75,-63 267.75,-69 261.75,-69 261.75,-69 173.5,-69 173.5,-69 167.5,-69 161.5,-63 161.5,-57 161.5,-57 161.5,-28 161.5,-28 161.5,-22 167.5,-16 173.5,-16"/>
<text text-anchor="middle" x="217.62" y="-56.45" font-family="Helvetica,sans-Serif" font-weight="bold" font-size="9.00">effects</text>
</g>
<g id="clust5" class="cluster">
<title>cluster_src/functions</title>
<path fill="#ffffff" stroke="black" stroke-width="2" d="M177.62,-101C177.62,-101 257.62,-101 257.62,-101 263.62,-101 269.62,-107 269.62,-113 269.62,-113 269.62,-173 269.62,-173 269.62,-179 263.62,-185 257.62,-185 257.62,-185 177.62,-185 177.62,-185 171.62,-185 165.62,-179 165.62,-173 165.62,-173 165.62,-113 165.62,-113 165.62,-107 171.62,-101 177.62,-101"/>
<text text-anchor="middle" x="217.62" y="-172.45" font-family="Helvetica,sans-Serif" font-weight="bold" font-size="9.00">functions</text>
</g>
<g id="clust6" class="cluster">
<title>cluster_src/types</title>
<path fill="#ffffff" stroke="black" stroke-width="2" d="M179.12,-193C179.12,-193 365,-193 365,-193 371,-193 377,-199 377,-205 377,-205 377,-234 377,-234 377,-240 371,-246 365,-246 365,-246 179.12,-246 179.12,-246 173.12,-246 167.12,-240 167.12,-234 167.12,-234 167.12,-205 167.12,-205 167.12,-199 173.12,-193 179.12,-193"/>
<text text-anchor="middle" x="272.06" y="-233.45" font-family="Helvetica,sans-Serif" font-weight="bold" font-size="9.00">types</text>
</g>
<!-- src/atoms/jwtAtom.ts -->
<g id="node1" class="node">
<title>src/atoms/jwtAtom.ts</title>
<g id="a_node1"><a xlink:href="src/atoms/jwtAtom.ts" xlink:title="jwtAtom.ts">
<path fill="#ddfeff" stroke="black" d="M347.83,-87.25C347.83,-87.25 302.92,-87.25 302.92,-87.25 299.83,-87.25 296.75,-84.17 296.75,-81.08 296.75,-81.08 296.75,-74.92 296.75,-74.92 296.75,-71.83 299.83,-68.75 302.92,-68.75 302.92,-68.75 347.83,-68.75 347.83,-68.75 350.92,-68.75 354,-71.83 354,-74.92 354,-74.92 354,-81.08 354,-81.08 354,-84.17 350.92,-87.25 347.83,-87.25"/>
<text text-anchor="start" x="304.75" y="-74.7" font-family="Helvetica,sans-Serif" font-size="9.00">jwtAtom.ts</text>
</a>
</g>
</g>
<!-- src/atoms/userAtom.ts -->
<g id="node2" class="node">
<title>src/atoms/userAtom.ts</title>
<g id="a_node2"><a xlink:href="src/atoms/userAtom.ts" xlink:title="userAtom.ts">
<path fill="#ddfeff" stroke="black" d="M351.21,-118.25C351.21,-118.25 299.54,-118.25 299.54,-118.25 296.46,-118.25 293.38,-115.17 293.38,-112.08 293.38,-112.08 293.38,-105.92 293.38,-105.92 293.38,-102.83 296.46,-99.75 299.54,-99.75 299.54,-99.75 351.21,-99.75 351.21,-99.75 354.29,-99.75 357.38,-102.83 357.38,-105.92 357.38,-105.92 357.38,-112.08 357.38,-112.08 357.38,-115.17 354.29,-118.25 351.21,-118.25"/>
<text text-anchor="start" x="301.38" y="-105.7" font-family="Helvetica,sans-Serif" font-size="9.00">userAtom.ts</text>
</a>
</g>
</g>
<!-- src/components/App.tsx -->
<g id="node3" class="node">
<title>src/components/App.tsx</title>
<g id="a_node3"><a xlink:href="src/components/App.tsx" xlink:title="App.tsx">
<path fill="#bbfeff" stroke="black" d="M139.33,-94.25C139.33,-94.25 97.67,-94.25 97.67,-94.25 94.58,-94.25 91.5,-91.17 91.5,-88.08 91.5,-88.08 91.5,-81.92 91.5,-81.92 91.5,-78.83 94.58,-75.75 97.67,-75.75 97.67,-75.75 139.33,-75.75 139.33,-75.75 142.42,-75.75 145.5,-78.83 145.5,-81.92 145.5,-81.92 145.5,-88.08 145.5,-88.08 145.5,-91.17 142.42,-94.25 139.33,-94.25"/>
<text text-anchor="start" x="103.5" y="-81.7" font-family="Helvetica,sans-Serif" font-size="9.00">App.tsx</text>
</a>
</g>
</g>
<!-- src/components/App.tsx&#45;&gt;src/atoms/jwtAtom.ts -->
<g id="edge1" class="edge">
<title>src/components/App.tsx&#45;&gt;src/atoms/jwtAtom.ts</title>
<path fill="none" stroke="#000000" stroke-width="2" stroke-opacity="0.200000" d="M145.86,-84.1C181.93,-82.87 246.83,-80.65 287.65,-79.25"/>
<polygon fill="#000000" fill-opacity="0.200000" stroke="#000000" stroke-width="2" stroke-opacity="0.200000" points="287.55,-81.26 293.47,-78.95 287.41,-77.06 287.55,-81.26"/>
</g>
<!-- src/components/App.tsx&#45;&gt;src/atoms/userAtom.ts -->
<g id="edge2" class="edge">
<title>src/components/App.tsx&#45;&gt;src/atoms/userAtom.ts</title>
<path fill="none" stroke="#000000" stroke-width="2" stroke-opacity="0.200000" d="M145.82,-86.18C176.62,-87.79 229.1,-91.3 273.75,-98 277.15,-98.51 280.67,-99.12 284.2,-99.77"/>
<polygon fill="#000000" fill-opacity="0.200000" stroke="#000000" stroke-width="2" stroke-opacity="0.200000" points="284.6,-102.39 290.9,-101.5 285.42,-98.27 284.6,-102.39"/>
</g>
<!-- src/effects/NavigationEffect.tsx -->
<g id="node4" class="node">
<title>src/effects/NavigationEffect.tsx</title>
<g id="a_node4"><a xlink:href="src/effects/NavigationEffect.tsx" xlink:title="NavigationEffect.tsx">
<path fill="#bbfeff" stroke="black" d="M259.58,-42.25C259.58,-42.25 175.67,-42.25 175.67,-42.25 172.58,-42.25 169.5,-39.17 169.5,-36.08 169.5,-36.08 169.5,-29.92 169.5,-29.92 169.5,-26.83 172.58,-23.75 175.67,-23.75 175.67,-23.75 259.58,-23.75 259.58,-23.75 262.67,-23.75 265.75,-26.83 265.75,-29.92 265.75,-29.92 265.75,-36.08 265.75,-36.08 265.75,-39.17 262.67,-42.25 259.58,-42.25"/>
<text text-anchor="start" x="177.5" y="-29.7" font-family="Helvetica,sans-Serif" font-size="9.00">NavigationEffect.tsx</text>
</a>
</g>
</g>
<!-- src/components/App.tsx&#45;&gt;src/effects/NavigationEffect.tsx -->
<g id="edge3" class="edge">
<title>src/components/App.tsx&#45;&gt;src/effects/NavigationEffect.tsx</title>
<path fill="none" stroke="#000000" stroke-width="2" stroke-opacity="0.200000" d="M137.31,-75.46C152.28,-67.45 173.86,-55.89 190.74,-46.86"/>
<polygon fill="#000000" fill-opacity="0.200000" stroke="#000000" stroke-width="2" stroke-opacity="0.200000" points="192.3,-48.34 196.59,-43.65 190.31,-44.63 192.3,-48.34"/>
</g>
<!-- src/types/commonTypes.ts -->
<g id="node5" class="node">
<title>src/types/commonTypes.ts</title>
<g id="a_node5"><a xlink:href="src/types/commonTypes.ts" xlink:title="commonTypes.ts">
<path fill="#ddfeff" stroke="black" d="M253.96,-219.25C253.96,-219.25 181.29,-219.25 181.29,-219.25 178.21,-219.25 175.12,-216.17 175.12,-213.08 175.12,-213.08 175.12,-206.92 175.12,-206.92 175.12,-203.83 178.21,-200.75 181.29,-200.75 181.29,-200.75 253.96,-200.75 253.96,-200.75 257.04,-200.75 260.12,-203.83 260.12,-206.92 260.12,-206.92 260.12,-213.08 260.12,-213.08 260.12,-216.17 257.04,-219.25 253.96,-219.25"/>
<text text-anchor="start" x="183.12" y="-206.7" font-family="Helvetica,sans-Serif" font-size="9.00">commonTypes.ts</text>
</a>
</g>
</g>
<!-- src/components/App.tsx&#45;&gt;src/types/commonTypes.ts -->
<g id="edge4" class="edge">
<title>src/components/App.tsx&#45;&gt;src/types/commonTypes.ts</title>
<path fill="none" stroke="#000000" stroke-width="2" stroke-opacity="0.200000" d="M145.76,-91.42C148.74,-93.12 151.44,-95.28 153.5,-98 165.61,-114.02 149.51,-171.89 161.5,-188 163.71,-190.98 166.4,-193.55 169.37,-195.78"/>
<polygon fill="#000000" fill-opacity="0.200000" stroke="#000000" stroke-width="2" stroke-opacity="0.200000" points="168.55,-197.98 174.76,-199.36 170.77,-194.41 168.55,-197.98"/>
</g>
<!-- src/effects/NavigationEffect.tsx&#45;&gt;src/atoms/jwtAtom.ts -->
<g id="edge7" class="edge">
<title>src/effects/NavigationEffect.tsx&#45;&gt;src/atoms/jwtAtom.ts</title>
<path fill="none" stroke="#000000" stroke-width="2" stroke-opacity="0.200000" d="M241.31,-42.65C256.64,-49.18 277.07,-57.87 293.83,-65"/>
<polygon fill="#000000" fill-opacity="0.200000" stroke="#000000" stroke-width="2" stroke-opacity="0.200000" points="293.38,-66.95 299.73,-67.36 295.03,-63.08 293.38,-66.95"/>
</g>
<!-- src/effects/NavigationEffect.tsx&#45;&gt;src/atoms/userAtom.ts -->
<g id="edge8" class="edge">
<title>src/effects/NavigationEffect.tsx&#45;&gt;src/atoms/userAtom.ts</title>
<path fill="none" stroke="#000000" stroke-width="2" stroke-opacity="0.200000" d="M226.28,-42.34C237.33,-55.29 258.94,-78.71 281.75,-93 283.16,-93.88 284.62,-94.73 286.12,-95.53"/>
<polygon fill="#000000" fill-opacity="0.200000" stroke="#000000" stroke-width="2" stroke-opacity="0.200000" points="285.53,-97.55 291.85,-98.26 287.36,-93.76 285.53,-97.55"/>
</g>
<!-- src/types/commonTypes.ts&#45;&gt;src/atoms/userAtom.ts -->
<g id="edge12" class="edge">
<title>src/types/commonTypes.ts&#45;&gt;src/atoms/userAtom.ts</title>
<path fill="none" stroke="#000000" stroke-opacity="0.200000" d="M252.53,-200.31C260.01,-197.16 267.55,-193.12 273.75,-188 294.78,-170.63 309.96,-142.19 317.94,-124.59"/>
<polygon fill="none" stroke="#000000" stroke-opacity="0.200000" points="320.07,-125.97 320.55,-119.63 316.22,-124.28 320.07,-125.97"/>
</g>
<!-- src/types/problemDetails.ts -->
<g id="node10" class="node">
<title>src/types/problemDetails.ts</title>
<g id="a_node10"><a xlink:href="src/types/problemDetails.ts" xlink:title="problemDetails.ts">
<path fill="#ddfeff" stroke="black" d="M362.83,-219.25C362.83,-219.25 287.92,-219.25 287.92,-219.25 284.83,-219.25 281.75,-216.17 281.75,-213.08 281.75,-213.08 281.75,-206.92 281.75,-206.92 281.75,-203.83 284.83,-200.75 287.92,-200.75 287.92,-200.75 362.83,-200.75 362.83,-200.75 365.92,-200.75 369,-203.83 369,-206.92 369,-206.92 369,-213.08 369,-213.08 369,-216.17 365.92,-219.25 362.83,-219.25"/>
<text text-anchor="start" x="289.75" y="-206.7" font-family="Helvetica,sans-Serif" font-size="9.00">problemDetails.ts</text>
</a>
</g>
</g>
<!-- src/types/commonTypes.ts&#45;&gt;src/types/problemDetails.ts -->
<g id="edge13" class="edge">
<title>src/types/commonTypes.ts&#45;&gt;src/types/problemDetails.ts</title>
<path fill="none" stroke="#000000" stroke-opacity="0.200000" d="M260.42,-210C265.07,-210 269.85,-210 274.59,-210"/>
<polygon fill="none" stroke="#000000" stroke-opacity="0.200000" points="274.5,-212.1 280.5,-210 274.5,-207.9 274.5,-212.1"/>
</g>
<!-- src/components/main.tsx -->
<g id="node6" class="node">
<title>src/components/main.tsx</title>
<g id="a_node6"><a xlink:href="src/components/main.tsx" xlink:title="main.tsx">
<path fill="#bbfeff" stroke="black" d="M71.83,-94.25C71.83,-94.25 30.17,-94.25 30.17,-94.25 27.08,-94.25 24,-91.17 24,-88.08 24,-88.08 24,-81.92 24,-81.92 24,-78.83 27.08,-75.75 30.17,-75.75 30.17,-75.75 71.83,-75.75 71.83,-75.75 74.92,-75.75 78,-78.83 78,-81.92 78,-81.92 78,-88.08 78,-88.08 78,-91.17 74.92,-94.25 71.83,-94.25"/>
<text text-anchor="start" x="34.12" y="-81.7" font-family="Helvetica,sans-Serif" font-size="9.00">main.tsx</text>
</a>
</g>
</g>
<!-- src/components/main.tsx&#45;&gt;src/components/App.tsx -->
<g id="edge6" class="edge">
<title>src/components/main.tsx&#45;&gt;src/components/App.tsx</title>
<path fill="none" stroke="#000000" stroke-width="2" stroke-opacity="0.200000" d="M78.26,-85C79.6,-85 80.95,-85 82.3,-85"/>
<polygon fill="#000000" fill-opacity="0.200000" stroke="#000000" stroke-width="2" stroke-opacity="0.200000" points="82.23,-87.1 88.23,-85 82.23,-82.9 82.23,-87.1"/>
</g>
<!-- src/styles.css -->
<g id="node7" class="node">
<title>src/styles.css</title>
<g id="a_node7"><a xlink:href="src/styles.css" xlink:title="styles.css">
<path fill="#ffffcc" stroke="black" d="M139.83,-147.25C139.83,-147.25 97.17,-147.25 97.17,-147.25 94.08,-147.25 91,-144.17 91,-141.08 91,-141.08 91,-134.92 91,-134.92 91,-131.83 94.08,-128.75 97.17,-128.75 97.17,-128.75 139.83,-128.75 139.83,-128.75 142.92,-128.75 146,-131.83 146,-134.92 146,-134.92 146,-141.08 146,-141.08 146,-144.17 142.92,-147.25 139.83,-147.25"/>
<text text-anchor="start" x="99" y="-134.7" font-family="Helvetica,sans-Serif" font-size="9.00">styles.css</text>
</a>
</g>
</g>
<!-- src/components/main.tsx&#45;&gt;src/styles.css -->
<g id="edge5" class="edge">
<title>src/components/main.tsx&#45;&gt;src/styles.css</title>
<path fill="none" stroke="#000000" stroke-width="2" stroke-opacity="0.200000" d="M59.99,-94.47C66.44,-101.79 76.1,-112.04 90.66,-123.21"/>
<polygon fill="#000000" fill-opacity="0.200000" stroke="#000000" stroke-width="2" stroke-opacity="0.200000" points="89.63,-125.53 95.7,-127.39 92.12,-122.14 89.63,-125.53"/>
</g>
<!-- src/functions/decodeJwt.ts -->
<g id="node8" class="node">
<title>src/functions/decodeJwt.ts</title>
<g id="a_node8"><a xlink:href="src/functions/decodeJwt.ts" xlink:title="decodeJwt.ts">
<path fill="#ddfeff" stroke="black" d="M246.08,-127.25C246.08,-127.25 189.17,-127.25 189.17,-127.25 186.08,-127.25 183,-124.17 183,-121.08 183,-121.08 183,-114.92 183,-114.92 183,-111.83 186.08,-108.75 189.17,-108.75 189.17,-108.75 246.08,-108.75 246.08,-108.75 249.17,-108.75 252.25,-111.83 252.25,-114.92 252.25,-114.92 252.25,-121.08 252.25,-121.08 252.25,-124.17 249.17,-127.25 246.08,-127.25"/>
<text text-anchor="start" x="191" y="-114.7" font-family="Helvetica,sans-Serif" font-size="9.00">decodeJwt.ts</text>
</a>
</g>
</g>
<!-- src/functions/decodeJwt.ts&#45;&gt;src/atoms/userAtom.ts -->
<g id="edge9" class="edge">
<title>src/functions/decodeJwt.ts&#45;&gt;src/atoms/userAtom.ts</title>
<path fill="none" stroke="#000000" stroke-width="2" stroke-opacity="0.200000" d="M252.67,-115.1C262.66,-114.25 273.69,-113.31 284.03,-112.43"/>
<polygon fill="#000000" fill-opacity="0.200000" stroke="#000000" stroke-width="2" stroke-opacity="0.200000" points="284.11,-114.28 289.91,-111.68 283.75,-110.09 284.11,-114.28"/>
</g>
<!-- src/functions/setupHttpClient.ts -->
<g id="node9" class="node">
<title>src/functions/setupHttpClient.ts</title>
<g id="a_node9"><a xlink:href="src/functions/setupHttpClient.ts" xlink:title="setupHttpClient.ts">
<path fill="#ddfeff" stroke="black" d="M255.46,-158.25C255.46,-158.25 179.79,-158.25 179.79,-158.25 176.71,-158.25 173.62,-155.17 173.62,-152.08 173.62,-152.08 173.62,-145.92 173.62,-145.92 173.62,-142.83 176.71,-139.75 179.79,-139.75 179.79,-139.75 255.46,-139.75 255.46,-139.75 258.54,-139.75 261.62,-142.83 261.62,-145.92 261.62,-145.92 261.62,-152.08 261.62,-152.08 261.62,-155.17 258.54,-158.25 255.46,-158.25"/>
<text text-anchor="start" x="181.62" y="-145.7" font-family="Helvetica,sans-Serif" font-size="9.00">setupHttpClient.ts</text>
</a>
</g>
</g>
<!-- src/functions/setupHttpClient.ts&#45;&gt;src/atoms/userAtom.ts -->
<g id="edge10" class="edge">
<title>src/functions/setupHttpClient.ts&#45;&gt;src/atoms/userAtom.ts</title>
<path fill="none" stroke="#000000" stroke-width="2" stroke-opacity="0.200000" d="M255.07,-139.32C261.36,-137.39 267.79,-135.26 273.75,-133 281.76,-129.96 290.26,-126.17 297.96,-122.5"/>
<polygon fill="#000000" fill-opacity="0.200000" stroke="#000000" stroke-width="2" stroke-opacity="0.200000" points="299.46,-124.13 303.93,-119.62 297.62,-120.36 299.46,-124.13"/>
</g>
<!-- src/functions/setupHttpClient.ts&#45;&gt;src/types/problemDetails.ts -->
<g id="edge11" class="edge">
<title>src/functions/setupHttpClient.ts&#45;&gt;src/types/problemDetails.ts</title>
<path fill="none" stroke="#000000" stroke-width="2" stroke-opacity="0.200000" d="M235.15,-158.53C252.51,-168.54 280,-184.4 299.88,-195.87"/>
<polygon fill="#000000" fill-opacity="0.200000" stroke="#000000" stroke-width="2" stroke-opacity="0.200000" points="299.37,-198.16 305.62,-199.33 301.47,-194.52 299.37,-198.16"/>
</g>
</g>
</svg>
